<svg id="Layer_1" data-name="Layer 1" xmlns="http://www.w3.org/2000/svg" viewBox="0 0 65.14 39"><defs><style>.cls-1{fill:none;}.cls-2{fill:#f1f9fb;}</style></defs><title>zikeyebg2</title><path class="cls-1" d="M48.93,22.08a23.24,23.24,0,0,0,1.16-4.89,25.1,25.1,0,0,0,.09-5.35,25.08,25.08,0,0,0-4-3.58,23.2,23.2,0,0,0-4.37-2.49A19.11,19.11,0,0,0,26.5,5.56,19.11,19.11,0,0,0,16.21,16.92a23.16,23.16,0,0,0-1.16,4.89A25.07,25.07,0,0,0,15,27.17a25.08,25.08,0,0,0,4,3.58,23.18,23.18,0,0,0,4.37,2.49,19.11,19.11,0,0,0,15.33.21A19.11,19.11,0,0,0,48.93,22.08Zm-11.8,4.26a8.14,8.14,0,0,1-9.12,0,8.31,8.31,0,0,1-2.23-2.23,8.14,8.14,0,0,1,0-9.12A8.3,8.3,0,0,1,28,12.77a8.14,8.14,0,0,1,6.54-1.14l-.23.14a4.27,4.27,0,0,0-1.15,1.15,4.19,4.19,0,0,0,0,4.69,4.28,4.28,0,0,0,1.15,1.15,4.19,4.19,0,0,0,4.69,0,4.26,4.26,0,0,0,1.15-1.15,4.18,4.18,0,0,0,.24-.41,8.13,8.13,0,0,1-1,6.91,8.28,8.28,0,0,1-2.23,2.23Z" transform="translate(0 0)"/><polygon class="cls-2" points="32.57 0 32.56 0 32.58 0 32.57 0"/><polygon class="cls-2" points="32.57 39 32.58 39 32.56 39 32.57 39"/><path class="cls-2" d="M32.58,0H0V39H65.14V0ZM23.31,33.23a23.18,23.18,0,0,1-4.37-2.49,25.08,25.08,0,0,1-4-3.58,25.07,25.07,0,0,1,.09-5.35,23.16,23.16,0,0,1,1.16-4.89A19.11,19.11,0,0,1,26.5,5.56a19.11,19.11,0,0,1,15.33.21A23.2,23.2,0,0,1,46.2,8.26a25.08,25.08,0,0,1,4,3.58,25.1,25.1,0,0,1-.09,5.35,23.24,23.24,0,0,1-1.16,4.89A19.11,19.11,0,0,1,38.64,33.44,19.11,19.11,0,0,1,23.31,33.23Z" transform="translate(0 0)"/><path class="cls-2" d="M40.1,22.73a8.24,8.24,0,0,0,.29-5.53,4.18,4.18,0,0,1-.24.41A4.26,4.26,0,0,1,39,18.76a4.19,4.19,0,0,1-4.69,0,4.23,4.23,0,0,1-1.53-1.86,4.19,4.19,0,0,1,.39-4,4.27,4.27,0,0,1,1.15-1.15l.23-.14a8.22,8.22,0,0,0-2-.25A8.07,8.07,0,0,0,28,12.77,8.3,8.3,0,0,0,25.79,15a8.14,8.14,0,0,0,0,9.12A8.31,8.31,0,0,0,28,26.34a8.14,8.14,0,0,0,9.12,0,8.28,8.28,0,0,0,2.23-2.23A8.12,8.12,0,0,0,40.1,22.73Z" transform="translate(0 0)"/></svg>