<svg id="Layer_1" data-name="Layer 1" xmlns="http://www.w3.org/2000/svg" viewBox="0 0 65.14 39"><defs><style>.cls-1{fill:#f1f9fb;}</style></defs><title>zikeyebg</title><path class="cls-1" d="M61.38,13.26a32.15,32.15,0,0,0-5.11-5.16A37.7,37.7,0,0,0,32.57,0,37.69,37.69,0,0,0,8.88,8.09a32.11,32.11,0,0,0-5.11,5.16A29.18,29.18,0,0,0,0,19.5a29.2,29.2,0,0,0,3.77,6.24,32.14,32.14,0,0,0,5.11,5.16A37.69,37.69,0,0,0,32.57,39a37.69,37.69,0,0,0,23.7-8.09,32.22,32.22,0,0,0,5.11-5.16,29.21,29.21,0,0,0,3.76-6.24A29.19,29.19,0,0,0,61.38,13.26ZM50.09,17.18a23.24,23.24,0,0,1-1.16,4.89A19.11,19.11,0,0,1,38.64,33.44a19.11,19.11,0,0,1-15.33-.21,23.18,23.18,0,0,1-4.37-2.49,25.08,25.08,0,0,1-4-3.58,25.06,25.06,0,0,1,.09-5.35,23.16,23.16,0,0,1,1.16-4.89A19.11,19.11,0,0,1,26.5,5.56a19.11,19.11,0,0,1,15.33.21A23.2,23.2,0,0,1,46.2,8.26a25.08,25.08,0,0,1,4,3.58A25.1,25.1,0,0,1,50.09,17.18Z" transform="translate(0 0)"/><path class="cls-1" d="M40.16,17.61A4.26,4.26,0,0,1,39,18.76a4.19,4.19,0,0,1-4.69,0,4.23,4.23,0,0,1-1.53-1.86,4.19,4.19,0,0,1,.39-4,4.27,4.27,0,0,1,1.15-1.15l.23-.14a8.22,8.22,0,0,0-2-.25A8.07,8.07,0,0,0,28,12.77,8.3,8.3,0,0,0,25.79,15a8.14,8.14,0,0,0,0,9.12A8.31,8.31,0,0,0,28,26.34a8.14,8.14,0,0,0,9.12,0,8.28,8.28,0,0,0,2.23-2.23,8.2,8.2,0,0,0,1-6.91A4.17,4.17,0,0,1,40.16,17.61Z" transform="translate(0 0)"/></svg>