<svg id="Слой_2" data-name="Слой 2" xmlns="http://www.w3.org/2000/svg" viewBox="0 0 500 500"><defs><style>.cls-1{fill:#f5fafc;}</style></defs><title>Монтажная область 1</title><path class="cls-1" d="M210,133.37q21.84,21.44,21.84,56.22a133,133,0,0,1-4,32.36q-4.05,16.19-17,48.53L163.88,387H83.8l34.78-127.81A69.57,69.57,0,0,1,87,232.46Q75.7,214.67,75.71,189.59q0-34.77,22.24-56.22t56.22-21.43Q188.15,111.93,210,133.37Z"/><path class="cls-1" d="M408.16,133.37Q430,154.81,430,189.59a133,133,0,0,1-4,32.36q-4.05,16.19-17,48.53L362,387H282l34.78-127.81a69.57,69.57,0,0,1-31.54-26.7q-11.34-17.78-11.33-42.87,0-34.77,22.24-56.22t56.22-21.43Q386.32,111.93,408.16,133.37Z"/></svg>