<svg width="44" height="38" viewBox="0 0 44 38" fill="none" xmlns="http://www.w3.org/2000/svg">
<path d="M1.53059 15.0846C1.49581 14.9351 1.45421 14.7869 1.42083 14.645C1.35942 13.4402 1.92167 12.8994 2.96027 12.7222C5.08516 12.3591 7.19607 11.9207 9.31258 11.5124L9.35802 11.6053C9.80909 13.0106 10.2928 14.402 10.6962 15.8161C10.8722 16.4227 11.109 16.5971 11.6664 16.4859C14.4738 15.926 17.2881 15.4038 20.1065 14.8652C20.2306 14.85 20.356 14.8423 20.4869 14.8258C20.9517 14.7474 21.4165 14.6689 21.8745 14.5917C21.8717 14.8807 21.9276 15.1821 21.7651 15.4462C21.5932 15.4313 21.406 15.3725 21.2521 15.4166C18.6282 16.1296 16.0029 16.835 13.3358 17.3532C12.6967 17.4796 12.6046 17.9333 12.7114 18.6229C13.0332 20.6992 13.6643 22.6947 14.087 24.7445C14.5793 27.1322 15.0976 29.5073 15.6445 31.8848C15.8921 32.9537 16.2474 33.9947 16.5496 35.0535C16.5037 35.1477 16.4577 35.242 16.4132 35.3438C14.257 35.7283 12.1008 36.1128 9.94467 36.4973C9.67016 36.4235 9.38884 36.351 9.11433 36.2772L9.08148 36.2521C8.88262 36.0161 8.67694 35.7814 8.47808 35.5455L8.46428 35.5091C8.45762 35.2453 8.43192 34.9928 8.23463 34.8033C8.12627 34.3713 8.0179 33.9392 7.90954 33.5072C7.93256 32.8714 7.72669 32.2938 7.50719 31.7186C7.35583 31.1309 7.20448 30.5431 7.05172 29.9478C7.15496 29.5544 6.98964 29.1953 6.89386 28.8311C6.16713 25.9022 5.42817 22.9834 4.72188 20.0508C4.42301 18.8199 4.19368 17.584 2.63421 17.8032C2.57288 17.8146 2.50578 17.7568 2.43745 17.7305C2.21775 16.8124 1.95996 15.917 1.53059 15.0846Z" fill="#B22425"/>
<path d="M20.0927 14.8681C17.2812 15.4054 14.4668 15.9276 11.6526 16.4887C11.0952 16.5999 10.8584 16.4256 10.6824 15.819C10.279 14.4049 9.79529 13.0134 9.34422 11.6082C9.4667 11.5465 9.58237 11.486 9.70485 11.4243C11.0365 11.1928 12.3695 10.9689 13.7011 10.7374C14.2075 10.8071 14.6831 10.7111 15.1335 10.4794C15.6651 10.3807 16.1912 10.2909 16.7227 10.1923L16.7694 10.2538L16.7991 10.1859C17.0294 10.1354 17.2514 10.0786 17.4817 10.0281C17.6469 10.0442 17.8314 10.1269 17.9771 10.0765C18.9413 9.72607 19.2383 10.2634 19.3805 11.2193C19.5647 12.4402 19.8526 13.6497 20.0927 14.8681Z" fill="#F34242"/>
<path d="M20.0929 14.8682C19.8527 13.6499 19.5649 12.4404 19.3792 11.2119C19.2371 10.256 18.94 9.71869 17.9759 10.0691C17.8301 10.1195 17.647 10.0444 17.4805 10.0207C15.5025 9.99792 13.5328 9.98142 11.5548 9.95865L11.5466 9.95238C11.321 9.83832 11.1022 9.723 10.8766 9.60894C10.7866 9.31381 10.7034 9.01742 10.6134 8.7223C10.6349 8.64815 10.6306 8.58659 10.5961 8.51502C10.622 8.1984 10.6532 7.87298 10.6791 7.55635C10.881 7.27721 10.9395 6.94673 10.9297 6.58995L10.9283 6.58241C11.2349 5.91745 11.5594 5.27257 12.0549 4.75187C12.2457 4.71646 12.4433 4.6798 12.6341 4.64439C12.9188 4.84883 13.2247 4.94018 13.5588 4.91717C13.7105 4.97478 13.8608 5.02485 14.0124 5.08246C14.8811 5.6229 15.7497 6.16334 16.6197 6.71132C16.9952 7.10158 17.3654 7.50065 17.7409 7.89092C17.8066 7.9411 17.8737 7.99881 17.9408 8.05652C18.165 8.46707 18.4776 8.5182 18.8452 8.37203C19.3006 8.31872 19.6389 8.62235 19.996 8.8757L19.9878 8.86943C20.1542 9.46221 20.4902 9.25955 20.8073 9.10715C21.8363 8.6122 22.8859 8.15239 23.8804 7.58586C25.5457 6.64541 25.7481 7.05222 24.3503 5.02744C23.5594 3.88011 23.4668 3.91288 22.6316 5.03451C22.1001 5.74119 21.8523 6.72267 20.9865 7.10939C20.955 7.09184 20.9222 7.06676 20.8975 7.04794C20.8918 6.97885 20.8806 6.91856 20.8544 6.85326C21.4182 5.7508 21.9655 4.63579 22.6154 3.57971C23.0921 2.80525 23.5423 2.83864 24.122 3.41711C24.9345 4.22521 25.6098 5.12896 26.1153 6.2201C26.5493 7.15302 26.2252 7.57176 25.4897 7.82516C24.358 8.22225 23.2167 8.60553 22.0754 8.98881C21.8236 9.41751 21.3506 9.48968 20.9851 9.49515C19.7548 9.51294 19.7812 10.2252 19.9892 11.2703C20.221 12.4434 20.656 13.61 20.4761 14.8439C20.3492 14.8441 20.2169 14.853 20.0929 14.8682ZM17.5982 9.51551C17.7385 9.47388 18.0062 9.54894 18.0581 9.25867C18.1046 8.9772 17.8654 8.86568 17.6917 8.76538C16.2226 7.8764 14.7091 7.08923 13.1403 6.46043C12.7139 6.29007 12.4759 6.45117 12.3496 6.87218C12.2247 7.30074 12.1148 7.7343 12.0118 8.16659C11.8471 8.83641 12.1118 9.16148 12.7206 9.25121C14.3231 9.49177 15.9409 9.5112 17.5982 9.51551Z" fill="#99C7DA"/>
<path d="M20.4731 14.8284C20.653 13.5945 20.2194 12.4354 19.9862 11.2548C19.7851 10.2085 19.7518 9.49746 20.9821 9.47967C21.3476 9.47421 21.8138 9.4033 22.0724 8.97333C22.2512 9.29097 22.5064 9.33714 22.7939 9.25263C26.051 8.30526 29.42 7.96078 32.7288 7.29225C34.2034 6.99526 34.7596 7.52351 34.9364 9.19797C34.992 9.72556 35.0353 10.2632 35.0909 10.7908C35.1579 11.4176 35.3723 12.0794 34.4714 12.2388C33.9998 12.3185 34.2041 12.8497 34.2494 13.2077C34.4527 14.7213 34.6697 16.2324 34.8866 17.7435C34.6399 18.3895 35.1039 19.0285 34.95 19.6807C34.4167 19.0858 34.1446 18.3411 34.212 17.5647C34.331 16.1549 33.9102 14.7986 33.9066 13.4116C33.9032 12.3676 33.2864 12.3106 32.6453 12.6166C32.0111 12.9214 31.3543 13.0667 30.6754 13.1692C30.3546 12.8078 29.9202 13.2782 29.5982 12.9482C29.6789 12.6993 29.868 12.5785 30.081 12.6247C30.9738 12.802 31.8047 12.5309 32.6359 12.3377C34.8869 11.8187 34.921 11.5084 34.4506 9.4674C34.0902 7.90497 33.652 7.51854 32.1772 7.77659C30.7162 8.03211 29.2538 8.31903 27.7955 8.58962C25.9079 8.93987 24.0161 9.26751 22.1409 9.64663C20.4906 9.98404 20.2069 10.5824 20.7957 12.2739C20.8703 12.4862 20.9205 12.7185 20.9474 12.9396C21.035 13.6016 21.2592 14.0121 21.9761 13.8869C22.3318 13.8287 22.7683 13.8257 22.8652 14.4235C22.5159 14.4026 22.1456 14.2686 21.862 14.6019C21.3959 14.6728 20.9379 14.75 20.4731 14.8284Z" fill="#F34242"/>
<path d="M36.5354 30.1993C36.481 31.1215 36.0003 31.6082 35.199 31.7725C33.4723 32.1163 31.7552 32.4739 30.0368 32.8239C29.0992 33.0135 28.1534 33.1968 27.22 33.409C26.679 33.5327 26.3905 33.3836 26.2688 32.7279C25.2459 27.0631 24.2026 21.4021 23.1646 15.7324C23.5943 16.0346 23.5271 16.546 23.6054 16.9681C24.5447 21.9545 25.4855 26.9485 26.3771 31.9438C26.5339 32.8268 26.8065 33.0803 27.6187 32.8984C29.8643 32.3882 32.0833 31.7348 34.3637 31.374C35.5414 31.1867 36.1643 30.1746 35.9182 28.8482C35.6805 27.5671 35.4986 26.2833 35.4806 25.0082C35.4683 23.8021 34.9555 22.6344 35.2119 21.433C35.3428 21.7205 35.2504 22.0963 35.5311 22.3171C35.5849 22.7592 35.6401 23.2089 35.6872 23.6524C35.6301 23.9904 35.697 24.3132 35.8321 24.6233C35.9433 25.3745 36.0613 26.1243 36.1711 26.868C36.1053 27.995 36.3721 29.0914 36.5354 30.1993Z" fill="#F34242"/>
<path d="M20.9852 7.1016C20.9733 7.49359 20.8287 7.77769 20.4457 7.84096C20.4263 7.7744 20.4069 7.70784 20.4011 7.63875C20.4553 7.55074 20.508 7.4552 20.569 7.36593C20.6149 7.27165 20.6677 7.1761 20.715 7.08936C20.7764 7.07798 20.8363 7.05906 20.8962 7.04015C20.9277 7.0577 20.9523 7.07651 20.9852 7.1016Z" fill="#99C7DA"/>
<path d="M42.1224 24.0256L42.1094 24.0363C42.1094 24.0363 42.1224 24.0256 42.1224 24.0256Z" fill="#F1A697"/>
<path d="M20.8961 7.03973C20.8362 7.05865 20.7763 7.07757 20.7149 7.08895C20.7637 7.00974 20.8042 6.92426 20.853 6.84505C20.8778 6.90281 20.8904 6.97064 20.8961 7.03973Z" fill="#F6F2F2"/>
<path d="M10.5961 8.51513C10.6291 8.57917 10.628 8.64952 10.6134 8.72241C10.5899 8.67218 10.5611 8.63076 10.5513 8.578C10.5417 8.5642 10.5784 8.534 10.5961 8.51513Z" fill="#F6F2F2"/>
<path d="M17.9394 8.04841C17.8723 7.9907 17.8066 7.94052 17.7395 7.88281C17.8066 7.94052 17.8737 7.99823 17.9394 8.04841Z" fill="#F6F2F2"/>
<path d="M20.5689 7.36608C20.5148 7.45408 20.4552 7.55089 20.401 7.6389C20.4538 7.54335 20.5148 7.45408 20.5689 7.36608Z" fill="#F6F2F2"/>
<path d="M16.5428 35.0547C16.2406 33.996 15.8853 32.9549 15.6376 31.8861C15.0853 29.5173 14.5725 27.1334 14.0801 24.7457C13.6575 22.6959 13.0264 20.7004 12.7045 18.6241C12.5977 17.9345 12.6898 17.4808 13.3289 17.3545C15.996 16.8362 18.6213 16.1308 21.2452 15.4178C21.406 15.3724 21.5863 15.4325 21.7583 15.4474C21.9673 17.0301 22.4422 18.5635 22.733 20.131C23.4896 24.2081 24.411 28.2624 24.895 32.3901C24.9985 33.2518 24.7883 33.5247 24.0645 33.6512C21.5512 34.0864 19.0491 34.5818 16.5428 35.0547Z" fill="#FC3B3C"/>
<path d="M13.7012 10.7373C14.1782 10.6488 14.6566 10.5678 15.1336 10.4793C14.6832 10.711 14.2076 10.807 13.7012 10.7373Z" fill="#99C7DA"/>
<path d="M16.7229 10.1924L16.7985 10.1784L16.7685 10.2468L16.7229 10.1924Z" fill="#99C7DA"/>
<path d="M23.1577 15.7342C23.1214 15.5382 23.085 15.3423 23.0418 15.1476C23.2407 15.0795 23.4463 15.0102 23.6452 14.9421C23.8987 15.2069 24.1114 15.1752 24.2599 14.8358C24.4575 14.7992 24.6619 14.7612 24.8595 14.7246C24.9151 14.6441 24.9707 14.5636 25.0262 14.4832C26.9121 14.0475 28.7897 13.6055 30.6756 13.1699C31.3544 13.0673 32.0112 12.922 32.6455 12.6173C33.2865 12.3112 33.8965 12.3695 33.9067 13.4123C33.9103 14.7992 34.3326 16.1631 34.2121 17.5653C34.1447 18.3418 34.4236 19.0852 34.9501 19.6813C35.0374 20.2654 35.1178 20.8507 35.1968 21.4285C34.9404 22.6299 35.4463 23.7989 35.4654 25.0037C35.4835 26.2788 35.6667 27.5701 35.903 28.8437C36.1491 30.1701 35.5263 31.1822 34.3486 31.3695C32.0682 31.7303 29.8491 32.3837 27.6035 32.8939C26.7914 33.0758 26.5188 32.8224 26.362 31.9394C25.4703 26.9441 24.5296 21.95 23.5903 16.9636C23.5188 16.5403 23.586 16.0289 23.1577 15.7342Z" fill="#FC3B3C"/>
<path d="M22.864 14.4164C22.7671 13.8185 22.3307 13.8216 21.9749 13.8798C21.2648 14.0038 21.0338 13.5945 20.9462 12.9325C20.9179 12.7039 20.8691 12.4791 20.7945 12.2668C20.2057 10.5753 20.4962 9.97566 22.1397 9.63953C24.0218 9.25913 25.9136 8.93149 27.7944 8.58251C29.2527 8.31192 30.7164 8.03253 32.1761 7.76948C33.6508 7.51143 34.089 7.89786 34.4494 9.46029C34.9198 11.5012 34.8871 11.8191 32.6347 12.3306C31.8035 12.5238 30.9645 12.7887 30.0798 12.6176C29.8682 12.5789 29.6777 12.6922 29.597 12.941C29.4675 12.9651 29.3381 12.9891 29.2018 13.0144C28.832 12.6932 28.6346 12.7688 28.611 13.2877C26.9755 13.5912 25.3401 13.8946 23.7114 14.1968C23.6644 14.0574 23.6186 13.8866 23.4551 13.917C23.2847 13.9486 23.3018 14.1169 23.308 14.2639C23.1677 14.3055 23.0273 14.3471 22.8939 14.3875L22.864 14.4164Z" fill="#FC3B3C"/>
<path d="M29.2084 13.0132C29.3379 12.9892 29.4673 12.9652 29.6036 12.9399C29.9257 13.2699 30.36 12.7995 30.6809 13.161C28.795 13.5966 26.9174 14.0386 25.0315 14.4742C24.976 14.5547 24.9204 14.6352 24.8648 14.7157C24.6672 14.7523 24.4628 14.7903 24.2652 14.8269C24.009 14.586 23.8073 14.639 23.6505 14.9332C23.4516 15.0013 23.246 15.0706 23.0471 15.1387C22.8988 14.909 22.8049 14.6691 22.9019 14.3939C23.0422 14.3522 23.1825 14.3106 23.316 14.2703C23.4523 14.245 23.59 14.2272 23.7194 14.2032C25.3549 13.8997 26.9904 13.5963 28.619 13.2941C28.8577 13.2888 29.0868 13.2696 29.2084 13.0132Z" fill="#B22425"/>
<path d="M19.9948 8.86894C20.0029 8.83598 20.011 8.80303 20.0191 8.77007C20.0027 8.7967 19.9946 8.82965 19.9782 8.85628C19.9865 8.86261 19.9948 8.86894 19.9948 8.86894Z" fill="#99C7DA"/>
<path d="M25.6183 33.667C24.4576 27.412 23.297 21.1569 22.1335 14.8867C22.6843 14.8157 22.6572 15.1637 22.6992 15.3898C23.8222 21.4804 24.9453 27.5709 26.0615 33.6627C25.906 33.6604 25.7587 33.6644 25.6183 33.667Z" fill="#99C7DA"/>
<path d="M23.6437 14.9343C23.8074 14.6389 24.0104 14.5934 24.2584 14.828C24.1099 15.1674 23.904 15.1978 23.6437 14.9343Z" fill="#F34242"/>
<path d="M24.8649 14.7152C24.9205 14.6347 24.976 14.5543 25.0316 14.4738C24.9774 14.5618 24.9219 14.6423 24.8649 14.7152Z" fill="#F34242"/>
<path d="M29.2086 13.0129C29.0802 13.2706 28.8497 13.2822 28.6192 13.2938C28.6414 12.7673 28.847 12.698 29.2086 13.0129Z" fill="#F34242"/>
<path d="M23.7195 14.2026C23.5832 14.2279 23.4469 14.2532 23.3161 14.2696C23.3099 14.1227 23.2982 13.9455 23.4618 13.9152C23.6267 13.8924 23.6793 14.0619 23.7195 14.2026Z" fill="#F34242"/>
</svg>
