<svg id="Слой_1" data-name="Слой 1" xmlns="http://www.w3.org/2000/svg" viewBox="0 0 47 36"><defs><style>.cls-1{fill:#012c41;}.cls-2{fill:#1c3142;}</style></defs><title>ItemFolders</title><path class="cls-1" d="M37,36H.5a.52.52,0,0,1-.4-.2.73.73,0,0,1-.1-.49L9.5,9.89a.55.55,0,0,1,.5-.3H46.5a.52.52,0,0,1,.4.2.73.73,0,0,1,.1.49L37.5,35.7A.55.55,0,0,1,37,36ZM1.2,35H36.7l9.1-24.43H10.3Z"/><path class="cls-1" d="M37,36H.5a.47.47,0,0,1-.5-.49V.49A.47.47,0,0,1,.5,0H12.6c.2,0,.4.1.4.3l2.4,4.45H37a.47.47,0,0,1,.5.49v4.85a.5.5,0,0,1-1,0V5.74H15.1c-.2,0-.4-.1-.4-.3L12.3,1H1V35H37a.49.49,0,1,1,0,1Z"/><path class="cls-2" d="M28.6,21.56l-.9-.89a6.69,6.69,0,0,0-4.2-1.38,6.69,6.69,0,0,0-4.2,1.38l-.9.89a4.08,4.08,0,0,0-.7,1.09,4.08,4.08,0,0,0,.7,1.09l.9.89A6.69,6.69,0,0,0,23.5,26a6.69,6.69,0,0,0,4.2-1.38l.9-.89a4.08,4.08,0,0,0,.7-1.09C29.1,22.35,28.9,22,28.6,21.56Zm-2,.69a2.86,2.86,0,0,1-.2.89,3.22,3.22,0,0,1-1.8,2,3.64,3.64,0,0,1-2.7,0c-.3-.1-.5-.3-.8-.4a4.34,4.34,0,0,1-.7-.59v-.89a2.86,2.86,0,0,1,.2-.89,3.22,3.22,0,0,1,1.8-2,3.64,3.64,0,0,1,2.7,0c.3.1.5.3.8.4a4.34,4.34,0,0,1,.7.59A1.36,1.36,0,0,1,26.6,22.25Z"/><path class="cls-2" d="M24.9,22.35l-.1.1-.1.1a.1.1,0,0,0-.1.1c-.1,0-.2.1-.3.1a.37.37,0,0,1-.3-.1.1.1,0,0,1-.1-.1l-.1-.1-.1-.1a.1.1,0,0,0-.1-.1c0-.1-.1-.2-.1-.3a.36.36,0,0,1,.1-.3.1.1,0,0,1,.1-.1l.1-.1.1-.1h-.3a1.28,1.28,0,0,0-.6.1.35.35,0,0,0-.2.1l-.2.2-.2.2a.3.3,0,0,0-.1.2,1.81,1.81,0,0,0,0,1.19.34.34,0,0,0,.1.2l.2.2.2.2a.31.31,0,0,0,.2.1,1.87,1.87,0,0,0,1.2,0,.35.35,0,0,0,.2-.1l.2-.2.2-.2a.3.3,0,0,0,.1-.2,1.24,1.24,0,0,0,.1-.59c0-.2,0-.3-.1-.4Z"/></svg>