<?xml version="1.0" encoding="utf-8"?>
<!-- Generator: Adobe Illustrator 21.1.0, SVG Export Plug-In . SVG Version: 6.00 Build 0)  -->
<svg version="1.1" id="Layer_1" xmlns="http://www.w3.org/2000/svg" xmlns:xlink="http://www.w3.org/1999/xlink" x="0px" y="0px"
	 viewBox="0 0 245.7 41.2" style="enable-background:new 0 0 245.7 41.2;" xml:space="preserve">
<style type="text/css">
	.st0{fill:#002D41;}
</style>
<g>
	<g>
		<g>
			<path class="st0" d="M78.1,33v-1.5l8.7-12.8h-7.8v-2.3h11.3v1.5l-8.7,12.8h9V33H78.1z"/>
			<path class="st0" d="M95.8,13c-0.5,0-1-0.2-1.4-0.5c-0.4-0.3-0.6-0.8-0.6-1.3c0-0.5,0.2-1,0.6-1.3c0.4-0.3,0.8-0.5,1.4-0.5
				c0.5,0,1,0.2,1.4,0.5c0.4,0.3,0.6,0.8,0.6,1.3c0,0.5-0.2,1-0.6,1.3C96.8,12.8,96.3,13,95.8,13z M94.3,33V16.4h2.8V33H94.3z"/>
			<path class="st0" d="M102.7,33V8.7h2.8v16.4h0.1l7.1-8.7h3.1l-5.6,6.6l6.3,9.9h-3.1l-4.8-8l-3.1,3.6V33H102.7z"/>
			<path class="st0" d="M123.9,33l7.9-22.5h1.6l7.9,22.5h-1.6l-2.6-7.7h-8.9l-2.7,7.7H123.9z M130,19.7l-1.4,4.2h8l-1.4-4.2
				c-0.5-1.3-0.9-2.6-1.3-3.9c-0.4-1.2-0.8-2.5-1.2-3.9h-0.1c-0.4,1.4-0.8,2.7-1.2,3.9C130.9,17.1,130.5,18.4,130,19.7z"/>
			<path class="st0" d="M144.7,33V16.6h1.3l0.1,2.5h0.1c0.8-0.8,1.7-1.5,2.6-2.1c0.9-0.6,1.9-0.8,3-0.8c1.7,0,3,0.5,3.7,1.5
				c0.8,1,1.2,2.6,1.2,4.7V33h-1.5V22.7c0-1.7-0.3-3-0.9-3.9c-0.6-0.8-1.5-1.2-2.9-1.2c-1,0-1.9,0.3-2.7,0.8
				c-0.8,0.5-1.7,1.3-2.7,2.3V33H144.7z"/>
			<path class="st0" d="M166.4,33.4c-0.7,0-1.3-0.1-1.8-0.3c-0.6-0.2-1.1-0.5-1.5-0.8c-0.4-0.4-0.8-0.8-1-1.4
				c-0.2-0.6-0.4-1.2-0.4-2c0-1.8,0.8-3.2,2.5-4.1c1.7-0.9,4.4-1.6,8-2c0-0.6,0-1.2-0.1-1.9c-0.1-0.6-0.3-1.2-0.6-1.7
				s-0.7-0.9-1.2-1.2c-0.5-0.3-1.2-0.5-2-0.5c-1.1,0-2.1,0.2-3,0.6c-0.9,0.4-1.6,0.9-2.2,1.3l-0.7-1.1c0.3-0.2,0.7-0.4,1.1-0.7
				c0.4-0.2,0.9-0.5,1.4-0.7c0.5-0.2,1.1-0.4,1.7-0.5c0.6-0.1,1.2-0.2,1.9-0.2c1,0,1.8,0.2,2.4,0.5c0.7,0.3,1.2,0.8,1.6,1.3
				c0.4,0.6,0.7,1.2,0.9,2c0.2,0.8,0.3,1.6,0.3,2.5V33h-1.3l-0.1-2.1h-0.1c-0.8,0.7-1.7,1.2-2.7,1.8
				C168.5,33.1,167.5,33.4,166.4,33.4z M166.6,32.1c1,0,1.9-0.2,2.7-0.7c0.9-0.5,1.8-1.1,2.8-2v-5.6c-1.7,0.2-3.1,0.5-4.3,0.7
				c-1.2,0.3-2.1,0.6-2.8,1.1c-0.7,0.4-1.2,0.9-1.5,1.4s-0.5,1.1-0.5,1.7c0,0.6,0.1,1.1,0.3,1.5c0.2,0.4,0.4,0.7,0.7,1
				c0.3,0.3,0.7,0.5,1.1,0.6C165.7,32,166.2,32.1,166.6,32.1z"/>
			<path class="st0" d="M181.5,33.4c-1.3,0-2-0.9-2-2.6V8.5h1.5V31c0,0.4,0.1,0.6,0.2,0.8s0.3,0.3,0.5,0.3c0.1,0,0.1,0,0.2,0
				c0.1,0,0.2,0,0.4-0.1l0.3,1.2c-0.2,0-0.3,0.1-0.5,0.1C182,33.4,181.8,33.4,181.5,33.4z"/>
			<path class="st0" d="M186.9,40.4c-0.6,0-1.2-0.1-1.7-0.3l0.3-1.3c0.2,0.1,0.4,0.1,0.6,0.2c0.2,0.1,0.5,0.1,0.7,0.1
				c1,0,1.9-0.4,2.6-1.2c0.7-0.8,1.2-1.9,1.6-3.1l0.4-1.4l-6.7-16.7h1.6l4,10.3c0.2,0.7,0.5,1.4,0.8,2.3c0.3,0.8,0.6,1.6,0.9,2.3
				h0.1c0.2-0.7,0.5-1.5,0.8-2.3c0.3-0.8,0.5-1.6,0.7-2.3l3.5-10.3h1.5L192.4,35c-0.2,0.7-0.5,1.4-0.8,2c-0.3,0.7-0.7,1.2-1.2,1.7
				c-0.4,0.5-1,0.9-1.5,1.2C188.3,40.3,187.7,40.4,186.9,40.4z"/>
			<path class="st0" d="M206.9,33.4c-0.8,0-1.5-0.1-2-0.4c-0.5-0.2-0.9-0.6-1.3-1c-0.3-0.4-0.5-1-0.7-1.6c-0.1-0.6-0.2-1.3-0.2-2
				V17.9h-2.6v-1.2l2.6-0.1l0.2-4.7h1.3v4.7h4.7v1.3h-4.7v10.7c0,0.5,0,1,0.1,1.4c0.1,0.4,0.2,0.8,0.4,1.1c0.2,0.3,0.5,0.5,0.8,0.7
				s0.8,0.3,1.4,0.3c0.3,0,0.7-0.1,1-0.2c0.4-0.1,0.7-0.2,1-0.4l0.4,1.2c-0.5,0.2-1,0.3-1.4,0.4C207.7,33.3,207.3,33.4,206.9,33.4z"
				/>
			<path class="st0" d="M213.9,12.7c-0.4,0-0.7-0.1-1-0.4c-0.3-0.2-0.4-0.6-0.4-1c0-0.4,0.1-0.8,0.4-1c0.3-0.2,0.6-0.4,1-0.4
				c0.4,0,0.7,0.1,1,0.4c0.3,0.2,0.4,0.6,0.4,1c0,0.4-0.1,0.7-0.4,1C214.6,12.5,214.3,12.7,213.9,12.7z M213.1,33V16.6h1.5V33H213.1
				z"/>
			<path class="st0" d="M227,33.4c-1.1,0-2-0.2-2.9-0.6c-0.9-0.4-1.7-0.9-2.4-1.7c-0.7-0.7-1.2-1.6-1.6-2.7
				c-0.4-1.1-0.6-2.3-0.6-3.6c0-1.4,0.2-2.6,0.6-3.7c0.4-1.1,1-2,1.6-2.7c0.7-0.7,1.5-1.3,2.4-1.7c0.9-0.4,1.8-0.6,2.8-0.6
				c1.1,0,2.1,0.2,2.8,0.6c0.7,0.4,1.4,0.9,2,1.4l-0.9,1.1c-0.5-0.5-1.1-0.9-1.7-1.2c-0.6-0.3-1.4-0.5-2.1-0.5
				c-0.8,0-1.6,0.2-2.3,0.5c-0.7,0.4-1.3,0.9-1.9,1.5c-0.5,0.6-1,1.4-1.3,2.3c-0.3,0.9-0.5,1.9-0.5,3c0,1.1,0.1,2,0.4,2.9
				c0.3,0.9,0.7,1.6,1.2,2.3c0.5,0.6,1.1,1.1,1.9,1.5c0.7,0.4,1.6,0.5,2.4,0.5c0.9,0,1.7-0.2,2.4-0.5c0.7-0.4,1.4-0.8,2-1.3l0.8,1.1
				c-0.7,0.6-1.5,1.1-2.4,1.5C229,33.2,228,33.4,227,33.4z"/>
			<path class="st0" d="M240.1,33.4c-1.2,0-2.4-0.2-3.4-0.7c-1-0.4-1.9-1-2.6-1.6L235,30c0.7,0.6,1.5,1.1,2.2,1.5
				c0.8,0.4,1.8,0.6,3,0.6c1.3,0,2.3-0.3,2.9-1c0.6-0.6,1-1.4,1-2.3c0-0.5-0.1-0.9-0.4-1.3c-0.2-0.4-0.6-0.7-0.9-1
				c-0.4-0.3-0.8-0.5-1.3-0.7c-0.5-0.2-0.9-0.4-1.4-0.6c-0.6-0.2-1.2-0.5-1.9-0.7c-0.6-0.3-1.2-0.6-1.7-0.9
				c-0.5-0.4-0.9-0.8-1.2-1.3c-0.3-0.5-0.5-1.1-0.5-1.8c0-0.6,0.1-1.2,0.3-1.7c0.2-0.5,0.6-1,1-1.4c0.5-0.4,1-0.7,1.7-0.9
				c0.6-0.2,1.4-0.3,2.3-0.3c0.9,0,1.7,0.2,2.5,0.5c0.8,0.3,1.5,0.7,2.1,1.2l-0.8,1.1c-0.5-0.4-1.1-0.8-1.7-1
				c-0.6-0.3-1.3-0.4-2.2-0.4c-0.6,0-1.2,0.1-1.6,0.3c-0.5,0.2-0.8,0.4-1.1,0.7c-0.3,0.3-0.5,0.6-0.7,1c-0.1,0.4-0.2,0.7-0.2,1.1
				c0,0.5,0.1,0.9,0.3,1.2c0.2,0.3,0.5,0.6,0.9,0.9c0.4,0.3,0.8,0.5,1.2,0.7c0.5,0.2,0.9,0.4,1.4,0.6c0.6,0.2,1.3,0.5,1.9,0.7
				c0.6,0.2,1.2,0.6,1.7,0.9c0.5,0.4,0.9,0.8,1.2,1.3c0.3,0.5,0.5,1.2,0.5,2c0,0.6-0.1,1.2-0.4,1.8c-0.2,0.6-0.6,1-1.1,1.5
				c-0.5,0.4-1.1,0.8-1.7,1C241.8,33.2,241,33.4,240.1,33.4z"/>
		</g>
		<g>
			<g>
				<path class="st0" d="M64.8,14c-1.6-2-3.4-3.8-5.4-5.5C52.9,3.2,44.1,0,34.4,0c-9.7,0-18.5,3.2-25,8.5C7.4,10.2,5.5,12,4,14
					c-1.6,2-2.9,4.3-4,6.6c1,2.3,2.4,4.6,4,6.6c1.6,2,3.4,3.8,5.4,5.5c6.6,5.3,15.4,8.5,25,8.5c9.7,0,18.5-3.2,25-8.5
					c2-1.6,3.8-3.5,5.4-5.5c1.6-2,2.9-4.3,4-6.6C67.8,18.3,66.4,16,64.8,14z M52.9,18.2c-0.2,1.8-0.6,3.5-1.2,5.2
					c-1.9,5.3-5.6,9.7-10.9,12c-5.2,2.3-11,2-16.2-0.2c-1.6-0.7-3.2-1.6-4.6-2.6c-1.5-1.1-2.9-2.3-4.2-3.8c-0.2-1.9-0.1-3.8,0.1-5.7
					c0.2-1.8,0.6-3.5,1.2-5.2c1.9-5.3,5.6-9.7,10.9-12c5.2-2.3,11-2,16.2,0.2c1.6,0.7,3.2,1.6,4.6,2.6c1.5,1.1,2.9,2.3,4.2,3.8
					C53.2,14.4,53.1,16.3,52.9,18.2z"/>
			</g>
			<g>
				<path class="st0" d="M42.4,18.6c-0.2,0.2-0.3,0.5-0.5,0.7c-0.2,0.2-0.4,0.4-0.7,0.5c-0.2,0.2-0.5,0.3-0.8,0.4
					c-0.5,0.2-1.1,0.3-1.7,0.3c-0.6,0-1.2-0.1-1.7-0.3c-0.3-0.1-0.5-0.2-0.8-0.4c-0.2-0.2-0.5-0.3-0.7-0.5c-0.2-0.2-0.4-0.4-0.5-0.7
					c-0.2-0.2-0.3-0.5-0.4-0.8c-0.2-0.5-0.3-1.1-0.3-1.7c0-0.6,0.1-1.2,0.3-1.7c0.1-0.3,0.2-0.5,0.4-0.8c0.2-0.2,0.3-0.5,0.5-0.7
					c0.2-0.2,0.4-0.4,0.7-0.5c0.1-0.1,0.2-0.1,0.2-0.2c-0.7-0.2-1.4-0.3-2.1-0.3c-1.2,0-2.3,0.2-3.4,0.7c-0.5,0.2-1,0.5-1.5,0.8
					c-0.5,0.3-0.9,0.7-1.3,1.1c-0.4,0.4-0.8,0.8-1.1,1.3c-0.3,0.5-0.6,1-0.8,1.5c-0.4,1.1-0.7,2.2-0.7,3.4c0,1.2,0.2,2.3,0.7,3.4
					c0.2,0.5,0.5,1,0.8,1.5c0.3,0.5,0.7,0.9,1.1,1.3c0.4,0.4,0.8,0.8,1.3,1.1c0.5,0.3,1,0.6,1.5,0.8c1.1,0.4,2.2,0.7,3.4,0.7
					c1.2,0,2.3-0.2,3.4-0.7c0.5-0.2,1-0.5,1.5-0.8c0.5-0.3,0.9-0.7,1.3-1.1c0.4-0.4,0.8-0.8,1.1-1.3c0.3-0.5,0.6-1,0.8-1.5
					c0.4-1.1,0.7-2.2,0.7-3.4c0-0.9-0.1-1.7-0.4-2.5C42.6,18.3,42.5,18.5,42.4,18.6z"/>
			</g>
		</g>
	</g>
</g>
</svg>
