<?xml version="1.0" encoding="utf-8"?>
<!-- Generator: Adobe Illustrator 21.1.0, SVG Export Plug-In . SVG Version: 6.00 Build 0)  -->
<svg version="1.1" id="Layer_1" xmlns="http://www.w3.org/2000/svg" xmlns:xlink="http://www.w3.org/1999/xlink" x="0px" y="0px"
	 viewBox="0 0 501 305.6" style="enable-background:new 0 0 501 305.6;" xml:space="preserve">
<style type="text/css">
	.st0{fill:#FCFCFC;}
	.st1{fill:#012D41;}
	.st2{fill:#DAECF3;}
	.st3{fill:#FFFFFF;}
	.st4{opacity:0.8;fill:#012D41;enable-background:new    ;}
	.st5{fill:#FF404E;}
	.st6{opacity:0.8;fill:#FF404E;enable-background:new    ;}
	.st7{opacity:0.23;fill:#FF404E;enable-background:new    ;}
</style>
<title>Mesa de trabajo 6 copia</title>
<g>
	<g id="Слой_13">
		
			<image style="overflow:visible;opacity:5.000000e-02;enable-background:new    ;" width="92" height="148" xlink:href="3F1B2136.html"  transform="matrix(1 0 0 1 0 39)">
		</image>
		<path class="st0" d="M5.5,45.6h74.1c1.4,0,2.5,1.1,2.5,2.5v129.8c0,1.4-1.1,2.5-2.5,2.5H5.5c-1.4,0-2.5-1.1-2.5-2.5V48.1
			C3,46.7,4.1,45.6,5.5,45.6z"/>
		
			<image style="overflow:visible;opacity:5.000000e-02;enable-background:new    ;" width="451" height="41" xlink:href="3F1B213A.html" >
		</image>
		<path class="st0" d="M5.5,6.9h433.4c1.4,0,2.5,1.1,2.5,2.5v22.7c0,1.4-1.1,2.5-2.5,2.5H5.5c-1.4,0-2.5-1.1-2.5-2.5V9.4
			C3,8,4.1,6.9,5.5,6.9z"/>
		
			<image style="overflow:visible;opacity:5.000000e-02;enable-background:new    ;" width="92" height="266" xlink:href="3F1B213D.html"  transform="matrix(1 0 0 1 90 39)">
		</image>
		<path class="st0" d="M168.9,298H96.4c-1.9-0.1-3.3-1.6-3.3-3.5V49.3c-0.1-1.9,1.4-3.4,3.3-3.5h72.5c1.9,0.1,3.3,1.6,3.3,3.5v245.2
			C172.2,296.4,170.8,297.9,168.9,298z"/>
		
			<image style="overflow:visible;opacity:5.000000e-02;enable-background:new    ;" width="92" height="101" xlink:href="3F1B213E.html"  transform="matrix(1 0 0 1 180 39)">
		</image>
		<path class="st0" d="M185.7,45.8h74.1c1.4,0,2.5,1.1,2.5,2.5v83.1c0,1.4-1.1,2.5-2.5,2.5h-74.1c-1.4,0-2.5-1.1-2.5-2.5V48.3
			C183.2,46.9,184.3,45.8,185.7,45.8z"/>
		
			<image style="overflow:visible;opacity:5.000000e-02;enable-background:new    ;" width="92" height="71" xlink:href="3F1B213C.html"  transform="matrix(1 0 0 1 270 39)">
		</image>
		<path class="st0" d="M275.8,45.8h74.1c1.4,0,2.5,1.1,2.5,2.5v52.6c0,1.4-1.1,2.5-2.5,2.5h-74.1c-1.4,0-2.5-1.1-2.5-2.5V48.3
			C273.3,46.9,274.5,45.8,275.8,45.8z"/>
		
			<image style="overflow:visible;opacity:5.000000e-02;enable-background:new    ;" width="92" height="56" xlink:href="3F1B213B.html"  transform="matrix(1 0 0 1 359 39)">
		</image>
		<path class="st0" d="M364.9,45.8h74c1.4,0,2.5,1.1,2.5,2.5v38.1c0,1.4-1.1,2.5-2.5,2.5h-74c-1.4,0-2.5-1.1-2.5-2.5V48.3
			C362.4,46.9,363.5,45.8,364.9,45.8z"/>
		
			<image style="overflow:visible;opacity:5.000000e-02;enable-background:new    ;" width="92" height="118" xlink:href="3F1B2135.html"  transform="matrix(1 0 0 1 0 186)">
		</image>
		<path class="st0" d="M5.5,192.3h74.1c1.4,0,2.5,1.1,2.5,2.5v100.6c0,1.4-1.1,2.5-2.5,2.5H5.5c-1.4,0-2.5-1.1-2.5-2.5V194.8
			C3,193.4,4.1,192.3,5.5,192.3z"/>
		<path class="st1" d="M26.2,28.1c-0.3,0.3-0.7,0.3-1,0c0,0,0,0,0,0l-2.8-2.9c-0.1-0.1-0.2-0.3-0.2-0.5v-0.5
			c-1.9,1.5-4.5,1.7-6.6,0.5c-0.9-0.5-1.6-1.3-2.1-2.2c-1.1-1.9-1.1-4.1,0-6c0.5-0.9,1.3-1.6,2.1-2.2c1.8-1.1,4.1-1.1,5.9,0
			c0.9,0.5,1.6,1.3,2.1,2.2c1.2,2.1,1,4.7-0.5,6.6h0.5c0.2,0,0.4,0.1,0.5,0.2l2.8,2.9c0.3,0.3,0.3,0.7,0,1c0,0,0,0,0,0L26.2,28.1z
			 M21.9,17.7c-0.3-0.6-0.8-1.1-1.4-1.4c-1.2-0.7-2.7-0.7-3.9,0c-0.6,0.3-1.1,0.8-1.4,1.4c-0.7,1.2-0.7,2.7,0,3.9
			c0.3,0.6,0.8,1.1,1.4,1.4c1.2,0.7,2.7,0.7,3.9,0c0.6-0.3,1.1-0.8,1.4-1.4C22.6,20.4,22.6,18.9,21.9,17.7z M21.3,20.1
			c0,0.1,0,0.2-0.1,0.2c-0.1,0.1-0.1,0.1-0.2,0.1h-1.6V22c0,0.1,0,0.2-0.1,0.2c-0.1,0.1-0.1,0.1-0.2,0.1h-0.9c-0.1,0-0.2,0-0.2-0.1
			c-0.1-0.1-0.1-0.1-0.1-0.2v-1.6h-1.6c-0.1,0-0.2,0-0.2-0.1c-0.1-0.1-0.1-0.1-0.1-0.2v-0.9c0-0.1,0-0.1,0.1-0.2
			c0.1-0.1,0.1-0.1,0.2-0.1h1.6v-1.6c0-0.1,0-0.2,0.1-0.2C17.9,17,18,17,18.1,17H19c0.1,0,0.2,0,0.2,0.1c0.1,0.1,0.1,0.1,0.1,0.2
			v1.6h1.6c0.1,0,0.2,0,0.2,0.1c0.1,0.1,0.1,0.1,0.1,0.2L21.3,20.1z"/>
		<path class="st1" d="M22.6,213.8c0.7,0,1.4,0.3,1.9,0.8c1.1,1.1,1.1,2.8,0,3.9c-1.1,1.1-2.8,1.1-3.8,0c0,0,0,0,0,0
			c-0.5-0.5-0.8-1.3-0.8-2c0-0.2,0-0.4,0.1-0.6l-2.9-1.8c-1.1,0.9-2.6,0.8-3.6-0.2c-1.1-1.1-1.1-2.8,0-3.9c1-1,2.5-1.1,3.6-0.2
			l2.8-1.8c0-0.2-0.1-0.4-0.1-0.6c0-0.7,0.3-1.5,0.8-2c1.1-1.1,2.8-1.1,3.8,0c0,0,0,0,0,0c1.1,1.1,1.1,2.8,0,3.9
			c-1,1-2.5,1.1-3.6,0.2l-2.9,1.8c0.1,0.4,0.1,0.8,0,1.2l2.9,1.9C21.4,214,22,213.8,22.6,213.8z"/>
		<path class="st1" d="M117.6,58.4c0.2,0,0.4,0.1,0.5,0.2c0.1,0.1,0.2,0.3,0.2,0.5v9.6c0,0.2-0.1,0.4-0.2,0.5
			c-0.1,0.1-0.3,0.2-0.5,0.2h-16.8c-0.2,0-0.4-0.1-0.5-0.2c-0.1-0.1-0.2-0.3-0.2-0.5v-9.6c0-0.2,0.1-0.4,0.2-0.5
			c0.1-0.1,0.3-0.2,0.5-0.2H117.6z M114.7,68c0-0.6,0.2-1.2,0.7-1.6c0.4-0.4,1-0.7,1.6-0.7V62c-0.6,0-1.2-0.2-1.6-0.7
			c-0.4-0.4-0.7-1-0.7-1.6h-10.9c0,0.6-0.2,1.2-0.7,1.6c-0.4,0.4-1,0.7-1.6,0.7v3.7c0.6,0,1.2,0.2,1.6,0.7c0.4,0.4,0.7,1,0.7,1.6
			H114.7z M109.2,60.6c0.5,0,1,0.1,1.4,0.4c0.4,0.3,0.8,0.7,1,1.2c0.5,1,0.5,2.2,0,3.2c-0.2,0.5-0.6,0.9-1,1.2
			c-0.8,0.6-1.9,0.6-2.7,0c-0.4-0.3-0.8-0.7-1-1.2c-0.5-1-0.5-2.2,0-3.2c0.2-0.5,0.6-0.9,1-1.2C108.3,60.8,108.7,60.7,109.2,60.6
			L109.2,60.6z M110.6,65.4v-0.2c0-0.2-0.1-0.3-0.3-0.3c0,0-0.1,0-0.1,0h-0.4v-2.4c0-0.2-0.1-0.3-0.3-0.3c0,0-0.1,0-0.1,0h-0.3
			c-0.2,0-0.3,0.1-0.4,0.2l-0.6,0.6c-0.1,0.1-0.2,0.3-0.1,0.4c0,0,0,0.1,0.1,0.1l0.2,0.2c0.1,0.1,0.1,0.1,0.2,0.1
			c0.1,0,0.2,0,0.2-0.1l0.1-0.1v0.3v1.1h-0.4c-0.2,0-0.3,0.1-0.3,0.3v0.2c0,0.2,0.1,0.3,0.3,0.3h1.9
			C110.5,65.7,110.6,65.6,110.6,65.4L110.6,65.4z"/>
		<path class="st1" d="M290.1,59.4c0.1-0.1,0.2-0.1,0.3-0.1c0.1,0,0.2,0,0.2,0.1l3.1,3.2c0.1,0.1,0.1,0.1,0.1,0.2
			c0,0.1,0,0.2-0.1,0.3l-7.4,7.5l-3.5,0.6c-0.2,0-0.4,0-0.6-0.2c-0.2-0.2-0.2-0.4-0.2-0.6l0.6-3.5L290.1,59.4z M284.6,68.7v-1.4h-1
			l-0.3,1.8l0.9,0.9l1.8-0.3v-1L284.6,68.7z M285.6,66.3c0.2,0.2,0.4,0.2,0.6,0l4.4-4.4c0.1-0.2,0.1-0.4,0-0.6
			c-0.2-0.2-0.4-0.2-0.6,0l-4.4,4.4C285.4,65.9,285.4,66.2,285.6,66.3z M296.2,60.6c0.6-0.5,0.6-1.4,0-2c0,0,0,0,0,0l-1.7-1.7
			c-0.5-0.5-1.4-0.5-1.9,0c0,0,0,0,0,0l-1.3,1.3c-0.1,0.1-0.1,0.2-0.1,0.3c0,0.1,0,0.2,0.1,0.2l3.1,3.2c0.1,0.1,0.1,0.1,0.2,0.1
			c0.1,0,0.2,0,0.3-0.1L296.2,60.6z"/>
		<path class="st1" d="M376,57.2c1.2,0,2.4,0.3,3.5,0.9c1,0.6,1.9,1.4,2.6,2.4c1.3,2,1.3,4.6,0,6.7c-0.6,1-1.5,1.9-2.6,2.4
			c-2.2,1.2-4.8,1.2-7,0c-1-0.6-1.9-1.4-2.6-2.4c-1.3-2-1.3-4.6,0-6.7c0.6-1,1.5-1.9,2.6-2.4C373.6,57.5,374.8,57.2,376,57.2z
			 M376,69.3c1,0,2-0.2,2.8-0.7c0.9-0.5,1.6-1.2,2.1-2c1-1.7,1-3.7,0-5.4c-0.5-0.8-1.2-1.5-2.1-2c-1.8-1-3.9-1-5.7,0
			c-0.9,0.5-1.6,1.2-2.1,2c-1,1.7-1,3.7,0,5.4c0.5,0.8,1.2,1.5,2.1,2C374,69,375,69.3,376,69.3z M377.8,66.5
			c0.1,0.1,0.2,0.1,0.3,0.1c0.1,0,0.2-0.1,0.2-0.1l0.5-0.7c0.1-0.1,0.1-0.2,0.1-0.2c0-0.1-0.1-0.2-0.1-0.2l-1.9-1.3v-3.8
			c0-0.1,0-0.2-0.1-0.2c-0.1-0.1-0.2-0.1-0.2-0.1h-0.9c-0.1,0-0.2,0-0.2,0.1c-0.1,0.1-0.1,0.1-0.1,0.2v4.4c0,0.1,0.1,0.2,0.1,0.3
			L377.8,66.5z"/>
		<path class="st1" d="M201.7,61.4L201.7,61.4c0.7-0.4,0.9-1.2,0.7-1.9c-0.2-0.7-0.9-1.1-1.6-1l0,0c0.3-0.7,0.2-1.5-0.5-1.9
			c-0.6-0.4-1.4-0.4-1.9,0.2h-0.1c0-0.8-0.7-1.5-1.5-1.5s-1.5,0.7-1.5,1.5h-0.1l0,0c-0.5-0.7-1.4-0.8-2.1-0.3c0,0,0,0,0,0
			c-0.7,0.5-0.8,1.4-0.3,2.1l0,0l-0.2,0.3l-0.2-0.1c-0.8-0.2-1.6,0.3-1.8,1.1c0,0,0,0,0,0c-0.2,0.8,0.3,1.6,1.1,1.8h0.1l0,0
			l-0.2,0.1c-0.8,0.3-1.1,1.2-0.8,2c0.3,0.8,1.2,1.1,1.9,0.8c0,0,0,0,0.1,0l0.1-0.1l0,0c-0.1,0.1-0.1,0.1-0.1,0.2
			c-0.4,0.7-0.2,1.6,0.6,2.1c0.7,0.4,1.6,0.1,2-0.6l0,0l0,0c0,0.8,0.7,1.5,1.5,1.5s1.5-0.7,1.5-1.5h0.1l0,0c0.5,0.6,1.5,0.7,2.1,0.1
			c0,0,0,0,0,0c0.6-0.5,0.7-1.4,0.2-2v-0.1c0.8,0.1,1.5-0.4,1.7-1.2C202.5,62.4,202.2,61.7,201.7,61.4z M199.5,60.5c0,0,0,0.1,0,0.1
			l0,0c0.1,0.3,0.1,0.6,0.1,0.9c0,1.7-1.4,3-3,3c-1.7,0-3-1.4-3-3c0-1.7,1.4-3,3-3C197.9,58.4,199.1,59.2,199.5,60.5L199.5,60.5z"/>
		<path class="st1" d="M192.3,66.9l-1.5,3.6l2.1,0.1l1.3,1.4c0,0,1.1-2.7,1.4-3.6C194.3,68.7,193,68.1,192.3,66.9z"/>
		<path class="st1" d="M197.4,68.5L199,72l1.5-1.4h1.9c0,0-1.2-2.6-1.6-3.5C200.1,68.3,198.7,68.8,197.4,68.5z"/>
		<path class="st1" d="M22.9,65.6V63l-2.7-3l-1.5-0.1c-0.2-1.4-0.2-1.4-0.8-2.1h-6.5c-1.1,0.5-0.9,1.4-0.9,2.1H9.1
			c0,0.2,0,0.5,0,0.8h6.5c0,0.4-0.2,0.7-0.6,0.7c0,0-0.1,0-0.1,0H9.9c0,0.3,0,0.4,0,0.7h4.9c0,0.3,0,0.4,0,0.7H9.2
			c0,0.3,0,0.6,0,0.8c1.7,0,3.3,0,5,0c-0.4,0.7-2.9,0.7-3.6,0.7c0,1.1,0,2.1,0,3.1c0.1,1,0.8,1.8,1.8,2c1,0.2,2-0.3,2.4-1.3
			c0.1-0.3,0.2-0.6,0.4-0.9h2.6c0.3,1.2,0.9,2.1,2.3,2.1s2-0.9,2.3-2.1l1.3-0.2V66L22.9,65.6z M12.7,68.4c-0.6,0-1.1-0.6-1-1.2
			c0-0.3,0.2-0.6,0.4-0.8l0,0c0.4-0.2,0.8-0.2,1.1,0l0,0c0.5,0.4,0.6,1.1,0.2,1.6C13.3,68.2,13,68.4,12.7,68.4L12.7,68.4z M20,68.4
			c-0.2,0-0.4-0.1-0.6-0.2l-0.1-0.1c-0.5-0.4-0.5-1.1-0.2-1.6c0.1-0.1,0.1-0.2,0.2-0.2l0,0c0.3-0.2,0.7-0.2,1.1-0.1l0,0l0,0
			c0.5,0.3,0.8,0.9,0.5,1.5C20.7,68.2,20.3,68.4,20,68.4L20,68.4z M18.6,63.5v-2.4c0.4,0.1,0.9,0,1.1,0.2c0.7,0.6,1.4,1.3,2.2,2.2
			H18.6z"/>
		<path class="st2" d="M346.2,20.1H37.5c-0.6,0-1.1,0.4-1.1,1l0,0c0,0.6,0.5,1,1.1,1h308.7c0.6,0,1.1-0.4,1.1-1l0,0
			C347.2,20.5,346.8,20.1,346.2,20.1z"/>
		<path class="st2" d="M32.4,62.3h40.7c0.5,0,0.8,0.4,0.8,0.8v1.1c0,0.5-0.4,0.8-0.8,0.8H32.4c-0.5,0-0.8-0.4-0.8-0.8v-1.1
			C31.6,62.7,32,62.3,32.4,62.3z"/>
		<path class="st2" d="M32.4,210.3h36.1c0.5,0,0.8,0.4,0.8,0.8v1.1c0,0.5-0.4,0.8-0.8,0.8H32.4c-0.5,0-0.8-0.4-0.8-0.8v-1.1
			C31.6,210.6,32,210.3,32.4,210.3z"/>
		<path class="st2" d="M304.2,62.3h36.1c0.5,0,0.8,0.4,0.8,0.8v1.1c0,0.5-0.4,0.8-0.8,0.8h-36.1c-0.5,0-0.8-0.4-0.8-0.8v-1.1
			C303.4,62.7,303.8,62.3,304.2,62.3z"/>
		<path class="st2" d="M208.8,62.3h44.3c0.5,0,0.8,0.4,0.8,0.8v1.1c0,0.5-0.4,0.8-0.8,0.8h-44.3c-0.5,0-0.8-0.4-0.8-0.8v-1.1
			C208,62.7,208.3,62.3,208.8,62.3z"/>
		<path class="st2" d="M387.6,62.3h44.3c0.5,0,0.8,0.4,0.8,0.8v1.1c0,0.5-0.4,0.8-0.8,0.8h-44.3c-0.5,0-0.8-0.4-0.8-0.8v-1.1
			C386.8,62.7,387.1,62.3,387.6,62.3z"/>
		<path class="st2" d="M128.7,62.6h30.4c0.5,0,0.8,0.4,0.8,0.8v0.8c0,0.5-0.4,0.8-0.8,0.8h-30.4c-0.5,0-0.8-0.4-0.8-0.8v-0.8
			C127.8,63,128.2,62.6,128.7,62.6z"/>
		<path class="st2" d="M424.3,20.1h-38.2c-0.6,0-1.1,0.4-1.1,1l0,0c0,0.6,0.5,1,1.1,1h38.2c0.6,0,1.1-0.4,1.1-1l0,0
			C425.4,20.6,424.9,20.1,424.3,20.1z"/>
		<path class="st2" d="M21.2,78.3h52.3c0.2,0,0.3,0.1,0.3,0.3v0.2c0,0.2-0.1,0.3-0.3,0.3H21.2c-0.2,0-0.3-0.1-0.3-0.3v-0.2
			C20.9,78.4,21.1,78.3,21.2,78.3z"/>
		<path class="st2" d="M162.8,79.4h-62.4c-0.2,0-0.4-0.2-0.4-0.4c0,0,0,0,0,0l0,0c0-0.2,0.2-0.4,0.4-0.4c0,0,0,0,0,0h62.3
			c0.2,0,0.4,0.2,0.4,0.4c0,0,0,0,0,0l0,0C163.2,79.2,163,79.4,162.8,79.4z"/>
		<path class="st2" d="M162.8,88.6h-62.4c-0.2,0-0.4-0.2-0.4-0.4c0,0,0,0,0,0l0,0c0-0.2,0.2-0.4,0.4-0.4c0,0,0,0,0,0h62.3
			c0.2,0,0.4,0.2,0.4,0.4c0,0,0,0,0,0l0,0C163.2,88.4,163,88.6,162.8,88.6z"/>
		<path class="st2" d="M162.8,129.2h-62.4c-0.2,0-0.4-0.2-0.4-0.4c0,0,0,0,0,0l0,0c0-0.2,0.2-0.4,0.4-0.4c0,0,0,0,0,0h62.3
			c0.2,0,0.4,0.2,0.4,0.4c0,0,0,0,0,0l0,0C163.2,129.1,163,129.2,162.8,129.2z"/>
		<path class="st2" d="M162.8,138.4h-62.4c-0.2,0-0.4-0.2-0.4-0.4c0,0,0,0,0,0l0,0c0-0.2,0.2-0.4,0.4-0.4c0,0,0,0,0,0h62.3
			c0.2,0,0.4,0.2,0.4,0.4c0,0,0,0,0,0l0,0C163.2,138.3,163,138.4,162.8,138.4z"/>
		<path class="st2" d="M151.3,107.8h-50.9c-0.2,0-0.4-0.2-0.4-0.4c0,0,0,0,0,0l0,0c0-0.2,0.2-0.4,0.4-0.4c0,0,0,0,0,0h50.9
			c0.2,0,0.4,0.2,0.4,0.4c0,0,0,0,0,0l0,0C151.7,107.6,151.5,107.8,151.3,107.8z"/>
		<path class="st2" d="M151.3,148.6h-50.9c-0.2,0-0.4-0.2-0.4-0.4c0,0,0,0,0,0l0,0c0-0.2,0.2-0.4,0.4-0.4c0,0,0,0,0,0h50.9
			c0.2,0,0.4,0.2,0.4,0.4c0,0,0,0,0,0l0,0C151.7,148.5,151.5,148.6,151.3,148.6z"/>
		<path class="st2" d="M152.7,259.9h-52.6c-0.2,0-0.3-0.2-0.3-0.4c0,0,0,0,0,0l0,0c0-0.2,0.1-0.3,0.3-0.4c0,0,0,0,0,0h52.6
			c0.2,0,0.3,0.2,0.3,0.4c0,0,0,0,0,0l0,0C153,259.7,152.8,259.8,152.7,259.9z"/>
		<path class="st2" d="M163.3,269.5h-63.2c-0.2,0-0.4-0.1-0.4-0.3c0,0,0,0,0,0l0,0c0-0.2,0.2-0.4,0.4-0.4c0,0,0,0,0,0h63.2
			c0.2,0,0.4,0.1,0.4,0.3c0,0,0,0,0,0l0,0C163.7,269.3,163.6,269.5,163.3,269.5C163.3,269.5,163.3,269.5,163.3,269.5z"/>
		<path class="st2" d="M68.9,279.5H22.2c-0.2,0-0.3-0.2-0.3-0.4l0,0c0-0.2,0.1-0.3,0.3-0.4h46.7c0.2,0,0.3,0.2,0.3,0.4l0,0
			C69.2,279.4,69.1,279.5,68.9,279.5z"/>
		<path class="st2" d="M61.6,289.1H21.9c-0.1,0-0.2-0.2-0.2-0.4l0,0c0-0.2,0.1-0.4,0.2-0.4h39.7c0.1,0,0.2,0.2,0.2,0.4l0,0
			C61.9,289,61.8,289.1,61.6,289.1z"/>
		<path class="st2" d="M70.9,260.3H21.7c-0.2,0-0.3-0.2-0.3-0.4c0,0,0,0,0,0l0,0c0-0.2,0.1-0.3,0.3-0.4c0,0,0,0,0,0h49.1
			c0.2,0,0.3,0.2,0.3,0.4c0,0,0,0,0,0l0,0C71.2,260.1,71,260.3,70.9,260.3C70.9,260.3,70.9,260.3,70.9,260.3z"/>
		<path class="st2" d="M21.7,269.3h13.4c0.2,0,0.3,0.1,0.3,0.3v0.2c0,0.2-0.1,0.3-0.3,0.3H21.7c-0.2,0-0.3-0.1-0.3-0.3v-0.2
			C21.4,269.4,21.6,269.3,21.7,269.3z"/>
		<path class="st2" d="M40.6,269.3h8.9c0.2,0,0.3,0.1,0.3,0.3v0.2c0,0.2-0.1,0.3-0.3,0.3h-8.9c-0.2,0-0.3-0.1-0.3-0.3v-0.2
			C40.3,269.4,40.4,269.3,40.6,269.3z"/>
		<path class="st2" d="M52,269.3h8.9c0.2,0,0.3,0.1,0.3,0.3v0.2c0,0.2-0.1,0.3-0.3,0.3H52c-0.2,0-0.3-0.1-0.3-0.3v-0.2
			C51.7,269.4,51.9,269.3,52,269.3z"/>
		<path class="st2" d="M67.8,270.1h-3.7c-0.2,0-0.4-0.1-0.5-0.4l0,0c0-0.2,0.2-0.4,0.5-0.4h3.7c0.2,0,0.4,0.1,0.4,0.4l0,0
			C68.2,270,68,270.1,67.8,270.1z"/>
		<path class="st2" d="M167.3,279.2h-66.5c-0.2,0-0.4-0.1-0.4-0.4l0,0c0-0.2,0.2-0.4,0.4-0.4h66.5c0.2,0,0.4,0.1,0.4,0.4l0,0
			C167.7,279.1,167.5,279.2,167.3,279.2C167.3,279.2,167.3,279.2,167.3,279.2z"/>
		<path class="st2" d="M100.5,288.2h11.3c0.2,0,0.3,0.1,0.3,0.3v0.2c0,0.2-0.1,0.3-0.3,0.3h-11.3c-0.2,0-0.3-0.1-0.3-0.3v-0.2
			C100.2,288.4,100.3,288.2,100.5,288.2z"/>
		<path class="st2" d="M116.5,288.2h7.4c0.2,0,0.3,0.1,0.3,0.3v0.2c0,0.2-0.1,0.3-0.3,0.3h-7.4c-0.2,0-0.3-0.1-0.3-0.3v-0.2
			C116.2,288.4,116.3,288.2,116.5,288.2z"/>
		<path class="st2" d="M126.2,288.2h7.4c0.2,0,0.3,0.1,0.3,0.3v0.2c0,0.2-0.1,0.3-0.3,0.3h-7.4c-0.2,0-0.3-0.1-0.3-0.3v-0.2
			C125.9,288.4,126,288.2,126.2,288.2z"/>
		<path class="st2" d="M139.5,289h-3.1c-0.2,0-0.4-0.2-0.4-0.4c0,0,0,0,0,0l0,0c0-0.2,0.2-0.4,0.4-0.4c0,0,0,0,0,0h3.1
			c0.2,0,0.4,0.2,0.4,0.4c0,0,0,0,0,0l0,0C139.8,288.8,139.7,289,139.5,289C139.5,289,139.5,289,139.5,289z"/>
		<path class="st2" d="M100.9,96.7h11.3c0.2,0,0.3,0.1,0.3,0.3v0.2c0,0.2-0.1,0.3-0.3,0.3h-11.3c-0.2,0-0.3-0.1-0.3-0.3V97
			C100.6,96.8,100.7,96.7,100.9,96.7z"/>
		<path class="st2" d="M116.9,96.7h7.4c0.2,0,0.3,0.1,0.3,0.3v0.2c0,0.2-0.1,0.3-0.3,0.3h-7.4c-0.2,0-0.3-0.1-0.3-0.3V97
			C116.6,96.8,116.7,96.7,116.9,96.7z"/>
		<path class="st2" d="M126.6,96.7h7.4c0.2,0,0.3,0.1,0.3,0.3v0.2c0,0.2-0.1,0.3-0.3,0.3h-7.4c-0.2,0-0.3-0.1-0.3-0.3V97
			C126.3,96.8,126.4,96.7,126.6,96.7z"/>
		<path class="st2" d="M139.9,97.5h-3.1c-0.2,0-0.4-0.2-0.4-0.4c0,0,0,0,0,0l0,0c0-0.2,0.2-0.4,0.4-0.4c0,0,0,0,0,0h3.1
			c0.2,0,0.4,0.2,0.4,0.4c0,0,0,0,0,0l0,0C140.2,97.3,140.1,97.5,139.9,97.5C139.9,97.5,139.9,97.5,139.9,97.5z"/>
		<path class="st2" d="M100.9,167.4h11.3c0.2,0,0.3,0.1,0.3,0.3v0.2c0,0.2-0.1,0.3-0.3,0.3h-11.3c-0.2,0-0.3-0.1-0.3-0.3v-0.2
			C100.6,167.5,100.7,167.4,100.9,167.4z"/>
		<path class="st2" d="M116.9,167.4h7.4c0.2,0,0.3,0.1,0.3,0.3v0.2c0,0.2-0.1,0.3-0.3,0.3h-7.4c-0.2,0-0.3-0.1-0.3-0.3v-0.2
			C116.6,167.5,116.7,167.4,116.9,167.4z"/>
		<path class="st2" d="M126.6,167.4h7.4c0.2,0,0.3,0.1,0.3,0.3v0.2c0,0.2-0.1,0.3-0.3,0.3h-7.4c-0.2,0-0.3-0.1-0.3-0.3v-0.2
			C126.3,167.5,126.4,167.4,126.6,167.4z"/>
		<path class="st2" d="M139.9,168.2h-3.1c-0.2,0-0.4-0.2-0.4-0.4c0,0,0,0,0,0l0,0c0-0.2,0.2-0.4,0.4-0.4c0,0,0,0,0,0h3.1
			c0.2,0,0.4,0.2,0.4,0.4c0,0,0,0,0,0l0,0C140.2,168,140.1,168.2,139.9,168.2C139.9,168.2,139.9,168.2,139.9,168.2z"/>
		<path class="st2" d="M140,158.8h-11.3c-0.2,0-0.3-0.1-0.3-0.3v-0.2c0-0.2,0.1-0.3,0.3-0.3H140c0.2,0,0.3,0.1,0.3,0.3v0.2
			C140.3,158.7,140.1,158.8,140,158.8z"/>
		<path class="st2" d="M123.9,158.8h-7.4c-0.2,0-0.3-0.1-0.3-0.3v-0.2c0-0.2,0.1-0.3,0.3-0.3h7.4c0.2,0,0.3,0.1,0.3,0.3v0.2
			C124.2,158.7,124.1,158.8,123.9,158.8z"/>
		<path class="st2" d="M114.3,158.8h-7.4c-0.2,0-0.3-0.1-0.3-0.3v-0.2c0-0.2,0.1-0.3,0.3-0.3h7.4c0.2,0,0.3,0.1,0.3,0.3v0.2
			C114.5,158.7,114.4,158.8,114.3,158.8z"/>
		<path class="st2" d="M100.9,158h3.1c0.2,0,0.4,0.2,0.4,0.4c0,0,0,0,0,0l0,0c0,0.2-0.2,0.4-0.4,0.4c0,0,0,0,0,0h-3.1
			c-0.2,0-0.4-0.2-0.4-0.4c0,0,0,0,0,0l0,0C100.6,158.2,100.7,158,100.9,158C100.9,158,100.9,158,100.9,158z"/>
		<path class="st2" d="M101.1,249.9h15.2c0.2,0,0.3,0.1,0.3,0.3v0.2c0,0.2-0.1,0.3-0.3,0.3h-15.2c-0.2,0-0.3-0.1-0.3-0.3v-0.2
			C100.8,250,100.9,249.9,101.1,249.9z"/>
		<path class="st2" d="M122.3,249.9h10.1c0.2,0,0.3,0.1,0.3,0.3v0.2c0,0.2-0.1,0.3-0.3,0.3h-10.1c-0.2,0-0.3-0.1-0.3-0.3v-0.2
			C122.1,250,122.2,249.9,122.3,249.9z"/>
		<path class="st2" d="M135.2,249.9h10.1c0.2,0,0.3,0.1,0.3,0.3v0.2c0,0.2-0.1,0.3-0.3,0.3h-10.1c-0.2,0-0.3-0.1-0.3-0.3v-0.2
			C134.9,250,135,249.9,135.2,249.9z"/>
		<path class="st2" d="M152.9,250.7h-4.1c-0.3,0-0.5-0.2-0.5-0.4l0,0c0-0.2,0.2-0.4,0.5-0.4h4.1c0.3,0,0.5,0.2,0.5,0.4l0,0
			C153.5,250.5,153.3,250.7,152.9,250.7z"/>
		<path class="st2" d="M140,241.3h-11.3c-0.2,0-0.3-0.1-0.3-0.3v-0.2c0-0.2,0.1-0.3,0.3-0.3H140c0.2,0,0.3,0.1,0.3,0.3v0.2
			C140.3,241.2,140.1,241.3,140,241.3z"/>
		<path class="st2" d="M123.9,241.3h-7.4c-0.2,0-0.3-0.1-0.3-0.3v-0.2c0-0.2,0.1-0.3,0.3-0.3h7.4c0.2,0,0.3,0.1,0.3,0.3v0.2
			C124.2,241.2,124.1,241.3,123.9,241.3z"/>
		<path class="st2" d="M114.3,241.3h-7.4c-0.2,0-0.3-0.1-0.3-0.3v-0.2c0-0.2,0.1-0.3,0.3-0.3h7.4c0.2,0,0.3,0.1,0.3,0.3v0.2
			C114.5,241.2,114.4,241.3,114.3,241.3z"/>
		<path class="st2" d="M100.9,240.5h3.1c0.2,0,0.4,0.2,0.4,0.4c0,0,0,0,0,0l0,0c0,0.2-0.2,0.4-0.4,0.4c0,0,0,0,0,0h-3.1
			c-0.2,0-0.4-0.2-0.4-0.4c0,0,0,0,0,0l0,0C100.6,240.7,100.7,240.5,100.9,240.5C100.9,240.5,100.9,240.5,100.9,240.5z"/>
		<path class="st2" d="M100.9,117.1h11.3c0.2,0,0.3,0.1,0.3,0.3v0.2c0,0.2-0.1,0.3-0.3,0.3h-11.3c-0.2,0-0.3-0.1-0.3-0.3v-0.2
			C100.6,117.3,100.7,117.1,100.9,117.1z"/>
		<path class="st2" d="M116.9,117.1h7.4c0.2,0,0.3,0.1,0.3,0.3v0.2c0,0.2-0.1,0.3-0.3,0.3h-7.4c-0.2,0-0.3-0.1-0.3-0.3v-0.2
			C116.6,117.3,116.7,117.1,116.9,117.1z"/>
		<path class="st2" d="M433.4,79.4H371c-0.2,0-0.4-0.2-0.4-0.4c0,0,0,0,0,0l0,0c0-0.2,0.2-0.4,0.4-0.4c0,0,0,0,0,0h62.4
			c0.2,0,0.4,0.2,0.4,0.4c0,0,0,0,0,0l0,0C433.8,79.2,433.6,79.4,433.4,79.4C433.4,79.4,433.4,79.4,433.4,79.4z"/>
		<path class="st2" d="M21.2,88h52.3c0.2,0,0.3,0.1,0.3,0.3v0.2c0,0.2-0.1,0.3-0.3,0.3H21.2c-0.2,0-0.3-0.1-0.3-0.3v-0.2
			C20.9,88.1,21.1,88,21.2,88z"/>
		<path class="st2" d="M21.2,97.8h30.5c0.2,0,0.3,0.1,0.3,0.3v0.3c0,0.2-0.1,0.3-0.3,0.3H21.2c-0.2,0-0.3-0.1-0.3-0.3v-0.3
			C20.9,97.9,21.1,97.8,21.2,97.8z"/>
		<path class="st2" d="M21.2,147.7h30.5c0.2,0,0.3,0.1,0.3,0.3v0.3c0,0.2-0.1,0.3-0.3,0.3H21.2c-0.2,0-0.3-0.1-0.3-0.3v-0.3
			C20.9,147.8,21.1,147.7,21.2,147.7z"/>
		<path class="st2" d="M21.2,107.4h38.9c0.2,0,0.3,0.1,0.3,0.3v0.2c0,0.2-0.1,0.3-0.3,0.3H21.2c-0.2,0-0.3-0.1-0.3-0.3v-0.2
			C20.9,107.5,21.1,107.4,21.2,107.4z"/>
		<path class="st2" d="M21.2,240.4h46c0.2,0,0.3,0.1,0.3,0.3v0.2c0,0.2-0.1,0.3-0.3,0.3h-46c-0.2,0-0.3-0.1-0.3-0.3v-0.2
			C20.9,240.5,21.1,240.4,21.2,240.4z"/>
		<path class="st2" d="M21.2,250.8h46c0.2,0,0.3,0.1,0.3,0.3v0.2c0,0.2-0.1,0.3-0.3,0.3h-46c-0.2,0-0.3-0.1-0.3-0.3v-0.2
			C20.9,251,21.1,250.8,21.2,250.8z"/>
		<path class="st2" d="M21.2,117.7h52.3c0.2,0,0.3,0.1,0.3,0.3v0.2c0,0.2-0.1,0.3-0.3,0.3H21.2c-0.2,0-0.3-0.1-0.3-0.3V118
			C20.9,117.8,21.1,117.7,21.2,117.7z"/>
		<path class="st2" d="M21.2,158.6h52.3c0.2,0,0.3,0.1,0.3,0.3v0.2c0,0.2-0.1,0.3-0.3,0.3H21.2c-0.2,0-0.3-0.1-0.3-0.3v-0.2
			C20.9,158.7,21.1,158.6,21.2,158.6z"/>
		<path class="st2" d="M21.2,168.4h52.3c0.2,0,0.3,0.1,0.3,0.3v0.2c0,0.2-0.1,0.3-0.3,0.3H21.2c-0.2,0-0.3-0.1-0.3-0.3v-0.2
			C20.9,168.5,21.1,168.4,21.2,168.4z"/>
		<path class="st2" d="M21.2,127.6h20c0.2,0,0.3,0.1,0.3,0.3v0.3c0,0.2-0.1,0.3-0.3,0.3h-20c-0.2,0-0.3-0.1-0.3-0.3v-0.3
			C20.9,127.8,21.1,127.6,21.2,127.6z"/>
		<path class="st2" d="M35.5,138.2H21.3c-0.2,0-0.4-0.2-0.4-0.4c0,0,0,0,0,0l0,0c0-0.2,0.2-0.4,0.4-0.4c0,0,0,0,0,0h14.2
			c0.2,0,0.4,0.2,0.4,0.4c0,0,0,0,0,0l0,0C35.9,138.1,35.7,138.2,35.5,138.2C35.5,138.2,35.5,138.2,35.5,138.2z"/>
		<path class="st2" d="M109.8,209.4h30.5c0.2,0,0.3,0.1,0.3,0.3v0.3c0,0.2-0.1,0.3-0.3,0.3h-30.5c-0.2,0-0.3-0.1-0.3-0.3v-0.3
			C109.5,209.5,109.7,209.4,109.8,209.4z"/>
		<path class="st2" d="M109.8,220.3h52.3c0.2,0,0.3,0.1,0.3,0.3v0.2c0,0.2-0.1,0.3-0.3,0.3h-52.3c-0.2,0-0.3-0.1-0.3-0.3v-0.2
			C109.5,220.4,109.7,220.3,109.8,220.3z"/>
		<path class="st2" d="M109.8,230.1h52.3c0.2,0,0.3,0.1,0.3,0.3v0.2c0,0.2-0.1,0.3-0.3,0.3h-52.3c-0.2,0-0.3-0.1-0.3-0.3v-0.2
			C109.5,230.2,109.7,230.1,109.8,230.1z"/>
		<path class="st2" d="M124.1,199.9h-14.2c-0.2,0-0.4-0.2-0.4-0.4c0,0,0,0,0,0l0,0c0-0.2,0.2-0.4,0.4-0.4c0,0,0,0,0,0h14.2
			c0.2,0,0.4,0.2,0.4,0.4c0,0,0,0,0,0l0,0C124.5,199.8,124.4,199.9,124.1,199.9C124.1,199.9,124.1,199.9,124.1,199.9z"/>
		<path class="st2" d="M21.2,230.4h20c0.2,0,0.3,0.1,0.3,0.3v0.3c0,0.2-0.1,0.3-0.3,0.3h-20c-0.2,0-0.3-0.1-0.3-0.3v-0.3
			C20.9,230.6,21.1,230.4,21.2,230.4z"/>
		<ellipse class="st2" cx="11.8" cy="78.8" rx="1.7" ry="1.8"/>
		<ellipse class="st2" cx="11.8" cy="88.1" rx="1.7" ry="1.8"/>
		<ellipse class="st2" cx="11.8" cy="98.7" rx="1.7" ry="1.8"/>
		<ellipse class="st2" cx="11.8" cy="148.3" rx="1.7" ry="1.8"/>
		<ellipse class="st2" cx="11.8" cy="107.8" rx="1.7" ry="1.8"/>
		<ellipse class="st2" cx="11.8" cy="241.3" rx="1.7" ry="1.8"/>
		<ellipse class="st2" cx="11.8" cy="251.6" rx="1.7" ry="1.8"/>
		<ellipse class="st2" cx="11.8" cy="117.4" rx="1.7" ry="1.8"/>
		
			<ellipse transform="matrix(0.9996 -2.652589e-02 2.652589e-02 0.9996 -4.1972 0.3671)" class="st2" cx="11.7" cy="158.4" rx="1.7" ry="1.9"/>
		
			<ellipse transform="matrix(0.9996 -2.652589e-02 2.652589e-02 0.9996 -4.4864 0.3754)" class="st2" cx="11.9" cy="169.3" rx="1.7" ry="1.9"/>
		<ellipse class="st2" cx="11.8" cy="128.1" rx="1.7" ry="1.8"/>
		<ellipse class="st2" cx="11.8" cy="138.7" rx="1.7" ry="1.8"/>
		<ellipse class="st2" cx="11.8" cy="231.2" rx="1.7" ry="1.8"/>
		<ellipse class="st2" cx="101.7" cy="210.5" rx="1.7" ry="1.8"/>
		<ellipse class="st2" cx="101.7" cy="220.7" rx="1.7" ry="1.8"/>
		<ellipse class="st2" cx="101.7" cy="231.1" rx="1.7" ry="1.8"/>
		<ellipse class="st2" cx="101.7" cy="200.4" rx="1.7" ry="1.8"/>
		
			<image style="overflow:visible;opacity:5.000000e-02;enable-background:new    ;" width="332" height="193" xlink:href="3F1B2137.html"  transform="matrix(1 0 0 1 136 68)">
		</image>
		<path class="st3" d="M455.2,254.1l-313.1-0.6c-1.7-0.1-3.1-1.5-3-3.2l0.4-172.7c0-1.7,1.3-3.2,3.1-3.2l313.1,0.6
			c1.7,0.1,3.1,1.5,3,3.2l-0.4,172.7C458.3,252.6,457,254.1,455.2,254.1z"/>
		<path class="st2" d="M171.1,116.9L171.1,116.9l-14.8-0.1c-0.3,0-0.6-0.3-0.6-0.6c0-0.3,0.3-0.6,0.6-0.6l0,0l14.8,0.1
			c0.3,0,0.6,0.3,0.6,0.6C171.6,116.7,171.4,116.9,171.1,116.9z"/>
		<path class="st2" d="M171.1,100L171.1,100l-14.8-0.1c-0.3,0-0.6-0.3-0.6-0.6c0-0.3,0.3-0.6,0.6-0.6l0,0l14.8,0.1
			c0.3,0,0.6,0.3,0.6,0.6C171.6,99.7,171.4,100,171.1,100z"/>
		<path class="st2" d="M171.1,133.5L171.1,133.5l-14.8-0.1c-0.3,0-0.6-0.3-0.6-0.6c0-0.3,0.3-0.6,0.6-0.6l0,0l14.8,0.1
			c0.3,0,0.6,0.3,0.6,0.6C171.6,133.2,171.4,133.5,171.1,133.5z"/>
		<path class="st2" d="M171.1,149.2L171.1,149.2l-14.8-0.1c-0.3,0-0.6-0.3-0.6-0.6c0-0.3,0.3-0.6,0.6-0.6l0,0l14.8,0.1
			c0.3,0,0.6,0.3,0.6,0.6C171.6,148.9,171.4,149.2,171.1,149.2z"/>
		<path class="st2" d="M171.1,166.1L171.1,166.1l-14.8-0.1c-0.3,0-0.6-0.3-0.6-0.6c0-0.3,0.3-0.6,0.6-0.6l0,0l14.8,0.1
			c0.3,0,0.6,0.3,0.6,0.6C171.6,165.8,171.4,166.1,171.1,166.1z"/>
		<path class="st2" d="M171.1,183L171.1,183l-14.8-0.1c-0.3,0-0.6-0.3-0.6-0.6c0-0.3,0.3-0.6,0.6-0.6l0,0l14.8,0.1
			c0.3,0,0.6,0.3,0.6,0.6C171.6,182.7,171.4,183,171.1,183z"/>
		<path class="st2" d="M171.1,199.1L171.1,199.1l-14.8-0.1c-0.3,0-0.6-0.3-0.6-0.6c0-0.3,0.3-0.6,0.6-0.6l0,0l14.8,0.1
			c0.3,0,0.6,0.3,0.6,0.6C171.6,198.8,171.4,199.1,171.1,199.1z"/>
		<path class="st2" d="M171.1,213.9L171.1,213.9l-14.8-0.1c-0.3,0-0.6-0.3-0.6-0.6c0-0.3,0.3-0.6,0.6-0.6l0,0l14.8,0.1
			c0.3,0,0.6,0.3,0.6,0.6C171.6,213.6,171.4,213.9,171.1,213.9z"/>
		<path class="st2" d="M171.1,230.8L171.1,230.8l-14.8-0.1c-0.3,0-0.6-0.3-0.6-0.6c0-0.3,0.3-0.6,0.6-0.6l0,0l14.8,0.1
			c0.3,0,0.6,0.3,0.6,0.6C171.6,230.5,171.4,230.8,171.1,230.8z"/>
		<path class="st2" d="M171.1,246.9L171.1,246.9l-14.8-0.1c-0.3,0-0.6-0.3-0.6-0.6c0-0.3,0.3-0.6,0.6-0.6l0,0l14.8,0.1
			c0.3,0,0.6,0.3,0.6,0.6C171.6,246.6,171.4,246.9,171.1,246.9z"/>
		<path class="st4" d="M185.3,277.7c0,0,14.4-76.7,33.6-76.7s10.1,46.4,29.9,46.4c19.6,0,8.5-124.9,38.1-125
			c21.2,0,14.7,101.3,33.7,101.2c21.3,0,15.1-34.5,33.9-40.8c10.8-3.7,16.5,18,31.9,16.8s7.7-94.9,32-94.9
			c24.5,0,27.7,172.9,27.7,172.9L185.3,277.7z"/>
		<circle class="st5" cx="285.9" cy="122.3" r="3.1"/>
		<circle class="st5" cx="354" cy="183" r="3.1"/>
		<circle class="st5" cx="417.7" cy="106" r="3"/>
		<path class="st2" d="M185.6,294.4c-0.7,0-1.2-0.5-1.2-1.2L184,168.5c0-0.7,0.5-1.2,1.2-1.2c0,0,0,0,0,0l0,0c0.7,0,1.2,0.5,1.2,1.2
			l0.4,124.7C186.7,293.8,186.2,294.4,185.6,294.4C185.6,294.4,185.6,294.4,185.6,294.4z"/>
		<path class="st2" d="M204.7,293.8c-0.7,0-1.2-0.5-1.2-1.2L203,140.1c0-0.7,0.5-1.2,1.2-1.2c0,0,0,0,0,0l0,0c0.7,0,1.2,0.5,1.2,1.2
			l0.5,152.5C205.9,293.3,205.3,293.8,204.7,293.8C204.7,293.8,204.7,293.8,204.7,293.8z"/>
		<path class="st2" d="M223.3,294c-0.7,0-1.2-0.5-1.2-1.2l-0.6-195.6c0-0.7,0.5-1.2,1.2-1.2c0,0,0,0,0,0l0,0c0.7,0,1.2,0.5,1.2,1.2
			l0.6,195.6C224.5,293.5,223.9,294,223.3,294C223.3,294,223.3,294,223.3,294z"/>
		<path class="st2" d="M242.1,294.1c-0.7,0-1.2-0.5-1.2-1.2l-0.6-182.5c0-0.7,0.5-1.2,1.2-1.2c0,0,0,0,0,0l0,0
			c0.7,0,1.2,0.5,1.2,1.2l0.6,182.5C243.3,293.6,242.8,294.1,242.1,294.1C242.1,294.1,242.1,294.1,242.1,294.1z"/>
		<path class="st2" d="M260.6,294.2c-0.7,0-1.2-0.5-1.2-1.2l-0.5-173.4c0-0.7,0.5-1.2,1.2-1.2c0,0,0,0,0,0l0,0
			c0.7,0,1.2,0.5,1.2,1.2l0.5,173.4C261.8,293.7,261.3,294.2,260.6,294.2C260.6,294.2,260.6,294.2,260.6,294.2L260.6,294.2z"/>
		<path class="st2" d="M278.9,294.4c-0.7,0-1.2-0.5-1.2-1.2l-0.5-150.7c0-0.7,0.5-1.2,1.2-1.2c0,0,0,0,0,0l0,0
			c0.7,0,1.2,0.5,1.2,1.2l0.5,150.7C280.1,293.8,279.5,294.4,278.9,294.4C278.9,294.4,278.9,294.4,278.9,294.4z"/>
		<path class="st2" d="M297.1,294.2c-0.6,0-1.2-0.5-1.2-1.2l-0.5-166.6c0-0.7,0.5-1.2,1.2-1.2c0,0,0,0,0,0c0.7,0,1.2,0.5,1.2,1.2
			l0.5,166.7C298.3,293.7,297.8,294.2,297.1,294.2C297.1,294.2,297.1,294.2,297.1,294.2L297.1,294.2z"/>
		<path class="st2" d="M316.1,294.4c-0.7,0-1.2-0.5-1.2-1.2l-0.4-139.2c0-0.7,0.5-1.2,1.2-1.2c0,0,0,0,0,0l0,0
			c0.7,0,1.2,0.5,1.2,1.2l0.4,139.2C317.2,293.9,316.7,294.4,316.1,294.4C316.1,294.4,316.1,294.4,316.1,294.4z"/>
		<path class="st2" d="M334.3,294.4c-0.7,0-1.2-0.5-1.2-1.2l-0.4-132c0-0.7,0.5-1.2,1.2-1.2c0,0,0,0,0,0l0,0c0.7,0,1.2,0.5,1.2,1.2
			l0.4,132C335.5,293.9,335,294.4,334.3,294.4C334.3,294.4,334.3,294.4,334.3,294.4z"/>
		<path class="st2" d="M352.9,294.4L352.9,294.4c-0.7,0-1.2-0.5-1.2-1.2v-77.8c0-0.7,0.5-1.2,1.2-1.2l0,0c0.7,0,1.2,0.5,1.2,1.2
			v77.8C354.1,293.9,353.6,294.4,352.9,294.4z"/>
		<path class="st2" d="M371.5,294.7c-0.7,0-1.2-0.5-1.2-1.2l-0.3-93c0-0.7,0.5-1.2,1.2-1.2c0,0,0,0,0,0l0,0c0.7,0,1.2,0.5,1.2,1.2
			l0.3,93C372.7,294.1,372.2,294.7,371.5,294.7C371.5,294.7,371.5,294.7,371.5,294.7z"/>
		<path class="st2" d="M390.4,293c-0.7,0-1.2-0.5-1.2-1.2l-0.3-108.9c0-0.7,0.5-1.2,1.2-1.2c0,0,0,0,0,0l0,0c0.7,0,1.2,0.5,1.2,1.2
			l0.3,108.9C391.6,292.5,391.1,293,390.4,293C390.5,293,390.5,293,390.4,293L390.4,293z"/>
		<path class="st2" d="M408.7,294.1c-0.7,0-1.2-0.5-1.2-1.2l-0.3-95.3c0-0.7,0.5-1.2,1.2-1.2c0,0,0,0,0,0l0,0c0.7,0,1.2,0.5,1.2,1.2
			l0.3,95.3C409.9,293.6,409.3,294.1,408.7,294.1C408.7,294.1,408.7,294.1,408.7,294.1z"/>
		<path class="st2" d="M427.6,294.9c-0.7,0-1.2-0.5-1.2-1.2l-0.2-52.5c0-0.7,0.5-1.2,1.2-1.2c0,0,0,0,0,0l0,0c0.7,0,1.2,0.5,1.2,1.2
			l0.2,52.5C428.8,294.4,428.3,294.9,427.6,294.9C427.6,294.9,427.6,294.9,427.6,294.9z"/>
		<path class="st6" d="M149.9,305.6l0.1-0.7c0.3-3.1,8.5-75.8,28-76.7c10-0.5,12.4,10.2,14.7,20.6c2.4,10.6,4.6,20.6,14.1,20.2
			c8.3-0.4,11.1-22.6,14.1-46.1c3.8-29.7,8-63.4,24.9-64.3c11.4-0.6,15.1,10.5,18.7,21.3c3.3,9.9,6.5,19.2,15.2,18.8
			c11.1-0.6,15.1-5.8,19-10.8c3.5-4.5,6.9-8.9,14.9-9.3c8.6-0.5,12.9,5.8,17.1,11.8c4,5.8,7.8,11.3,15.1,10.3
			c6.3-0.8,9.8-18.2,13.5-36.6c5-25,10.7-53.4,25.5-55.5c3.6-0.5,7.3,0.8,9.9,3.3c28.3,25.5,22.6,186.1,22.3,192.9v0.6h-0.6
			L149.9,305.6z M178.7,229.4h-0.6c-17.6,0.9-26,67.6-26.9,75l264.4-0.3c0.2-5.2,1.4-44.4-0.5-86c-1.8-40.9-7-92.3-21.5-105.4
			c-2.3-2.3-5.6-3.4-8.9-3c-13.9,2-19.5,29.9-24.5,54.5c-4,19.7-7.4,36.7-14.5,37.6c-8,1-12.2-5-16.2-10.8s-8.1-11.7-16-11.3
			c-7.4,0.4-10.6,4.5-14,8.8c-3.9,5-8.3,10.7-19.9,11.3c-9.7,0.5-13.1-9.7-16.4-19.6c-3.5-10.3-7.1-21-17.5-20.5
			c-15.8,0.8-20,34-23.7,63.3c-3.2,25-5.9,46.7-15.2,47.2c-10.6,0.5-13-10.5-15.3-21.1C189.4,239,187.3,229.4,178.7,229.4z"/>
		<path class="st7" d="M178.9,305.2c-0.6,0.2-1.1,0.1-1.1-0.2l-0.2-73.1c0-0.3,0.5-0.8,1.1-1s1.1-0.1,1.1,0.2l0.2,73.1
			C179.9,304.6,179.5,305,178.9,305.2z"/>
		<path class="st7" d="M248.8,305.4c-0.6,0.2-1.1,0.1-1.1-0.2l-0.5-142.3c0-0.4,0.5-0.8,1.1-1s1.1-0.1,1.1,0.2l0.5,142.3
			C249.9,304.7,249.4,305.1,248.8,305.4z"/>
		<path class="st7" d="M306.4,305.1c-0.6,0.2-1.1,0.1-1.1-0.2l-0.4-123.6c0-0.4,0.5-0.8,1.1-1s1.1-0.1,1.1,0.2l0.4,123.6
			C307.5,304.4,307,304.9,306.4,305.1z"/>
		<path class="st7" d="M384.2,304.6c-0.6,0.3-1.1,0.1-1.1-0.2l-0.6-192.9c0-0.4,0.5-0.9,1.1-1.1s1.1-0.1,1.1,0.2l0.6,192.9
			C385.3,303.9,384.8,304.4,384.2,304.6z"/>
		
			<ellipse transform="matrix(1 -1.221729e-03 1.221729e-03 1 -0.2808 0.2186)" class="st2" cx="178.8" cy="229.9" rx="3.6" ry="3.5"/>
		<ellipse transform="matrix(1 -1.221729e-03 1.221729e-03 1 -0.1951 0.3031)" class="st2" cx="248" cy="159.8" rx="3.7" ry="3.7"/>
		
			<ellipse transform="matrix(1 -1.221729e-03 1.221729e-03 1 -0.2212 0.3741)" class="st2" cx="306.1" cy="181.2" rx="3.5" ry="3.5"/>
		
			<ellipse transform="matrix(1 -1.221729e-03 1.221729e-03 1 -0.1337 0.4686)" class="st2" cx="383.5" cy="109.7" rx="3.9" ry="3.9"/>
		
			<image style="overflow:visible;opacity:5.000000e-02;enable-background:new    ;" width="84" height="56" xlink:href="3F1B2134.html"  transform="matrix(1 0 0 1 417 98)">
		</image>
		<path class="st0" d="M422.8,104.9h66.7c1.4,0,2.5,1.1,2.5,2.5v38.1c0,1.4-1.1,2.5-2.5,2.5h-66.7c-1.4,0-2.5-1.1-2.5-2.5v-38.1
			C420.3,106,421.4,104.9,422.8,104.9z"/>
		<path class="st2" d="M478.2,119.9L478.2,119.9l-41.4-0.1c-0.3,0-0.6-0.3-0.6-0.6c0-0.3,0.3-0.6,0.6-0.6l0,0l41.4,0.1
			c0.3,0,0.6,0.3,0.6,0.6C478.8,119.7,478.5,119.9,478.2,119.9z"/>
		<path class="st2" d="M471.8,135L471.8,135l-35.4-0.1c-0.3,0-0.6-0.3-0.6-0.6c0-0.3,0.3-0.6,0.6-0.6l0,0l35.4,0.1
			c0.3,0,0.6,0.3,0.6,0.6C472.4,134.7,472.1,135,471.8,135z"/>
		
			<image style="overflow:visible;opacity:5.000000e-02;enable-background:new    ;" width="114" height="108" xlink:href="1EEBCD29.html"  transform="matrix(1 0 0 1 53 123)">
		</image>
		<path class="st3" d="M58.7,129.9h96.5c1.4,0,2.5,1.1,2.5,2.5v89.1c0,1.4-1.1,2.5-2.5,2.5H58.7c-1.4,0-2.5-1.1-2.5-2.5v-89.1
			C56.2,131,57.3,129.9,58.7,129.9z"/>
		<path class="st2" d="M96.4,172l18.7,0c0.2,0,0.4,0.2,0.4,0.4l0,1.3c0,0.2-0.2,0.4-0.4,0.4l-18.7,0c-0.2,0-0.4-0.2-0.4-0.4l0-1.3
			C96,172.1,96.2,172,96.4,172z"/>
		<path class="st2" d="M94.1,181l23.7,0c0.1,0,0.2,0.1,0.2,0.2l0,0.6c0,0.1-0.1,0.2-0.2,0.2l-23.7,0c-0.1,0-0.2-0.1-0.2-0.2l0-0.6
			C93.9,181.1,94,181,94.1,181z"/>
		<path class="st2" d="M99.5,185.9l12.8,0c0.1,0,0.2,0.1,0.2,0.2l0,0.6c0,0.1-0.1,0.2-0.2,0.2l-12.8,0c-0.1,0-0.2-0.1-0.2-0.2l0-0.6
			C99.3,186,99.4,185.9,99.5,185.9z"/>
		<path class="st2" d="M133.2,206.1c15.1-15,15.1-39.4,0.1-54.5c-15-15.1-39.4-15.1-54.5-0.1c-15.1,15-15.1,39.4-0.1,54.5
			c0,0,0,0,0,0C93.7,221,118.1,221.1,133.2,206.1z M91.1,163.8c8.3-8.2,21.6-8.2,29.8,0.1c8.2,8.3,8.2,21.6-0.1,29.8
			c-8.2,8.2-21.6,8.2-29.8-0.1C82.8,185.4,82.9,172,91.1,163.8C91.1,163.8,91.1,163.8,91.1,163.8z"/>
		<path class="st1" d="M120.9,193.7c-4,4-9.3,6.2-14.9,6.1l-1.3,17.4c20.1,0.7,37.3-14.1,39.7-34l-17.2-3.1
			C126.7,185.3,124.5,190.1,120.9,193.7z"/>
		<path class="st5" d="M87.9,212.8l0.2,0.1L87.9,212.8z"/>
		<path class="st5" d="M89.7,213.7L89.7,213.7L89.7,213.7z"/>
		<path class="st5" d="M92,163c-0.3,0.3-0.6,0.5-0.9,0.9c3.7-3.7,8.6-5.9,13.8-6.2l-2.9-17.3c-8,0.8-15.6,4.1-21.6,9.5L92,163z"/>
	</g>
</g>
</svg>
