<svg id="Слой_1" data-name="Слой 1" xmlns="http://www.w3.org/2000/svg" viewBox="0 0 91.67 78.18"><defs><style>.cls-1{fill:#012c41;}</style></defs><title>ManualScanner</title><path class="cls-1" d="M50.88,20.48a8.49,8.49,0,0,0-8.5,8.5,8.84,8.84,0,0,0,.7,3.3H28.68a.68.68,0,0,0-.7.7v14.4a8.84,8.84,0,0,0-3.3-.7,8.5,8.5,0,1,0,0,17A8.84,8.84,0,0,0,28,63v14.5a.68.68,0,0,0,.7.7h44.4a.68.68,0,0,0,.7-.7V61.08a.68.68,0,0,0-.7-.7.52.52,0,0,0-.4.2,7.49,7.49,0,0,1-4.8,1.8,7.2,7.2,0,0,1,0-14.4,7.49,7.49,0,0,1,4.8,1.8.63.63,0,0,0,.9-.1.76.76,0,0,0,.2-.4V32.88a.68.68,0,0,0-.7-.7H58.57a8.84,8.84,0,0,0,.7-3.3A8.32,8.32,0,0,0,50.88,20.48Zm0,1.3a7.17,7.17,0,0,1,7.2,7.2,7.49,7.49,0,0,1-1,3.6.65.65,0,0,0,.2.9.37.37,0,0,0,.3.1h14.8v14.6a8.15,8.15,0,0,0-4.6-1.5,8.5,8.5,0,1,0,0,17,8.4,8.4,0,0,0,4.6-1.5v14.6H29.27V62a.67.67,0,0,0-.6-.7.37.37,0,0,0-.3.1,7.49,7.49,0,0,1-3.6,1,7.2,7.2,0,0,1,0-14.4,6.53,6.53,0,0,1,3.6,1,.65.65,0,0,0,.9-.2.37.37,0,0,0,.1-.3V33.68h14.8a.67.67,0,0,0,.7-.6.37.37,0,0,0-.1-.3,7.49,7.49,0,0,1-1-3.6,7.08,7.08,0,0,1,7.1-7.4Z"/><path class="cls-1" d="M37.77,50h1.3v3h.1a1.8,1.8,0,0,1,.9-.6,4.14,4.14,0,0,1,1.6-.2,2.84,2.84,0,0,1,1.3.4,3,3,0,0,1,1.3,2.3v.5a1.76,1.76,0,0,1,.9-.8c.2-.1.3-.1.5-.2a5.85,5.85,0,0,1,1.3-.2h1.7c.1,0,.1,0,.1-.1a1,1,0,0,0-.4-1,2.33,2.33,0,0,0-2-.2.63.63,0,0,0-.5.6.1.1,0,0,1-.1.1h-1.1c-.1,0-.1-.1-.1-.2s.1-.4.2-.5a1.64,1.64,0,0,1,1.2-.8,5,5,0,0,1,2.1-.1,2.45,2.45,0,0,1,1.2.4c.1.1.2.2.3.2h0c-.1-.2-.2-.3-.2-.5h1.3c.1,0,.2,0,.3.2.6,1.3,1.3,2.6,1.9,3.9a.1.1,0,0,0,.1.1,5.94,5.94,0,0,1,.4-.8c.5-1.1,1.1-2.1,1.6-3.2,0-.1.1-.1.2-.1h1.2a.1.1,0,0,1-.1.1c-.6,1.3-1.3,2.5-1.9,3.8l-1.8,3.6h-1.4c0-.1,0-.1.1-.2.3-.6.6-1.2.9-1.7a.19.19,0,0,0,0-.3l-2.1-3.9v3.9c0,.1,0,.1-.1.1H49c-.1,0-.1,0-.1-.1v-.6c-.2.1-.3.3-.4.4a3.61,3.61,0,0,1-3.2.3,1.65,1.65,0,0,1-1-1,1.27,1.27,0,0,1-.1-.6v.1a2.54,2.54,0,0,1-1.3,1.4,3.4,3.4,0,0,1-2,.3,2.47,2.47,0,0,1-1.6-.8h0v.6c0,.1,0,.1-.1.1h-1c-.1,0-.1,0-.1-.1v-2.1c0-.1,0-.2-.2-.2h-4.6c-.2,0-.2,0-.2.2a1.25,1.25,0,0,0,.6,1.1,2.23,2.23,0,0,0,1.8.4,1.19,1.19,0,0,0,1-.8c0-.1.1-.1.2-.1h1c.1,0,.2,0,.1.2s-.1.2-.1.3a2,2,0,0,1-1.1,1.1,4.42,4.42,0,0,1-3,.1,2.35,2.35,0,0,1-1.8-1.9c0-.2-.1-.3-.1-.5v-.7a.6.6,0,0,1,.1-.4,2.49,2.49,0,0,1,1.7-2,4.16,4.16,0,0,1,2.7,0,2.36,2.36,0,0,1,1.4,1.2,6.89,6.89,0,0,1,.3.8v-.1C37.77,52.84,37.77,51.44,37.77,50Zm3.2,7.1a1.75,1.75,0,0,0,1.7-1.1,3,3,0,0,0,.2-1.3,2.22,2.22,0,0,0-.5-1.1,1.74,1.74,0,0,0-1.2-.6,1.64,1.64,0,0,0-1.6.7,2.09,2.09,0,0,0-.4,1.7A1.71,1.71,0,0,0,41,57.14Zm7.1-1.9h0a7.57,7.57,0,0,0-1.5.1,1.88,1.88,0,0,0-.8.2.66.66,0,0,0-.4.5.88.88,0,0,0,.5,1,1.8,1.8,0,0,0,1,.2,1.71,1.71,0,0,0,1.7-1.9.1.1,0,0,0-.1-.1Zm-13.4-.6h1.6c.1,0,.2,0,.1-.2a1.85,1.85,0,0,0-.7-1.2,2,2,0,0,0-2,0,1.55,1.55,0,0,0-.8,1.1c0,.2,0,.2.2.2A9.15,9.15,0,0,0,34.68,54.64Z"/><path class="cls-1" d="M88.07,52v1.2a2.26,2.26,0,0,0,.5,1.5c.3.4.3.4-.1.7s-.6.5-.9.8a.48.48,0,0,1-.7,0,2.65,2.65,0,0,1-.5-.6c-.2-.2-.3-.2-.5,0a3,3,0,0,1-2.7.8,2.2,2.2,0,0,1-2-2.6,2.46,2.46,0,0,1,2.1-2.4,15.17,15.17,0,0,1,2.1-.3c.4-.1.4,0,.4-.5s0-.8-.4-1a1.31,1.31,0,0,0-1.8.5c-.2.5-.2.5-.8.5-.3,0-.6-.1-1-.1s-.5-.2-.4-.6a2.48,2.48,0,0,1,1.2-1.6,4.67,4.67,0,0,1,4-.2,2,2,0,0,1,1.3,1.9,6.48,6.48,0,0,1,.2,2Zm-2.2.9h0a.31.31,0,0,1-.1-.2c0-.4,0-.4-.4-.4a5.27,5.27,0,0,0-1.2.3,1.35,1.35,0,0,0-.6,1.8.67.67,0,0,0,.7.4,1.21,1.21,0,0,0,1.2-.8A3.58,3.58,0,0,0,85.88,52.94Z"/><path class="cls-1" d="M84.67,59.24a9.94,9.94,0,0,1-6.6-2.4c-.1-.1-.2-.3-.3-.4a.9.9,0,0,1,.5.1,14.43,14.43,0,0,0,7.3,1.6,15.79,15.79,0,0,0,4.2-.9c.2-.1.4-.1.5-.2a.35.35,0,0,1,.2.1s0,.2-.1.2-.3.2-.4.3A8.5,8.5,0,0,1,84.67,59.24Z"/><path class="cls-1" d="M90.07,56.74a1.7,1.7,0,0,0-.7.1c-.1,0-.1,0-.2-.1a.35.35,0,0,1,.1-.2,2.44,2.44,0,0,1,2.2-.2c.1,0,.2.2.2.3a2.56,2.56,0,0,1-.8,1.9.31.31,0,0,1-.2.1v-.3l.3-.9c.1-.5,0-.7-.5-.7Z"/><path class="cls-1" d="M50.48,5c-.2,0-.4,0-.5-.2s-.1-.2-.2-.2v-.4c0-.6-.1-1.2-.1-1.8a9.85,9.85,0,0,0-.2-1.7.55.55,0,0,1,.4-.6,1.41,1.41,0,0,1,1.4.1.45.45,0,0,1,.2.6,2.2,2.2,0,0,1-.1.8c0,.4-.1.9-.1,1.3s-.1.8-.1,1.1v.5c0,.2-.2.3-.3.4A.76.76,0,0,1,50.48,5Z"/><path class="cls-1" d="M57.27,4.44c0,.1-.1.3-.1.4s-.1.1-.2.2a14.17,14.17,0,0,1-1.8.8c-.3.1-.6.3-.9.4a3,3,0,0,0-.8.4.45.45,0,0,1-.5,0,1,1,0,0,1-.4-.7c0-.2.1-.3.2-.5.3-.2.5-.4.8-.6l2.1-1.5c.5-.3.8-.3,1.2.1A4.18,4.18,0,0,1,57.27,4.44Z"/><path class="cls-1" d="M44.77,3.24a.37.37,0,0,1,.3.1c.9.6,1.7,1.2,2.6,1.8a1,1,0,0,1,.5.4c.2.2.3.3.2.6a1,1,0,0,1-.4.5.45.45,0,0,1-.5,0,4.88,4.88,0,0,0-.7-.3c-.9-.4-1.7-.8-2.6-1.2-.1,0-.1-.1-.2-.1s-.2-.2-.3-.3a1.27,1.27,0,0,1,.8-1.4C44.68,3.24,44.68,3.24,44.77,3.24Z"/><path class="cls-1" d="M43.77,10.64a.55.55,0,0,1,.4-.6l2.7-1.2a2.19,2.19,0,0,0,.5-.3.59.59,0,0,1,.9.3.6.6,0,0,1,.1.4c0,.2,0,.3-.2.4l-3,2.1c-.4.3-.7.3-1-.1A1.53,1.53,0,0,1,43.77,10.64Z"/><path class="cls-1" d="M57.18,10.64a1.52,1.52,0,0,1-.7,1.2.64.64,0,0,1-.6,0l-3.1-2.2c-.2-.1-.2-.3-.2-.5l.3-.6a.66.66,0,0,1,.6-.1c.3.2.7.3,1,.5.8.4,1.6.7,2.4,1.1a1.38,1.38,0,0,1,.4.3A.37.37,0,0,0,57.18,10.64Z"/><path class="cls-1" d="M50.48,15.14a1.45,1.45,0,0,1-.7-.2.6.6,0,0,1-.3-.6c0-.3.1-.6.1-.8,0-.5.1-.9.1-1.4s.1-.8.1-1.2a.6.6,0,0,1,.1-.4.27.27,0,0,1,.3-.3.85.85,0,0,1,.7,0c.2.1.3.2.3.4.1.7.1,1.4.2,2.1s.1,1.1.2,1.7c0,.2,0,.3-.1.4A2.93,2.93,0,0,1,50.48,15.14Z"/></svg>