<svg id="Слой_1" data-name="Слой 1" xmlns="http://www.w3.org/2000/svg" viewBox="0 0 85.9 85.9"><defs><style>.cls-1{fill:#012c41;}</style></defs><title>PriceAnalytics</title><path class="cls-1" d="M49,0A37,37,0,0,0,12,37a36.32,36.32,0,0,0,6.7,20.8L.3,76.2a1,1,0,0,0,0,1.4h0l8,8a1,1,0,0,0,1.4,0h0L28.1,67.2a36.32,36.32,0,0,0,20.8,6.7A36.95,36.95,0,1,0,49,0Zm0,2a35,35,0,1,1,0,70,34.47,34.47,0,0,1-20.4-6.8.93.93,0,0,0-1.3.1L9,83.5,2.4,76.9,20.7,58.6a.94.94,0,0,0,.1-1.3A34.47,34.47,0,0,1,14,36.9,35,35,0,0,1,49,2Zm0,5A30,30,0,1,0,79,37,30,30,0,0,0,49,7Zm0,2A28,28,0,1,1,21,37,28,28,0,0,1,49,9Zm-.1,7.9a1.06,1.06,0,0,0-.9,1V22a13.89,13.89,0,0,0-6.5,2.1A7.28,7.28,0,0,0,38,29.9a7,7,0,0,0,3.5,5.7,14.21,14.21,0,0,0,7.2,2.2h.4a12.33,12.33,0,0,1,6.3,1.9A4.91,4.91,0,0,1,58,43.8a4.91,4.91,0,0,1-2.6,4.1A12.07,12.07,0,0,1,49,49.8a11.25,11.25,0,0,1-6.4-1.9A5,5,0,0,1,40,43.8a1,1,0,0,0-2,0h0a7,7,0,0,0,3.5,5.8A14,14,0,0,0,48,51.8h0v4a1,1,0,0,0,2,0h0v-4h0a14,14,0,0,0,6.5-2.2A7.28,7.28,0,0,0,60,43.8a7,7,0,0,0-3.5-5.7,14.58,14.58,0,0,0-7.3-2.2h-.1A12.71,12.71,0,0,1,42.7,34a5.14,5.14,0,0,1-2.6-4.1c0-1.6.9-3,2.6-4.2a12.28,12.28,0,0,1,12.8,0,5.06,5.06,0,0,1,2.6,4.2,1,1,0,1,0,2,0h0a7,7,0,0,0-3.5-5.8A12.86,12.86,0,0,0,50.1,22V17.9a.94.94,0,0,0-1-1Z"/></svg>