<svg id="Layer_1" data-name="Layer 1" xmlns="http://www.w3.org/2000/svg" xmlns:xlink="http://www.w3.org/1999/xlink" viewBox="0 0 363.55 240"><defs><style>.cls-1{fill:#e5f2f9;}.cls-2{fill:#daecf3;}.cls-3{fill:#1ba5b8;}.cls-4{fill:url(#linear-gradient);}.cls-5{fill:url(#linear-gradient-2);}.cls-6{fill:url(#linear-gradient-3);}.cls-7{fill:url(#linear-gradient-4);}.cls-8{fill:#fabfb4;}.cls-9{fill:#f59a8e;}.cls-10{fill:#858585;}.cls-11{fill:#fff;}.cls-12{fill:#e0e1e0;}.cls-13{fill:#303030;opacity:0.07;isolation:isolate;}.cls-14{fill:#002d41;}</style><linearGradient id="linear-gradient" x1="219.7" y1="262.49" x2="219.7" y2="177.42" gradientTransform="translate(0 2)" gradientUnits="userSpaceOnUse"><stop offset="0.2" stop-color="#002d41"/><stop offset="1" stop-color="#1ba5b8"/></linearGradient><linearGradient id="linear-gradient-2" x1="10.64" y1="209.89" x2="406.11" y2="209.89" gradientTransform="translate(0 2)" gradientUnits="userSpaceOnUse"><stop offset="0" stop-color="#002d41"/><stop offset="1" stop-color="#1ba5b8"/></linearGradient><linearGradient id="linear-gradient-3" x1="163.2" y1="262.49" x2="163.2" y2="177.42" xlink:href="#linear-gradient"/><linearGradient id="linear-gradient-4" x1="43.73" y1="226.99" x2="334.49" y2="226.99" xlink:href="#linear-gradient"/></defs><title>proIllu2</title><path class="cls-1" d="M363.5,240c.65-6.44-4.73-12.37-9.69-17-14.86-13.72-29.88-27.56-47.32-37.8s-37.76-16.73-57.86-14.42c-32.56,3.75-59,29.4-91.18,35.45-17.08,3.21-35.4.78-51.33,7.78A60.34,60.34,0,0,0,88.19,226.6,146,146,0,0,0,76.44,240Z" transform="translate(0 0)"/><path class="cls-2" d="M325.76,240c-.77-.13-1.54-.24-2.27-.32-15.26-1.72-28.55-11.1-43.4-15-22.08-5.8-45.4.92-68.2-.17-18.55-.89-36.72-7-55.27-6.21a102.41,102.41,0,0,0-27.48,5.41c-14.08,4.6-27.44,11.1-41.3,16.29Z" transform="translate(0 0)"/><path class="cls-3" d="M188.86,194.62a63.24,63.24,0,0,0,16.64,1.81c15.5-.62,29.62-8.75,44.71-12.32a46,46,0,0,0-.39-13.65,11.69,11.69,0,0,0-1.19.1C227.18,173,208.39,185,188.86,194.62Z" transform="translate(0 0)"/><path class="cls-4" d="M188.86,194.62a63.24,63.24,0,0,0,16.64,1.81c15.5-.62,29.62-8.75,44.71-12.32a46,46,0,0,0-.39-13.65,11.69,11.69,0,0,0-1.19.1C227.18,173,208.39,185,188.86,194.62Z" transform="translate(0 0)"/><path class="cls-5" d="M88.19,226.38a60.34,60.34,0,0,1,17.93-12.59c15.93-7,34.25-4.57,51.33-7.78,11-2.06,21.3-6.41,31.41-11.39-10.13-2.31-20.09-6.25-30.28-8.55-32.64-7.4-68.84,3.49-92,27.68-7.72,8.06-14,17.35-20.7,26.25H76.23A147.55,147.55,0,0,1,88.19,226.38Z" transform="translate(0 0)"/><path class="cls-6" d="M106.12,213.79a60.34,60.34,0,0,0-17.93,12.59,147.55,147.55,0,0,0-12,13.62h11c14.11-5.23,27.67-11.87,42-16.54A102.41,102.41,0,0,1,156.62,218c18.55-.75,36.72,5.32,55.27,6.21A141,141,0,0,0,227,224a74.65,74.65,0,0,0,8.45-7.89,58.69,58.69,0,0,0,14.8-32.06c-15.09,3.58-29.21,11.7-44.71,12.32a63.24,63.24,0,0,1-16.64-1.81c-10.11,5-20.42,9.32-31.41,11.39C140.37,209.22,122,206.79,106.12,213.79Z" transform="translate(0 0)"/><path class="cls-7" d="M211.89,224.26c-18.55-.89-36.72-7-55.27-6.21a102.41,102.41,0,0,0-27.48,5.41c-14.32,4.67-27.88,11.31-42,16.54H198.37c10.29-4.06,20.12-9.14,28.59-15.94A141,141,0,0,1,211.89,224.26Z" transform="translate(0 0)"/><path class="cls-3" d="M244.6,156.9c-10.66-17-32.66-23-52.66-23-22.43,0-46.53,5.21-66.16-5.65-10.77-6-18.64-16.17-24.2-27.16s-9-22.89-13-34.54c-2.83-8.29-6.31-17-13.49-22-6.06-4.22-13.8-5.13-21.18-5.13a111.6,111.6,0,0,0-40.75,7.7C9,48.78,4.43,50.67,0,52.92V240H45.88c6.75-8.9,13-18.19,20.7-26.25,23.16-24.19,59.36-35.08,92-27.68,10.19,2.3,20.15,6.24,30.28,8.55,19.53-9.61,38.32-21.59,59.77-24.06.4,0,.8-.07,1.19-.1A38.34,38.34,0,0,0,244.6,156.9Z" transform="translate(0 0)"/><path class="cls-2" d="M58.19,11.66c.4-4.31,2.43-8,4.88-11.66H0V127.68a50.58,50.58,0,0,0,17.39-11.29C27.61,106.08,33.15,92.09,42,80.62,47.15,74,53.36,68.25,58.26,61.45s8.5-15.11,7.3-23.4C64.25,28.94,57.34,20.83,58.19,11.66Z" transform="translate(0 0)"/><path class="cls-1" d="M0,0V144.31a77.65,77.65,0,0,0,21.39-22.93C32,104.16,36.5,83.89,38.73,63.8c2.4-21.73,2.57-44.6,13-63.8Z" transform="translate(0 0)"/><path class="cls-2" d="M0,0V82.71A57.72,57.72,0,0,0,12.35,63.18c7-18.06,5.74-39,15.36-55.79a63.49,63.49,0,0,1,5-7.39Z" transform="translate(0 0)"/><path class="cls-8" d="M132.85,74.94a8.68,8.68,0,0,0-4.45.44l.6,2.82Z" transform="translate(0 0)"/><path class="cls-9" d="M129,78.2l-.59-2.82a8.93,8.93,0,0,0-1.49.73l-.43,4.21Z" transform="translate(0 0)"/><path class="cls-9" d="M110.1,169.49l-38.83-4,.57,9.13a4.77,4.77,0,0,0,3,1.69l7.28,1.13A45.59,45.59,0,0,0,109,173.39l3.68-1.8.07-.26.64-2.3A7.06,7.06,0,0,1,110.1,169.49Z" transform="translate(0 0)"/><path class="cls-8" d="M109,173.39a45.59,45.59,0,0,1-26.91,4.06l-7.23-1.06a4.77,4.77,0,0,1-3-1.69l-.57-9.13-.22-3.5v-.49a82.89,82.89,0,0,0-11.4-37.08l-.41-41.76a6,6,0,0,0-6-6h-.07l-11.91.11a6,6,0,0,0-6,6v.07l.41,42.29h0L36,159a24.34,24.34,0,0,0,4.62,14l55.15,18.3a24.34,24.34,0,0,0,16.08-16.67l.9-3.28-.07.26ZM47.6,155.84l.24-2.38-.22,4a7.11,7.11,0,0,1,0-1.6Z" transform="translate(0 0)"/><path class="cls-10" d="M58.74,80.39l3.73-36.47a7.94,7.94,0,0,1,8.71-7.09h0l8.2.84A3.8,3.8,0,0,1,82.52,40l.83,2a3.91,3.91,0,0,0,3.23,2.43l15.76,1.61a3.91,3.91,0,0,0,3.66-1.7l1.22-1.84a3.79,3.79,0,0,1,3.55-1.67l8.2.84a7.94,7.94,0,0,1,7.1,8.7h0L122.7,83.49l3.75-3.17.43-4.21,3-29.52a7.2,7.2,0,0,0-6.43-7.89L67.37,33a7.21,7.21,0,0,0-7.89,6.43L55.61,77.25A6,6,0,0,1,58.74,80.39Z" transform="translate(0 0)"/><path class="cls-10" d="M115.31,155.71l-.29,2.82a8,8,0,0,1-8.71,7.1L71.05,162l.22,3.5,38.83,4a7.06,7.06,0,0,0,3.28-.44,7.19,7.19,0,0,0,4.61-6l.75-7.39Z" transform="translate(0 0)"/><path class="cls-11" d="M126.08,50.39A7.94,7.94,0,0,0,119,41.68h0l-8.2-.84a3.79,3.79,0,0,0-3.55,1.67L106,44.39a3.91,3.91,0,0,1-3.67,1.73L86.58,44.51a3.91,3.91,0,0,1-3.23-2.43L82.52,40a3.8,3.8,0,0,0-3.14-2.36l-8.2-.84a7.94,7.94,0,0,0-8.71,7.09h0l-3.73,36.5a6,6,0,0,1,.48,2.3l.41,41.76A82.89,82.89,0,0,1,71,161.53V162l35.26,3.61a8,8,0,0,0,8.71-7.1l.29-2.82h-1.55a8.66,8.66,0,0,1-8.73-8.56v-2.56a8.63,8.63,0,0,1,7-8.57,8.63,8.63,0,0,1-5.41-7.94v-2.55a8.59,8.59,0,0,1,1.84-5.41,4.37,4.37,0,0,1-2.93-1.94,4.09,4.09,0,0,1-3.11-3.22l-2.12-11.16L76.62,115.9a7.93,7.93,0,0,1-8.75-1.11A7.19,7.19,0,0,1,67,114a6.47,6.47,0,0,1,.26-9l34.27-33.57a4.1,4.1,0,0,1,6.89,2.16l.9,4.75a4.07,4.07,0,0,1,3.68,3l1.68,9,8.07-6.82Z" transform="translate(0 0)"/><polygon class="cls-11" points="33.44 170.59 25.82 193.5 98.64 201.55 93.79 216.12 101.42 193.2 95.77 191.33 40.64 172.99 33.44 170.59"/><polygon class="cls-12" points="25.82 193.5 25.82 193.5 93.79 216.12 93.79 216.12 98.64 201.55 25.82 193.5"/><path class="cls-9" d="M123.85,116.74h3.63a8.66,8.66,0,0,1,3.37.65,8.63,8.63,0,0,0,7.11-6.81l-12.47,4.36Z" transform="translate(0 0)"/><path class="cls-8" d="M123.85,116.74l1.69-1.82L111,120a5.13,5.13,0,0,1-2.57.14,8.59,8.59,0,0,0-1.84,5.41v2.55A8.63,8.63,0,0,0,112,136a8.63,8.63,0,0,0-7,8.57v2.56a8.66,8.66,0,0,0,8.73,8.56h7.18l13.16-14.07a8.66,8.66,0,0,0-8.25-5.83H121L135,121a8.77,8.77,0,0,0-4.11-3.58,8.66,8.66,0,0,0-3.42-.67Z" transform="translate(0 0)"/><path class="cls-9" d="M121,135.81h4.81a8.67,8.67,0,0,1,3.31.63,8.65,8.65,0,0,0,7-8.57v-2.56a8.67,8.67,0,0,0-1.21-4.31Z" transform="translate(0 0)"/><path class="cls-9" d="M126,155.61a8.66,8.66,0,0,0,8.56-8.73v-2.56a8.51,8.51,0,0,0-.48-2.73L121,155.66Z" transform="translate(0 0)"/><path class="cls-13" d="M213.58,65.44,201.27,62l-17.63,42.86a2.75,2.75,0,0,1-.67,1l3.23,6.09a3,3,0,0,0,5,.08l24-43.41a2.21,2.21,0,0,0-1.62-3.18Z" transform="translate(0 0)"/><path class="cls-13" d="M137.69,103.65a8.57,8.57,0,0,1,.42,2.55v2.55a8.3,8.3,0,0,1-.17,1.81l37.28-13-4.72-9.72Z" transform="translate(0 0)"/><path class="cls-11" d="M76.61,115.92l23.65-12.1-1-5.25L75.39,115a6.47,6.47,0,0,1-7.53-.15A7.93,7.93,0,0,0,76.61,115.92Z" transform="translate(0 0)"/><path class="cls-13" d="M76.61,115.92l23.65-12.1-1-5.25L75.39,115a6.47,6.47,0,0,1-7.53-.15A7.93,7.93,0,0,0,76.61,115.92Z" transform="translate(0 0)"/><path class="cls-11" d="M108.42,120.14a8.6,8.6,0,0,1,5.44-3.21,8.06,8.06,0,0,1-1.7-.95l-4.09,2a4.07,4.07,0,0,1-2.58.25A4.37,4.37,0,0,0,108.42,120.14Z" transform="translate(0 0)"/><path class="cls-13" d="M108.42,120.14a8.6,8.6,0,0,1,5.44-3.21,8.06,8.06,0,0,1-1.7-.95l-4.09,2a4.07,4.07,0,0,1-2.58.25A4.37,4.37,0,0,0,108.42,120.14Z" transform="translate(0 0)"/><path class="cls-11" d="M113,81.39a4.07,4.07,0,0,0-3.68-3L112,92.61l2.64-2.22Z" transform="translate(0 0)"/><path class="cls-13" d="M113,81.39a4.07,4.07,0,0,0-3.68-3L112,92.61l2.64-2.22Z" transform="translate(0 0)"/><path class="cls-9" d="M138.11,106.2a8.57,8.57,0,0,0-.42-2.55l-3,1.44-9.2,9.83L138,110.56a8.3,8.3,0,0,0,.17-1.81Z" transform="translate(0 0)"/><path class="cls-13" d="M138.11,106.2a8.57,8.57,0,0,0-.42-2.55l-3,1.44-9.2,9.83L138,110.56a8.3,8.3,0,0,0,.17-1.81Z" transform="translate(0 0)"/><path class="cls-8" d="M108.42,120.14A5.13,5.13,0,0,0,111,120l14.5-5.08,9.2-9.83L112.16,116a8.06,8.06,0,0,0,1.7.95A8.6,8.6,0,0,0,108.42,120.14Z" transform="translate(0 0)"/><path class="cls-13" d="M108.42,120.14A5.13,5.13,0,0,0,111,120l14.5-5.08,9.2-9.83L112.16,116a8.06,8.06,0,0,0,1.7.95A8.6,8.6,0,0,0,108.42,120.14Z" transform="translate(0 0)"/><path class="cls-3" d="M201.27,62l3.31-8a2.61,2.61,0,0,0-1.73-3.6L149.91,35.3A2.61,2.61,0,0,0,146.84,39l8.28,17L132.85,74.94,129,78.2l-2.51,2.12-3.75,3.17-8.07,6.82L112,92.53l-2.7-14.22-.9-4.75a4.1,4.1,0,0,0-6.89-2.16L67.23,105a6.47,6.47,0,0,0-.26,9,7.19,7.19,0,0,0,.92.83,6.47,6.47,0,0,0,7.53.15L99.29,98.59l1,5.25L102.41,115a4.1,4.1,0,0,0,5.69,3l4.09-2,22.53-10.89,3-1.44,32.83-15.86,4.72,9.72L178.9,105a2.63,2.63,0,0,0,4.1.82,2.75,2.75,0,0,0,.67-1Z" transform="translate(0 0)"/><polygon class="cls-14" points="85.85 240 91.6 222.72 69.57 240 85.85 240"/><polygon class="cls-14" points="69.57 240 91.6 222.72 93.79 216.12 25.82 193.5 10.35 240 69.57 240"/></svg>