<svg id="Слой_1" data-name="Слой 1" xmlns="http://www.w3.org/2000/svg" viewBox="0 0 104 79"><defs><style>.cls-1{fill:#012c41;}</style></defs><title>StoreAnalytics</title><path class="cls-1" d="M104,76.21V2.79A2.84,2.84,0,0,0,101.22,0H2.78A2.84,2.84,0,0,0,0,2.79V76.21A2.84,2.84,0,0,0,2.78,79h98.44A2.78,2.78,0,0,0,104,76.21ZM2.78,1.49h98.44a1.32,1.32,0,0,1,1.29,1.29V15.72H1.49V2.79A1.32,1.32,0,0,1,2.78,1.49ZM1.49,76.21v-59h101v58.9a1.32,1.32,0,0,1-1.29,1.29H88.52v-39a.79.79,0,1,0-1.59,0v39.1H66.09V36.71a3.47,3.47,0,0,0,1.39-.6l4,4h0a.72.72,0,0,0,1,0l9.92-9.95,4.56,4.58a.76.76,0,0,0,.5.2.36.36,0,0,0,.3-.1.75.75,0,0,0,.5-.7V24a.78.78,0,0,0-.79-.8H77.5a.75.75,0,0,0-.69.5.62.62,0,0,0,.2.8l4.56,4.58-9.43,9.45L68.57,35a3.19,3.19,0,0,0,.5-1.89,3.67,3.67,0,1,0-7.34,0,4.09,4.09,0,0,0,.69,2.19L51,46.66a3.55,3.55,0,0,0-2.38-.9,3.38,3.38,0,0,0-2.38.9L43.47,44a.72.72,0,0,0-1,0l-11,11-2.78-2.79a3.64,3.64,0,0,0-3.18-5.47,3.67,3.67,0,0,0-3.67,3.68,4,4,0,0,0,.79,2.29L18,57.41a3.57,3.57,0,0,0-2-.6,3.67,3.67,0,0,0-3.67,3.68,3.55,3.55,0,0,0,1.29,2.79,3.44,3.44,0,0,0,1.59.8V77.51H2.78A1.32,1.32,0,0,1,1.49,76.21ZM17.37,58.9h0a2.35,2.35,0,0,1,.69,1.59,2.38,2.38,0,0,1-.5,1.39,2.2,2.2,0,0,1-3.08.3,2.13,2.13,0,0,1-.79-1.69,2.21,2.21,0,0,1,2.18-2.19A1.81,1.81,0,0,1,17.37,58.9Zm-.79,5.17a3.9,3.9,0,0,0,2.08-1.29,3.57,3.57,0,0,0,.89-2.39,3.16,3.16,0,0,0-.6-2l4.76-4.78a4.14,4.14,0,0,0,1,.4V77.51H16.57ZM27.09,51.84a2.2,2.2,0,0,1-3.08.3,2.13,2.13,0,0,1-.79-1.69,2.18,2.18,0,1,1,4.37,0A2.38,2.38,0,0,1,27.09,51.84ZM26.2,54a2.94,2.94,0,0,0,1.49-.7l3.18,3.18h0l.1.1.1.1h.3a.86.86,0,0,0,.6-.3L42.87,45.47l2.38,2.39a4.69,4.69,0,0,0-.4,1.59,3.63,3.63,0,0,0,3,3.58V77.41H26.2Zm24.21-5.77a2,2,0,0,1,.4,1.29,2.18,2.18,0,1,1-4.37,0,2.83,2.83,0,0,1,.4-1.29,2.23,2.23,0,0,1,3.57,0Zm-1.09,4.88a3.63,3.63,0,0,0,3-3.58A2.93,2.93,0,0,0,51.9,48L63.51,36.32a4.29,4.29,0,0,0,1.19.5V77.51H49.32ZM67.08,34.62a2.1,2.1,0,0,1-3.08.1,2,2,0,0,1-.69-1.59,2.18,2.18,0,1,1,4.37,0A2.39,2.39,0,0,1,67.08,34.62Zm12.21-9.95H87v7.76Z" transform="translate(0)"/><path class="cls-1" d="M93.68,12a3.3,3.3,0,1,0-3.3-3.3A3.2,3.2,0,0,0,93.68,12Zm0-5.2a1.8,1.8,0,1,1-1.8,1.8A1.73,1.73,0,0,1,93.68,6.8Z" transform="translate(0)"/><path class="cls-1" d="M83.28,12A3.3,3.3,0,1,0,80,8.7,3.2,3.2,0,0,0,83.28,12Zm0-5.2a1.8,1.8,0,1,1-1.8,1.8A1.79,1.79,0,0,1,83.28,6.8Z" transform="translate(0)"/><path class="cls-1" d="M72.88,12a3.3,3.3,0,1,0-3.3-3.3A3.2,3.2,0,0,0,72.88,12Zm0-5.2a1.8,1.8,0,1,1-1.8,1.8A1.79,1.79,0,0,1,72.88,6.8Z" transform="translate(0)"/></svg>