<svg id="Слой_2" data-name="Слой 2" xmlns="http://www.w3.org/2000/svg" xmlns:xlink="http://www.w3.org/1999/xlink" viewBox="0 0 500 500"><defs><style>.cls-1{fill:none;}.cls-2{fill:#1ba5b8;}.cls-3{fill:#012d41;}.cls-4{fill:#daecf3;}.cls-5{fill:#ff404e;}.cls-6{fill:url(#Безымянный_градиент_30);}.cls-7{fill:#0d2935;}.cls-8{isolation:isolate;}.cls-9{fill:#bb1831;}.cls-10{fill:#ffbba6;}.cls-11{fill:#f4f4f4;}.cls-12{fill:url(#Безымянный_градиент_26);}.cls-13{fill:url(#Безымянный_градиент_26-2);}.cls-14{fill:url(#Безымянный_градиент_25);}.cls-15{clip-path:url(#clip-path);}.cls-16{fill:#e6f8ff;}.cls-17{fill:#fff;}</style><linearGradient id="Безымянный_градиент_30" x1="146.05" y1="351.97" x2="199.81" y2="351.97" gradientUnits="userSpaceOnUse"><stop offset="0" stop-color="#012d41"/><stop offset="1" stop-color="#1ba5b8"/></linearGradient><linearGradient id="Безымянный_градиент_26" x1="134.91" y1="325.67" x2="104.47" y2="272.95" gradientUnits="userSpaceOnUse"><stop offset="0" stop-color="#ff404e"/><stop offset="1" stop-color="#c70f35"/></linearGradient><linearGradient id="Безымянный_градиент_26-2" x1="155.78" y1="406.69" x2="155.78" y2="314.23" xlink:href="#Безымянный_градиент_26"/><linearGradient id="Безымянный_градиент_25" x1="121.79" y1="406.69" x2="121.79" y2="283.65" gradientUnits="userSpaceOnUse"><stop offset="0" stop-color="#c70f35"/><stop offset="1" stop-color="#ff404e"/></linearGradient><clipPath id="clip-path"><path class="cls-1" d="M268.9,44.58l-4,2.32c-.18.11-.37.19-.55.28l4-2.33C268.52,44.78,268.72,44.69,268.9,44.58Z"/></clipPath></defs><title>Mesa de trabajo 6 copia</title><path class="cls-2" d="M193.87,474.37q-3.59,0-7.11-.12l.08-2.47c4.06.14,8.2.15,12.27.05l.06,2.47Q196.54,474.37,193.87,474.37Zm20.16-1-.24-2.46c4.1-.41,8.19-.94,12.16-1.59l.4,2.43C222.33,472.44,218.19,473,214,473.39Zm-42.14-.19c-4.15-.45-8.29-1-12.3-1.73L160,469c4,.69,8,1.26,12.14,1.7Zm69.05-4.43-.6-2.4c4-1,8-2.16,11.75-3.43l.79,2.34C249,466.58,245,467.75,240.95,468.77ZM145,468.32c-4.06-1.07-8.06-2.28-11.9-3.61l.81-2.33c3.77,1.31,7.71,2.51,11.71,3.56Zm121.75-8.5-1-2.24a112.92,112.92,0,0,0,10.8-5.67l1.27,2.12A115.39,115.39,0,0,1,266.78,459.82ZM119.31,459a111.16,111.16,0,0,1-10.95-6l1.31-2.09a108.28,108.28,0,0,0,10.7,5.84ZM290,445.29l-1.61-1.87a62.79,62.79,0,0,0,8.4-8.68l1.94,1.53A65.1,65.1,0,0,1,290,445.29ZM96.35,444.08a62,62,0,0,1-8.47-9.28l2-1.46A59.57,59.57,0,0,0,98,442.25Zm209.82-21-2.33-.82a34.88,34.88,0,0,0,2-11.66h2.47A37.42,37.42,0,0,1,306.16,423.09ZM81,421.32a37.11,37.11,0,0,1-1.6-10.71q0-.94,0-1.88l2.47.13q0,.87,0,1.75a34.64,34.64,0,0,0,1.49,10Zm223.84-19a39.51,39.51,0,0,0-4.65-11l2.11-1.28a42.08,42.08,0,0,1,4.94,11.64ZM85.5,395.12l-2.23-1.07a50.28,50.28,0,0,1,6.9-10.55l1.89,1.59A47.74,47.74,0,0,0,85.5,395.12ZM291,380.18a77.49,77.49,0,0,0-9.44-7.62l1.4-2a79.92,79.92,0,0,1,9.74,7.86Zm-188.44-5-1.5-2a94.45,94.45,0,0,1,10.41-6.91l1.23,2.14A91.63,91.63,0,0,0,102.6,375.13ZM269,365.19c-3.53-1.75-7.3-3.4-11.2-4.89l.88-2.3c4,1.52,7.81,3.19,11.41,5Zm-143.11-3.25-1-2.27c3.72-1.56,7.65-3,11.68-4.3l.75,2.35C133.4,359,129.53,360.4,125.88,361.94Zm117.94-6.18c-3.87-1.06-7.88-2-11.92-2.81l.48-2.42c4.1.81,8.17,1.77,12.09,2.84Zm-92.29-1.89-.54-2.41c4-.89,8.06-1.66,12.21-2.3l.38,2.44C159.49,352.21,155.44,353,151.53,353.86Zm65.84-3.19c-4-.47-8.14-.82-12.22-1l.13-2.46c4.13.23,8.29.58,12.37,1.06Zm-39.18-.76-.19-2.46c4.09-.32,8.26-.51,12.4-.58l0,2.47C186.35,349.4,182.23,349.6,178.19,349.91Z"/><polygon class="cls-3" points="306.71 339.94 424.98 271.67 424.98 388.72 306.71 456.99 306.71 339.94"/><polygon class="cls-4" points="306.71 456.99 301.47 453.98 301.47 336.93 306.71 339.94 306.71 456.99"/><polygon class="cls-3" points="75.41 219.6 193.68 151.32 193.68 255.21 75.41 323.49 75.41 219.6"/><polygon class="cls-4" points="75.41 323.49 70.17 320.48 70.17 216.59 75.41 219.6 75.41 323.49"/><polygon class="cls-4" points="53.28 213.14 205.34 125.35 441.87 261.91 289.81 349.7 53.28 213.14"/><polygon class="cls-3" points="53.28 213.14 53.28 220.59 289.81 357.15 289.81 349.7 53.28 213.14"/><polygon class="cls-3" points="241.09 283.94 168.73 242.16 199.43 224.43 271.8 266.21 241.09 283.94"/><polygon class="cls-4" points="265.22 264.95 260.83 262.42 256.44 264.95 260.83 267.48 265.22 264.95"/><polygon class="cls-4" points="258.64 268.75 254.25 266.21 249.87 268.75 254.25 271.28 258.64 268.75"/><polygon class="cls-4" points="252.06 272.54 247.67 270.01 243.29 272.54 247.67 275.08 252.06 272.54"/><polygon class="cls-4" points="245.48 276.34 241.09 273.81 236.71 276.34 241.09 278.87 245.48 276.34"/><polygon class="cls-4" points="258.64 261.15 254.25 258.62 249.87 261.15 254.25 263.68 258.64 261.15"/><polygon class="cls-4" points="252.06 264.95 247.67 262.42 243.29 264.95 247.67 267.48 252.06 264.95"/><polygon class="cls-4" points="245.48 268.75 241.09 266.21 236.71 268.75 241.09 271.28 245.48 268.75"/><polygon class="cls-4" points="238.9 272.54 234.51 270.01 230.13 272.54 234.51 275.08 238.9 272.54"/><polygon class="cls-4" points="252.06 257.35 247.67 254.82 243.29 257.35 247.67 259.88 252.06 257.35"/><polygon class="cls-4" points="245.48 261.15 241.09 258.62 236.71 261.15 241.09 263.68 245.48 261.15"/><polygon class="cls-4" points="238.9 264.95 234.51 262.42 230.13 264.95 234.51 267.48 238.9 264.95"/><polygon class="cls-4" points="232.32 268.75 227.94 266.21 223.55 268.75 227.94 271.28 232.32 268.75"/><polygon class="cls-4" points="245.48 253.55 241.09 251.02 236.71 253.55 241.09 256.08 245.48 253.55"/><polygon class="cls-4" points="238.9 257.35 234.51 254.82 230.13 257.35 234.51 259.88 238.9 257.35"/><polygon class="cls-4" points="232.32 261.15 227.94 258.62 223.55 261.15 227.94 263.68 232.32 261.15"/><polygon class="cls-4" points="238.9 249.75 234.51 247.22 230.13 249.75 234.51 252.29 238.9 249.75"/><polygon class="cls-4" points="232.32 253.55 227.94 251.02 223.55 253.55 227.94 256.08 232.32 253.55"/><polygon class="cls-4" points="225.74 257.35 221.36 254.82 216.97 257.35 221.36 259.88 225.74 257.35"/><polygon class="cls-4" points="223.55 263.68 201.62 251.02 197.24 253.55 219.16 266.21 223.55 263.68"/><polygon class="cls-4" points="232.32 245.96 227.94 243.42 223.55 245.96 227.94 248.49 232.32 245.96"/><polygon class="cls-4" points="225.74 249.75 221.36 247.22 216.97 249.75 221.36 252.29 225.74 249.75"/><polygon class="cls-4" points="219.16 253.55 214.78 251.02 210.39 253.55 214.78 256.08 219.16 253.55"/><polygon class="cls-4" points="225.74 242.16 221.36 239.63 216.97 242.16 221.36 244.69 225.74 242.16"/><polygon class="cls-4" points="219.16 245.96 214.78 243.42 210.39 245.96 214.78 248.49 219.16 245.96"/><polygon class="cls-4" points="212.59 249.75 208.2 247.22 203.81 249.75 208.2 252.29 212.59 249.75"/><polygon class="cls-4" points="219.16 238.36 214.78 235.83 210.39 238.36 214.78 240.89 219.16 238.36"/><polygon class="cls-4" points="212.59 242.16 208.2 239.63 203.81 242.16 208.2 244.69 212.59 242.16"/><polygon class="cls-4" points="206.01 245.96 201.62 243.42 197.24 245.96 201.62 248.49 206.01 245.96"/><polygon class="cls-4" points="199.43 249.75 195.04 247.22 190.66 249.75 195.04 252.29 199.43 249.75"/><polygon class="cls-4" points="212.59 234.56 208.2 232.03 203.81 234.56 208.2 237.09 212.59 234.56"/><polygon class="cls-4" points="206.01 238.36 201.62 235.83 197.24 238.36 201.62 240.89 206.01 238.36"/><polygon class="cls-4" points="199.43 242.16 195.04 239.63 190.66 242.16 195.04 244.69 199.43 242.16"/><polygon class="cls-4" points="192.85 245.96 188.46 243.42 184.08 245.96 188.46 248.49 192.85 245.96"/><polygon class="cls-4" points="206.01 230.76 201.62 228.23 197.24 230.76 201.62 233.3 206.01 230.76"/><polygon class="cls-4" points="199.43 234.56 195.04 232.03 190.66 234.56 195.04 237.09 199.43 234.56"/><polygon class="cls-4" points="192.85 238.36 188.46 235.83 184.08 238.36 188.46 240.89 192.85 238.36"/><polygon class="cls-4" points="186.67 242.16 182.28 239.63 177.9 242.16 182.28 244.69 186.67 242.16"/><polygon class="cls-2" points="241.09 283.94 241.09 285.3 168.73 243.42 168.73 242.16 241.09 283.94"/><polygon class="cls-2" points="241.09 285.3 271.8 267.48 271.8 266.21 241.09 283.94 241.09 285.3"/><polygon class="cls-3" points="289.81 357.15 441.87 269.36 441.87 261.91 289.81 349.7 289.81 357.15"/><polygon class="cls-5" points="279.67 317.91 320.2 294.51 277.24 269.73 236.71 293.12 279.67 317.91"/><polygon class="cls-3" points="279.67 317.91 279.67 318.57 320.2 295.17 320.2 294.51 279.67 317.91"/><polygon class="cls-3" points="279.67 318.57 236.71 293.78 236.71 293.12 279.67 317.91 279.67 318.57"/><path class="cls-4" d="M267.45,301.14c-2.65-.21-8.94-1.19-8.66-5.66a21.36,21.36,0,0,1,16.5-10.38s7.89.28,9.47,5.48a1.59,1.59,0,0,1-.77,1.81l-14.47,8.28A3.58,3.58,0,0,1,267.45,301.14Z"/><path class="cls-3" d="M184.37,393.25s-4.91,4.77-2.48,13.28c.62,3.12,4.78,4.35,7.67,3.76,4.81-1,9.1-3.76,14.7-7,7-4,12.43-6.84,13.89-8.28,3.34-3.29-1.16-8.56-21.38-5.56C195,389.75,184.37,393.25,184.37,393.25Z"/><path class="cls-6" d="M176.62,303.6c-4.28,1.49-20.08,9-30.56,14v35a367,367,0,0,0,33.82-18.83v8.57c0,3.46,2.45,47.16,2.45,53.52,0,7,15.53,7.49,15.53-2.17,0-2.87,1.95-59,1.95-74S183.67,301.14,176.62,303.6Z"/><path class="cls-2" d="M132.44,486.95c1.29-2.18,3.47-3.28,4.86-2.45l1.93,1.07-4.73,7.87-1.89-1C131.23,491.56,131.15,489.13,132.44,486.95Z"/><ellipse class="cls-4" cx="136.85" cy="489.48" rx="4.59" ry="2.93" transform="translate(-353.94 357.39) rotate(-59.32)"/><path class="cls-7" d="M138.42,484.58l-.42-.07-3-1.65c-1.5-.89-3.84.29-5.23,2.63s-1.3,5,.19,5.85l3,1.66-.12.2,1.1.65.22-.18c-1.5-.89-1.58-3.51-.19-5.85s3.71-3.51,5.21-2.64l0-.21Z"/><path class="cls-7" d="M133.77,487.73c1.45-2.44,3.88-3.67,5.45-2.76l-4.43-2.44c-1.57-.93-4,.3-5.47,2.76s-1.36,5.19.2,6.12l4.45,2.45C132.4,492.92,132.31,490.18,133.77,487.73Z"/><path class="cls-7" d="M132.93,479.11v4.49a.89.89,0,0,0,.45.78,2,2,0,0,0,2,0,.89.89,0,0,0,.45-.78v-4.49Z"/><path class="cls-2" d="M78.21,449.72c1.29-2.18,3.47-3.28,4.86-2.45L85,448.34l-4.73,7.87-1.89-1C77,454.33,76.91,451.9,78.21,449.72Z"/><ellipse class="cls-4" cx="82.61" cy="452.26" rx="4.59" ry="2.93" transform="translate(-348.48 292.51) rotate(-59.32)"/><path class="cls-7" d="M84.19,447.35l-.42-.07-3-1.65c-1.5-.89-3.84.29-5.23,2.63s-1.3,5,.19,5.85l3,1.66-.12.2,1.1.65.22-.18c-1.5-.89-1.58-3.51-.19-5.85s3.71-3.51,5.21-2.64l0-.21Z"/><path class="cls-7" d="M79.53,450.5c1.45-2.44,3.88-3.67,5.45-2.76l-4.43-2.44c-1.57-.93-4,.3-5.47,2.76s-1.36,5.19.2,6.12l4.45,2.45C78.17,455.69,78.08,453,79.53,450.5Z"/><path class="cls-7" d="M78.69,441.88v4.49a.89.89,0,0,0,.45.78,2,2,0,0,0,2,0,.89.89,0,0,0,.45-.78v-4.49Z"/><path class="cls-2" d="M120,407.27c1.29-2.18,3.47-3.28,4.86-2.45l1.93,1.07-4.73,7.87-1.89-1C118.83,411.89,118.75,409.45,120,407.27Z"/><ellipse class="cls-4" cx="124.45" cy="409.81" rx="4.59" ry="2.93" transform="translate(-291.5 307.71) rotate(-59.32)"/><path class="cls-7" d="M126,404.91l-.42-.07-3-1.65c-1.5-.89-3.84.29-5.23,2.63s-1.3,5,.19,5.85l3,1.66-.12.2,1.1.65.22-.18c-1.5-.89-1.58-3.51-.19-5.85s3.71-3.51,5.21-2.64l0-.21Z"/><path class="cls-7" d="M121.37,408.06c1.45-2.44,3.88-3.67,5.45-2.76l-4.43-2.44c-1.57-.93-4,.3-5.47,2.76s-1.36,5.19.2,6.12l4.45,2.45C120,413.25,119.91,410.51,121.37,408.06Z"/><path class="cls-7" d="M120.53,399.44v4.49a.89.89,0,0,0,.45.78,2,2,0,0,0,2,0,.89.89,0,0,0,.45-.78v-4.49Z"/><path class="cls-2" d="M207.09,467.76c1.29-2.18,3.47-3.28,4.86-2.45l1.93,1.07-4.73,7.87-1.89-1C205.87,472.38,205.79,469.94,207.09,467.76Z"/><ellipse class="cls-4" cx="211.5" cy="470.3" rx="4.59" ry="2.93" transform="translate(-300.89 412.18) rotate(-59.31)"/><path class="cls-7" d="M213.07,465.4l-.42-.07-3-1.65c-1.5-.89-3.84.29-5.23,2.63s-1.3,5,.19,5.85l3,1.66-.12.2,1.1.65.22-.18c-1.5-.89-1.58-3.51-.19-5.85s3.71-3.51,5.21-2.64l0-.21Z"/><path class="cls-7" d="M208.42,468.55c1.45-2.44,3.88-3.67,5.45-2.76l-4.43-2.44c-1.57-.93-4,.3-5.47,2.76s-1.36,5.19.2,6.12l4.45,2.45C207.05,473.74,207,471,208.42,468.55Z"/><path class="cls-7" d="M207.58,459.93v4.49a.89.89,0,0,0,.45.78,2,2,0,0,0,2,0,.89.89,0,0,0,.45-.78v-4.49Z"/><path class="cls-2" d="M200.33,418.12c1.29-2.18,3.47-3.28,4.86-2.45l1.93,1.07-4.73,7.87-1.89-1C199.12,422.74,199,420.3,200.33,418.12Z"/><ellipse class="cls-4" cx="204.74" cy="420.66" rx="4.59" ry="2.93" transform="translate(-261.51 382.06) rotate(-59.31)"/><path class="cls-7" d="M206.31,415.76l-.42-.07-3-1.65c-1.5-.89-3.84.29-5.23,2.63s-1.3,5,.19,5.85l3,1.66-.12.2,1.1.65.22-.18c-1.5-.89-1.58-3.51-.19-5.85s3.71-3.51,5.21-2.64l0-.21Z"/><path class="cls-7" d="M201.66,418.91c1.45-2.44,3.88-3.67,5.45-2.76l-4.43-2.44c-1.57-.93-4,.3-5.47,2.76s-1.36,5.19.2,6.12l4.45,2.45C200.3,424.1,200.2,421.36,201.66,418.91Z"/><path class="cls-7" d="M200.82,410.29v4.49a.89.89,0,0,0,.45.78,2,2,0,0,0,2,0,.89.89,0,0,0,.45-.78v-4.49Z"/><g class="cls-8"><polygon class="cls-3" points="139.61 433.74 139.6 438.59 119.61 398.53 119.62 397.04 139.61 433.74"/><polygon class="cls-3" points="205.78 409.44 205.78 410.94 160.63 441.62 160.64 436.77 205.78 409.44"/><polygon class="cls-3" points="76.76 441.88 76.75 443.38 76.47 441.29 76.47 439.79 76.76 441.88"/><polygon class="cls-3" points="140.7 441.78 140.69 446.63 76.75 443.38 76.76 441.88 140.7 441.78"/><polygon class="cls-3" points="210.7 461.18 210.7 462.67 153.69 448.5 153.69 443.65 210.7 461.18"/><polygon class="cls-3" points="212.51 459.38 212.5 460.88 210.7 462.67 210.7 461.18 212.51 459.38"/><polygon class="cls-3" points="134.17 480.42 134.16 481.91 130.78 481.43 130.78 479.93 134.17 480.42"/><polygon class="cls-3" points="153.69 443.65 153.69 448.5 134.16 481.91 134.17 480.42 153.69 443.65"/><polygon class="cls-5" points="122.83 396.23 151.93 430.64 203.52 407.85 205.78 409.44 160.64 436.77 212.51 459.38 210.7 461.18 153.69 443.65 134.17 480.42 130.78 479.93 140.7 441.78 76.76 441.88 76.47 439.79 139.61 433.74 119.62 397.04 122.83 396.23"/></g><path class="cls-4" d="M142.44,423.86v12.38a4,4,0,0,0,2,3.49,8.87,8.87,0,0,0,8.87,0,4,4,0,0,0,2-3.49V423.86Z"/><path class="cls-3" d="M153.33,427.35h0a4,4,0,0,0,0-7h0a8.87,8.87,0,0,0-8.87,0h0a4,4,0,0,0,0,7h0A8.87,8.87,0,0,0,153.33,427.35Z"/><path class="cls-4" d="M144.49,386v34.79a2.72,2.72,0,0,0,1.37,2.38,6,6,0,0,0,6,0,2.72,2.72,0,0,0,1.37-2.38V386Z"/><polygon class="cls-9" points="208.75 358.6 140.94 319.45 105.3 339.57 163.42 384.32 208.75 358.6"/><path class="cls-5" d="M153.78,389.89s26.3-24.32,50.46-31.77a5.9,5.9,0,0,1,7.62,5.65v1.79a2.7,2.7,0,0,1-1.84,2.57,170.25,170.25,0,0,0-56.24,33Z"/><path class="cls-10" d="M191.59,253.24l2.48-.57s6.27-5.79,11.26-5.39,13.52,1.9,9.44,4.18-9.41,1.66-11.06,3.27c0,0,2.72.08,4.11.09s3-1,4.38-.22-1.94.79-2.7,1.58-3.92,1-5.8,1.38-5.6-1-13.36,3.59S191.59,253.24,191.59,253.24Z"/><path class="cls-11" d="M189.33,253l2.36-.52c2.22-.64,3.07,8.43.89,9.35l-2,.9Z"/><path class="cls-2" d="M121,257.58c-2.17-2.27-8.92-10.83-.15-19.2,5-4.77,11.46.11,14.62,3.78a27.8,27.8,0,0,1,4.68,8.13l9.78,10.6s38.12-7.83,39.09-8.06c3.23-.91,4.7,9.45,1.27,10.38,0,0-34.19,11.46-43.64,12.75C142.7,276.48,123.19,259.84,121,257.58Z"/><path class="cls-3" d="M213.73,411.23s-4.91,4.77-2.48,13.28c.62,3.12,4.78,4.35,7.67,3.76,4.81-1,9.1-3.76,14.7-7,7-4,12.43-6.84,13.89-8.28,3.34-3.29-1.16-8.56-21.38-5.56C224.36,407.74,213.73,411.23,213.73,411.23Z"/><path class="cls-2" d="M163.65,336.52S199.4,323.88,206,321.59c7.05-2.46,23.19,1.11,23.19,16.1s-1.95,71.11-1.95,74c0,9.66-15.53,9.22-15.53,2.17,0-6.35-2.45-50.05-2.45-53.52v-8.57s-32.13,20.42-50.1,25.2-50.26-4.22-43.21-34.8S163.65,336.52,163.65,336.52Z"/><path class="cls-4" d="M154.25,251.5C150.35,255,135.77,246.74,136,241c-3.55-1.39-8.15-3.53-12.48-2.19-8.57,2.64-7.3,15.85-8.11,22.89-1.91,16.53-.64,54.59-1.59,80.77,0,8.15,19.38,15.63,31,15.63s23.48-9,23.4-12.61S167.1,306.06,169.8,296s6.27-28.52,2.11-33.62C166.62,256,154.25,251.5,154.25,251.5Z"/><path class="cls-10" d="M172.69,201.54c2.75,6.06.06,9.24.27,13.7,0,3.94,3,20.43-4.81,22.18a25.7,25.7,0,0,1-9.16.6l-4.75,13.48c-1.27,3-19.66.29-18.2-8.79l.89-8c-4.14-1.91-11.79-8.76-11.79-22.3s14.43-24,27.45-24S171.93,199.86,172.69,201.54Z"/><path class="cls-3" d="M161.31,218.7c-2.13-1.26-7.25,5.08-.65,10.81.26,1.56-.78,4-2.43,5.81s1.39,2-3,4.25-13.72,1.16-15.06,2.82c0-1.54-1.27-2.26-3.52-6.71-3-4-7.28-4-10.84-12.23,0,0-7.82-17.11.55-27.39,4.77-10.53,16-9.64,18.39-10,3.1-.47,10.94-.64,9.9-5,2,.66,26,4,18.83,22.49-3.52,9-11.7,8.58-11.48,11.56S161.31,218.7,161.31,218.7Z"/><path class="cls-10" d="M201.57,291.77c-2.53.13-16.94-16.15-21-20.47s-9.27-3.73-10.85-1.1c-2.71,4.5-3,11,3.27,15.86s19.66,17.17,25,17.5,50.45,1.14,59.56-1.4c2.89-.81,5.26-1,7-1.67s5-.31,7.29-2.17c1-.83,3.7-3.53,6.19-5.33,3.07-2.22,5.79-3.33,6.27-4.2,1.93-3.52-6.87-6.47-10.65-5.75-3.28.63-5.42,1.1-7,2.08,1.9-1.33-.91-2-2.23-.78-1.49,1.37-1.33,2.85-3,5.3a13,13,0,0,1-4.43,3.81S204.11,291.64,201.57,291.77Z"/><path class="cls-11" d="M252.63,293l3.12.15c2.94,0,4.07,9.3,1.18,9.6l-2.67.33Z"/><path class="cls-2" d="M162.18,278.31c-2.88-2.88-6.73-11.77-1.16-17.71,4.65-5,10.49-.84,14.68,3.73s11.82,12.1,11.82,12.1l12.94,13.37s50.47,2.94,51.75,3c4.27,0,6.22,10.77,1.69,10.74,0,0-45.27,1.8-57.78.42C190.89,303.34,165.06,281.19,162.18,278.31Z"/><polygon class="cls-12" points="153.45 314.96 95.33 281.41 85.92 283.65 144.05 317.2 153.45 314.96"/><path class="cls-13" d="M156,318a5.63,5.63,0,0,0-8.11-3L144,317.2v78.28l1.16.67-.11.09L144,406.69l9.73-5.59C174.19,368.13,169.16,355.09,156,318Z"/><path class="cls-14" d="M144,317.2l10.26,29.62a61,61,0,0,1-4.81,50.42L144,406.69,85.92,373.14l5.45-9.44a61,61,0,0,0,4.81-50.42L85.92,283.65Z"/><polygon class="cls-9" points="182.16 359.28 180.38 381.95 181.75 382.76 183.53 360.09 182.16 359.28"/><path class="cls-5" d="M183.53,360.09l7.88-4.55-1.78,22.67c-3.94,5.32-7.88,4.55-7.88,4.55Z"/><path class="cls-9" d="M208.91,348.09c-.36,1.05-16.1,12.07-28,16v-1.6l27.37-14.65Z"/><path class="cls-5" d="M174.78,359.26l26.57-15.34a2.81,2.81,0,0,1,2.81,0l4.49,2.59a1,1,0,0,1,0,1.79l-26.57,15.34a3.35,3.35,0,0,1-3.35,0l-4-2.29A1.21,1.21,0,0,1,174.78,359.26Z"/><path class="cls-2" d="M246,208.35h0a15,15,0,0,1,15,0l32.55,18.79a5.2,5.2,0,0,1,0,9h0a16.29,16.29,0,0,1-16.29,0l-31.25-18A5.64,5.64,0,0,1,246,208.35Z"/><path class="cls-3" d="M246,207.19h0a15,15,0,0,1,15,0L293.58,226a5.2,5.2,0,0,1,0,9h0a16.29,16.29,0,0,1-16.29,0L246,217A5.64,5.64,0,0,1,246,207.19Z"/><polygon class="cls-4" points="266.97 202.86 266.97 221.28 272.01 224.2 272.01 205.78 266.97 202.86"/><polygon class="cls-3" points="272.01 205.78 273.31 205.02 273.31 223.44 272.01 224.2 272.01 205.78"/><polygon class="cls-3" points="222.29 177.31 222.29 103.64 317.99 158.89 317.99 232.56 222.29 177.31"/><polygon class="cls-4" points="224.65 174.12 224.65 106.81 315.63 159.34 315.63 226.65 224.65 174.12"/><polygon class="cls-3" points="222.29 103.64 225.64 101.83 321.33 157.08 317.99 158.89 222.29 103.64"/><polygon class="cls-3" points="317.99 232.56 317.99 158.89 321.33 157.08 321.33 230.65 317.99 232.56"/><path class="cls-3" d="M319.68,37.08,261.59,4.41a2.28,2.28,0,0,0-2.07-.27l-.21.07-.21.07-.21.07-.21.07-.21.07-.21.07-.21.07-.21.07-.21.07-.21.07-.21.07L257,5,256.8,5l-.21.07-.21.07-.21.07-.21.07-.21.07-.21.07-.21.07-.21.07-.21.07-.21.07-.21.07-.21.07-.21.07-.21.07-.21.07-.21.07-.21.07c-1.35.37-2.29,2.23-2.29,5V64.07c0,3.94,1.86,8.24,4.15,9.6l8.26,4.89V94.73l.21-.19v.12l.21-.19v.12l.21-.19v.12l.21-.19v.12l.21-.19v.12l.21-.19v.12l.21-.19v.12l.21-.19v.12l.21-.19v.12l.21-.19V94l.21-.19V94l.21-.19v.12l.21-.19v.12l.21-.19v.12l.21-.19v.12l.21-.19v.12l.21-.19v.12l.21-.19v.12l.21-.19v.12l.21-.19v.12l.21-.19v.12l.21-.19v.12l.21-.19v.12l.21-.19v.12l.21-.19V93l.21-.19v.12l.21-.19v.12l.21-.19v.12l.21-.19v.12l.21-.19v.12l.21-.19v.12l6.82-6.13,38,19.9a2.28,2.28,0,0,0,2.07.27l.21-.07.21-.07c4.16-1.67,6.68-1.6,6.68-7V46.68C323.82,42.74,322,38.44,319.68,37.08Z"/><path class="cls-4" d="M314.65,39.24,255.12,6.56c-2.29-1.36-4.15.74-4.15,4.68V64.07c0,3.94,1.86,8.24,4.15,9.6l8.26,4.89V94.73L274.21,85l40.44,21.36c2.29,1.36,4.15-.74,4.15-4.68V48.84C318.8,44.89,316.94,40.6,314.65,39.24Z"/><g class="cls-8"><g class="cls-15"><path class="cls-16" d="M264.35,47.19l4-2.33c.18-.09.37-.17.55-.28l-4,2.32c-.18.11-.37.19-.55.28"/></g></g><g class="cls-8"></g><g class="cls-8"></g><path class="cls-3" d="M346.34,269.69c.12.41,9.9,3.17,9.9,3.17l2.26-1.3a1.05,1.05,0,0,0,.38-1.45l-4.94-8.22-8.06,6Z"/><path class="cls-3" d="M342.39,281.5,361,260a4.81,4.81,0,0,0-1.23-7.32l-16.15-9.33a6.33,6.33,0,0,0-7.94,1.34l-17.93,20.7a5.52,5.52,0,0,0,1.41,8.4l15.57,9A6.1,6.1,0,0,0,342.39,281.5Z"/><path class="cls-4" d="M341.15,279.68l18.61-21.49a4.81,4.81,0,0,0-1.23-7.32l-16.15-9.33a6.33,6.33,0,0,0-7.94,1.34l-17.93,20.7a5.52,5.52,0,0,0,1.41,8.4l15.57,9A6.1,6.1,0,0,0,341.15,279.68Z"/><path class="cls-3" d="M353.28,258.95l3.69-4.26a1,1,0,0,0-.24-1.45l-9.4-5.3a1.25,1.25,0,0,0-1.57.27l-3.55,4.1a1.09,1.09,0,0,0,.28,1.67l9.28,5.23A1.21,1.21,0,0,0,353.28,258.95Z"/><path class="cls-3" d="M324.8,271.06l4.87-5.63a1.26,1.26,0,0,0-.32-1.92l-4.23-2.44a1.66,1.66,0,0,0-2.08.35l-4.69,5.42a1.45,1.45,0,0,0,.37,2.2l4.08,2.35A1.6,1.6,0,0,0,324.8,271.06Z"/><path class="cls-3" d="M340.42,251.94l4.87-5.63a1.26,1.26,0,0,0-.32-1.92L340.74,242a1.66,1.66,0,0,0-2.08.35L334,247.73a1.45,1.45,0,0,0,.37,2.2l4.08,2.35A1.6,1.6,0,0,0,340.42,251.94Z"/><path class="cls-2" d="M341.93,243a2.09,2.09,0,0,1-.7.73,55,55,0,0,0-12.16,10.09c-5.32,6-7.83,12.7-4.73,15.73a2.14,2.14,0,0,0,1.76-1.17l1.29-2.56a1.83,1.83,0,0,0-.76-2.43l-1.65-.9a47,47,0,0,1,12.33-14.76c1.36.92,3.61,2.18,4.62,1.16l1.95-2.1a2.25,2.25,0,0,0-.35-2.84Z"/><path class="cls-4" d="M329.06,253.79a55,55,0,0,1,12.16-10.09,2.09,2.09,0,0,0,.7-.73l-4.11-2.44a2.22,2.22,0,0,0-2.16-.06c-11.52,5.93-17.52,17.65-19.52,22.27a2.37,2.37,0,0,0,1,3l5,3,1,.57a2.13,2.13,0,0,0,1.22.27C321.24,266.49,323.75,259.8,329.06,253.79Z"/><ellipse class="cls-2" cx="330.09" cy="270.47" rx="2.06" ry="1.62" transform="translate(-82.3 380.24) rotate(-54.24)"/><ellipse class="cls-2" cx="333.62" cy="272.37" rx="2.06" ry="1.62" transform="translate(-82.37 383.93) rotate(-54.24)"/><ellipse class="cls-2" cx="337.5" cy="274.72" rx="2.06" ry="1.62" transform="translate(-82.66 388.05) rotate(-54.24)"/><ellipse class="cls-2" cx="333.8" cy="265.45" rx="2.06" ry="1.62" transform="translate(-76.69 381.13) rotate(-54.23)"/><ellipse class="cls-2" cx="337.32" cy="267.35" rx="2.06" ry="1.62" transform="translate(-76.76 384.8) rotate(-54.23)"/><ellipse class="cls-2" cx="341.21" cy="269.69" rx="2.06" ry="1.62" transform="translate(-77.05 388.95) rotate(-54.24)"/><ellipse class="cls-2" cx="337.5" cy="260.42" rx="2.06" ry="1.62" transform="translate(-71.05 382.11) rotate(-54.24)"/><ellipse class="cls-2" cx="341.02" cy="262.32" rx="2.06" ry="1.62" transform="translate(-71.15 385.72) rotate(-54.23)"/><ellipse class="cls-2" cx="344.91" cy="264.67" rx="2.06" ry="1.62" transform="translate(-71.44 389.84) rotate(-54.23)"/><path class="cls-3" d="M136,48.5l48.45-27.25a1.9,1.9,0,0,1,1.73-.22l.17.06.17.06.17.06.17.06.17.06.17.06.17.06.17.06.17.06.17.06.17.06.17.06.17.06.17.06.17.06L189,22l.17.06.17.06.17.06.17.06.17.06.17.06.17.06.17.06.17.06.17.06.17.06.17.06.17.06.17.06c1.13.31,1.91,1.86,1.91,4.19V71c0,3.29-1.55,6.87-3.46,8L183,83.1V96.58l-.17-.16v.1l-.17-.16v.1l-.17-.16v.1l-.17-.16v.1l-.17-.16v.1l-.17-.16v.1l-.17-.16v.1l-.17-.16v.1l-.17-.16v.1l-.17-.16V96l-.17-.16v.1l-.17-.16v.1l-.17-.16v.1l-.17-.16v.1l-.17-.16v.1l-.17-.16v.1l-.17-.16v.1l-.17-.16v.1l-.17-.16v.1l-.17-.16v.1l-.17-.16v.1l-.17-.16v.1l-.17-.16v.1l-.17-.16v.1L178.6,95v.1l-.17-.16v.1l-.17-.16V95l-.17-.16V95l-.17-.16v.1l-.17-.16v.1l-.17-.16v.1l-5.69-5.11-31.68,16.6a1.9,1.9,0,0,1-1.73.22l-.17-.06-.17-.06c-3.47-1.39-5.57-1.33-5.57-5.81V56.51C132.54,53.22,134.09,49.63,136,48.5Z"/><path class="cls-2" d="M140.19,50.3,189.84,23c1.91-1.13,3.46.62,3.46,3.91V71c0,3.29-1.55,6.87-3.46,8L183,83.1V96.58l-9-8.12-33.73,17.81c-1.91,1.13-3.46-.62-3.46-3.91V58.3C136.73,55,138.28,51.43,140.19,50.3Z"/><path class="cls-17" d="M175,60.95c0,1.73.81,2.65,1.82,2.05s1.82-2.48,1.82-4.21-.81-2.65-1.82-2.05S175,59.22,175,60.95Z"/><path class="cls-17" d="M164.19,67.33c0,1.73.81,2.65,1.82,2.05s1.82-2.48,1.82-4.21S167,62.53,166,63.12,164.19,65.6,164.19,67.33Z"/><path class="cls-17" d="M153.43,73.71c0,1.73.81,2.65,1.82,2.05s1.82-2.48,1.82-4.21-.81-2.65-1.82-2.05S153.43,72,153.43,73.71Z"/><path class="cls-3" d="M57.39,110,95.7,88.43a1.51,1.51,0,0,1,1.36-.18l.14,0,.14,0,.14,0,.14,0,.14,0,.14,0,.14,0,.14,0,.14,0,.14,0,.14,0,.14,0,.14,0,.14,0,.14,0,.14,0,.14,0,.14,0,.14,0,.14,0,.14,0,.14,0,.14,0,.14,0,.14,0,.14,0,.14,0,.14,0,.14,0,.14,0c.89.25,1.51,1.47,1.51,3.31v34.84c0,2.6-1.22,5.44-2.73,6.33l-5.45,3.23V148l-.14-.12V148l-.14-.12v.08l-.14-.12v.08l-.14-.12v.08l-.14-.12v.08l-.14-.12v.08l-.14-.12v.08l-.14-.12v.08l-.14-.12v.08l-.14-.12v.08l-.14-.12v.08l-.14-.12v.08l-.14-.12v.08l-.14-.12v.08l-.14-.12v.08l-.14-.12v.08l-.14-.12v.08L92,147.1v.08l-.14-.12v.08l-.14-.12v.08l-.14-.12V147l-.14-.12V147l-.14-.12V147l-.14-.12v.08l-.14-.12v.08l-.14-.12v.08l-.14-.12v.08l-.14-.12v.08l-.14-.12v.08l-.14-.12v.08l-.14-.12v.08l-4.5-4L60.7,155.67a1.51,1.51,0,0,1-1.36.18l-.14,0-.14,0c-2.74-1.1-4.41-1.05-4.41-4.6V116.32C54.65,113.71,55.88,110.88,57.39,110Z"/><path class="cls-4" d="M60.7,111.41,100,89.86c1.51-.9,2.73.49,2.73,3.09v34.84c0,2.6-1.22,5.44-2.73,6.33l-5.45,3.23V148l-7.15-6.42L60.7,155.67c-1.51.9-2.73-.49-2.73-3.09V117.74C58,115.14,59.19,112.3,60.7,111.41Z"/><path class="cls-3" d="M87.4,106.39A3.59,3.59,0,0,0,86,108.55L84.3,113.9c-.79,2.9,1.66,2.13,1.62,3.44,0,.85-1.86,4.51-2.28,5.3a36.7,36.7,0,0,1-5.14,7l-.18.13c-.63.36-1.16-.23-1.46-.42-.92-.59-1.23-1-1.75-.71a4,4,0,0,0-.9.88l-3.79,4.54c-1.46,1.86.52,4,2,4.09a5.47,5.47,0,0,0,2.93-.88c6.64-3.84,15.53-19.21,16.33-26.35C91.94,108.34,89.33,105.27,87.4,106.39Z"/><path class="cls-3" d="M413.91,126.47,370.35,102a1.71,1.71,0,0,0-1.55-.2l-.16.05-.16.05-.16.05-.16.05L368,102l-.16.05-.16.05-.16.05-.16.05-.16.05-.16.05-.16.05-.16.05-.16.05-.16.05-.16.05-.16.05-.16.05-.16.05-.16.05-.16.05-.16.05-.16.05L365,103l-.16.05-.16.05-.16.05-.16.05-.16.05-.16.05c-1,.28-1.71,1.67-1.71,3.76v39.62c0,3,1.39,6.18,3.11,7.2l6.19,3.67V169.7l.16-.14v.09l.16-.14v.09l.16-.14v.09l.16-.14v.09l.16-.14v.09l.16-.14v.09l.16-.14v.09l.16-.14v.09l.16-.14v.09l.16-.14v.09l.16-.14v.09l.16-.14v.09l.16-.14V169l.16-.14V169l.16-.14v.09l.16-.14v.09l.16-.14v.09l.16-.14v.09l.16-.14v.09l.16-.14v.09l.16-.14v.09l.16-.14v.09l.16-.14v.09l.16-.14v.09l.16-.14v.09l.16-.14v.09l.16-.14v.09l.16-.14v.09l.16-.14v.09l.16-.14v.09l.16-.14v.09l5.11-4.6,28.49,14.93a1.71,1.71,0,0,0,1.55.2l.16-.05.16-.05c3.12-1.25,5-1.2,5-5.23V133.67C417,130.71,415.63,127.49,413.91,126.47Z"/><path class="cls-4" d="M410.14,128.09l-44.65-24.5c-1.72-1-3.11.55-3.11,3.51v39.62c0,3,1.39,6.18,3.11,7.2l6.19,3.67V169.7l8.13-7.3,30.33,16c1.72,1,3.11-.55,3.11-3.51V135.28C413.25,132.33,411.86,129.1,410.14,128.09Z"/><path class="cls-3" d="M386.5,148.93a7,7,0,0,1,3.19,5.52c0,2-1.43,2.85-3.21,1.83a7,7,0,0,1-3.19-5.52C383.3,148.72,384.74,147.91,386.5,148.93Z"/><path class="cls-3" d="M387,127.29c4.25,2.45,7.82,7.24,7.8,12.39,0,3-1,4.3-4.33,5.39a1.82,1.82,0,0,0-1.37,2v1.16l-5.22-3v-1.76c0-1.6.36-2.43,1.23-2.89,2.58-1.35,4.46-1.59,4.47-3.42a5.05,5.05,0,0,0-2.5-4.25c-2.15-1.24-3.31-.31-3.45,1.57l-5.35-3.49C378.8,125.58,382.19,124.5,387,127.29Z"/></svg>