<svg id="OBJECTS" xmlns="http://www.w3.org/2000/svg" xmlns:xlink="http://www.w3.org/1999/xlink" viewBox="0 0 500 500"><defs><style>.cls-1{fill:#f3f8ff;}.cls-19,.cls-2{fill:#1ba5b8;}.cls-16,.cls-3{fill:#012d41;}.cls-20,.cls-4{fill:#daecf3;}.cls-5{fill:#aaa;}.cls-6{fill:#696e70;}.cls-26,.cls-7{fill:#193068;}.cls-8{fill:url(#Безымянный_градиент_10);}.cls-9{fill:#f2f2f2;}.cls-10,.cls-18{fill:#fff;}.cls-11{fill:#212525;}.cls-12{fill:url(#Безымянный_градиент_10-2);}.cls-13{fill:#1c1e1f;}.cls-14{fill:url(#Безымянный_градиент_10-3);}.cls-15{fill:#f5dccb;}.cls-15,.cls-16,.cls-17,.cls-18,.cls-19,.cls-20,.cls-23,.cls-26{fill-rule:evenodd;}.cls-17,.cls-29{fill:#ffbba6;}.cls-21{opacity:0.2;}.cls-22{opacity:0.05;}.cls-23{opacity:0.1;}.cls-24{fill:url(#Безымянный_градиент_10-4);}.cls-25{fill:url(#Безымянный_градиент_10-5);}.cls-27{fill:#ff404e;}.cls-28{fill:#1b93b8;}.cls-30,.cls-31{fill:none;stroke:#012d41;stroke-miterlimit:10;stroke-width:0.5px;}.cls-31{stroke-linecap:round;}</style><linearGradient id="Безымянный_градиент_10" x1="336.09" y1="226.93" x2="403.71" y2="194.09" gradientUnits="userSpaceOnUse"><stop offset="0" stop-color="#fff"/><stop offset="1" stop-color="#daecf3"/></linearGradient><linearGradient id="Безымянный_градиент_10-2" x1="205.09" y1="148.21" x2="272.71" y2="115.36" xlink:href="#Безымянный_градиент_10"/><linearGradient id="Безымянный_градиент_10-3" x1="106.3" y1="202.03" x2="173.92" y2="169.19" xlink:href="#Безымянный_градиент_10"/><linearGradient id="Безымянный_градиент_10-4" x1="241.73" y1="277.36" x2="309.35" y2="244.51" xlink:href="#Безымянный_градиент_10"/><linearGradient id="Безымянный_градиент_10-5" x1="375.4" y1="357.63" x2="443.02" y2="324.78" xlink:href="#Безымянный_градиент_10"/></defs><title>Mesa de trabajo 1</title><path class="cls-1" d="M496.19,354.93c.57-.06,1.33-.72,1.81-.12a4.68,4.68,0,0,1-1.81,2.6c-.4.23-.92.14-1.33.37-.79.42-1.21,1.49-1.9,2.23a27.79,27.79,0,0,1-2.19,1.86c-.65.55-1.59,1.67-2.38.86.06-1.45,1.25-1.43,1.53-2.6,0-.86-.59-1-.57-1.85,1.32-1.5,3.39-2.58,3.71-5.68.14-1.37-.72-4.32.57-4.45,1.52-.15.66,2,.76,3.09,0,.45.39.76.57,1.36C495.27,353.66,495.24,354.65,496.19,354.93Z"/><path class="cls-1" d="M487,362.34c-.53,2.06-2.84,3.14-4.38,4.45-.47.4-.85,1.32-1.43,1.6-.74.38-1.59.26-2.38.74-1.26.77-2.2,2.27-3.33,3.22s-2.72,2.22-4,2.35-4-1-2.28-2.72a23.51,23.51,0,0,1,3.14-2.1c2.7-1.77,6.51-3,8.75-5.07,1.27-1.2,2.41-2.47,3.62-3.46C485.28,360.86,486.3,362.2,487,362.34Z"/><path class="cls-1" d="M470.51,279.65c.3-.11.3.19.48.25-.12,1.77-.93,2.92-2.67,2.72-.78-.09-2.13-.85-2.19-1.36C465.94,279.48,469.64,280.58,470.51,279.65Z"/><path class="cls-1" d="M465.85,288.06c.69.25,3.74,3.06,2.76,4.32-.53.7-1.22-.37-2.09-.62-1.17-.33-2.06.07-2.85-.74s-1.12-2.93-2.1-4.08a3.73,3.73,0,0,0-2.66-1.24c-1.51.21-1.5,2.46-2.85,3.46-1.3-.18-2.07.31-3-.13s-1.54-2.19-2.47-2.34-3.25,2-3.61.12c-.29-1.54,1.6-2,1.71-3.09a5.68,5.68,0,0,0-1.14-3.22c-.4-.47-1-.51-1.43-.86s-.86-1.1-1.43-1.48c-2-1.35-5-.8-5.8-3-.14-.38.07-.81-.1-1.36s-1-.9-1.24-1.48c-.68-1.51-.2-3.73,1-4s3.09,1.47,3.33,2.48c.13.53-.09,1.12,0,1.73s.95,2.52,1.71,2.59c1,.11,1.57-1.87,2.47-2.59a4,4,0,0,1,2.48-1c.81.08,1.35.91,2.28,1.36.67.32,1.49.45,2.28.74s1.29.78,2,1.11c2.27,1.07,5,1.69,6.18,3.59.33.52.33,1.28.76,1.85s2.6,1,2.66,2.23c0,.9-.91,1-.95,1.85C463.57,286.15,465.52,286,465.85,288.06Z"/><path class="cls-1" d="M445.77,362.1a8.16,8.16,0,0,1-2.38,4.33c-.86.78-3.59,2.34-3.9.13a18.35,18.35,0,0,1,.76-4.08c.67-1.73,1.39-.6,2.47-.37S444.89,361.22,445.77,362.1Z"/><path class="cls-1" d="M438.35,182.37c.39,1.48.65,2.94,1,4.33-1.05,1.7-3.12,1.07-4.66,2-.72.43-.92,2-1.62,2.23s-1-.63-1.52-.62c-1.37,0-2,3-3.71,2.23-1,.74,0,3.59-1.14,3.83-.84.17-1.3-1.24-1.81-2.1-.62-1-1.49-1.62-1.52-2.47s1.36-2.35,1.8-3,1.6-2.15,2.28-2.35c1.27-.36,2.56.16,3.52-.37s.88-2.17,1.33-2.6.82-.27,1.14-.49a5.21,5.21,0,0,0,1.33-4.94c-.32-1.38-2.08-2.89-.95-4.58A5.87,5.87,0,0,1,438,178c.11.85-.25,1.7-.19,2.59A13.75,13.75,0,0,0,438.35,182.37Z"/><path class="cls-1" d="M438.74,168.89c-.21.63-.64.5-1,.86s-.85,1.49-1.33,1.61c-.76.19-1.62-1-2.38-.74s-.37,1.16-.66,2.22a3.22,3.22,0,0,1-2.09-2.47c0-.71.69-1.15.86-2,.28-1.41-.45-2.13-.86-3.46,0-.2.09-.21.09-.37.93-.25,2.76,2,4.85,2.47C437.52,167.33,438.66,167.17,438.74,168.89Z"/><path class="cls-1" d="M435.22,294.36c.1,1-1.28.91-1.43.24C433.82,293.81,435,293.56,435.22,294.36Z"/><path class="cls-1" d="M428.56,158.51c.94.65,3.22,2.11,1.62,3.46A3.32,3.32,0,0,1,428.56,158.51Z"/><path class="cls-1" d="M424.18,288.92c1.09-.77,2.28-2.46,4.18-1.61-.42,1.54-1.85,1.51-2.76,2.23s-1.69,2-2.85,2.1a1,1,0,0,0-.38-.5C422.37,289.76,423.43,289.45,424.18,288.92Z"/><path class="cls-1" d="M421.62,265.68c1.12,0,2.17-.45,2.94.12-.14,3.09-3.83.74-6.27,1.24-.52.1-.67.63-1.24.37a2.4,2.4,0,0,1,1.81-2.22C419.55,265.09,420.59,265.68,421.62,265.68Z"/><path class="cls-1" d="M422.56,269.51c.11,1.71-1.69,1.9-2.19,3.22.79,1.57,1.1,3.76,2,5.19,0,.94.15,2.18-.29,2.6-1.91.48-2.94-4-3.71-5.56-1.46.36-.13,6.44-2.09,5.69-1-.37,0-2.11-.19-3.46-.18-1.19-1.07-1.43-1.14-2.35-.06-.76.65-1.57.86-2.35.3-1.12.11-3.28,1.14-3.33.51,0,1.19,1.39,1.52,1.48C419.61,270.94,421,269.12,422.56,269.51Z"/><path class="cls-1" d="M419,287.93c-.35.94-2.31.49-2.47-.37C416.91,286.59,418.88,286.88,419,287.93Z"/><path class="cls-1" d="M417.24,290.9a2.86,2.86,0,0,1-.38.5c-.72-.3-1.49-.53-1.71-1.48C415.68,288.89,417.21,289.73,417.24,290.9Z"/><path class="cls-1" d="M414.67,287.81c-.48.89-2.16-.07-2.76.86-1,0-2,0-2.19-1.11.29-.9,1.19-.28,1.9-.37C412.77,287.05,414.36,286,414.67,287.81Z"/><path class="cls-1" d="M401.26,335.15a32.26,32.26,0,0,0-.67-3.21c0-.42,0-1,0-1.49a14.13,14.13,0,0,1-.29-1.85c.13-.82.87-.91,1-1.61.3-1.15-.36-1.34-.38-2.72,0-1,.57-1.45,1-2.72.18-.59.18-1.68.38-2.1s1.3-1,1.71-1.23c1.46-.93,2.63-2.66,4.09-3,.37-.08.87.06,1.14,0,.86-.2,1.95-1.14,3.14-1.48s2.17-.21,3-.87a9.76,9.76,0,0,0,2.66-3.71c.43-1.36.31-2.5,1.14-3,.41-.22.81,0,1.24-.12a5.5,5.5,0,0,0,1.71-1.11c.66-.77.77-2,1.52-2.84a13.58,13.58,0,0,1,2.19-1.85,3.09,3.09,0,0,1,1.52-.5c1.34.15,2,2.58,3.43,2.1.52-.17,1.05-1.61,1.53-2.47.69-1.26,1.18-3,2.38-3.34,1-.31,2,.48,2.57-.62.12-.78-.45-1.25,0-1.73,1.11.09,3,2,4.66,2.1.9,0,2.58-1.28,2.76.5.08.79-.68,1.42-.86,2.23-.13.57.19.87-.1,1.48-.77.4-1.59.6-1.62,1.73,0,1.41,1.53,2.07,2.47,2.85.64.53,1.18,1.34,1.52,1.6s.76.33,1,.49c.62.52,1.05,1.7,1.91,1.73s1.93-1.57,2.47-3.09a32.05,32.05,0,0,0,.95-5.81c.1-.62.44-1.23.57-1.85.37-1.69.87-4,2-4.57,1.14,1.56,1.52,4.6,1.34,7.17.76.75,2.1.5,2.28,2.23.06.6-.23,1.36-.19,2,.06,1,.66,2,.76,2.84.19,1.65-.21,3,.38,4.2.74,1.51,2.2,1.46,3.14,3.09a7.15,7.15,0,0,0,.48,2.22c.09.38,0,1,.1,1.24.3.83,1.13.91,1.43,1.6.15.34.11,1,.29,1.61a15.32,15.32,0,0,0,1.33,2.47,11.9,11.9,0,0,1,1.24,2.47c.19,1.23-.5,2.08-.67,3.09-.2,1.23,0,2.82-.38,4.08-.44,1.49-1.53,2.95-2.38,4.82a16.41,16.41,0,0,1-2.66,4.33c-.6.62-1.31,1-1.9,1.61a33.91,33.91,0,0,0-2.47,3.34c-.86,1.18-1.89,2.08-2.57,3.09-1,1.47-1.46,3.84-3.14,4.08a7.9,7.9,0,0,0-2.76.5c-1.41.73-2.34,2.07-3,2.1s-1.41-1.12-2.1-1.24-1.36.75-2.47.74c-.45,0-.68-.35-1.33-.62-1.36-.56-2.85-.54-3-2.47-.11-1.05.52-1.53.47-2.47s-.75-1.18-1-2a2.46,2.46,0,0,0-.48-2.47A3,3,0,0,1,436,345a11.31,11.31,0,0,0-1.9,1c-.69.54-1.19,1.79-2,1.6-.75-.34-.18-1.31-.29-2.1a5.62,5.62,0,0,0-4.85-5.2c-2.94-.6-4.81,1.45-7.14,1.74-.6.07-1.24-.13-1.8,0-1.91.43-4,2.41-5.23,3.71-2,.25-4-.52-6,.25s-3.17,2.95-6.27,2.34c-.62-.69-1.71-1-1.71-2.22,0-.94,1.07-1.55,1.43-2.23a10.36,10.36,0,0,0,1-3.46c0-.82-.43-1.8-.38-2.84C400.91,336.82,401.26,336,401.26,335.15Z"/><path class="cls-1" d="M399.64,283.6c.52-.09.91-.59,1.43-.61,1.11-.06,2.21,1.06,3.52.86.29.4.09.73.1,1.36,1.11.77,2.94.63,3.52,2.1-.83,1.15-2.07.32-3.14.12s-2-.09-3-.25c-1.33-.2-2.53-1.16-3.8-1.36-.77-.13-1.56.14-2.28,0s-4-1.74-4.09-2.84,1.44-1.46,2.76-1.24C396.3,282,397.45,284,399.64,283.6Z"/><path class="cls-1" d="M402.2,275.08c-.72-.26-1.39-.12-1.71-.37-.65-.52-.56-2-.76-2.84s-1-1.31-1.42-2.47c-.62-1.69-.89-5.46.76-5.81.66-.14,1.35.52,1.81.37.92-.29.76-1.84,1.52-2.48.42-.36,1.2-.21,1.81-.49a4.65,4.65,0,0,0,1.52-1.73,10.13,10.13,0,0,1,1.24-2.1c.59-.51,1.14-.52,1.62-1,1.25-1.24,1.29-3,2.28-4.45.85-1.26,2.18,1.21,2.28,2.23.47.79,1.4,1,1.81,1.85-.56,2.18-2.14,2.36-1.81,5.44a10.65,10.65,0,0,0,.57,2.1c.27.72,1.08,1.5,1,2-.06.92-1.49.88-1.81,1.85s0,1-.09,2.35c-.4,1-1.47,1.25-1.81,2.48-.4,1.47.06,3.37-.85,4.45-.63,0-1.32.71-2.09.61s-1.63-1.59-3-1.61c-.5,0-1.1.42-1.62.37S402.8,275.29,402.2,275.08Z"/><path class="cls-1" d="M396.05,272.33c2.42,0,2.42,4.88,0,4.88S393.63,272.33,396.05,272.33Z"/><path class="cls-1" d="M392.5,271.74a5.35,5.35,0,0,1,1.33,2.47c0,.87-1,.82-1.33,2-.45,1.78.2,3.79-.57,4.7-.43.34-1.21.24-1.9.24a32.71,32.71,0,0,1-4.57-5.56,13.22,13.22,0,0,1-1.52-2.23c-.49-1.18-.67-2.48-1.23-3.58s-1.41-1.66-1.9-2.72c-.4-.87-.44-2-.85-2.84s-1.06-1.11-1.53-1.73c-.3-.41-.48-1-.76-1.48-1.2-1.86-3.5-2.83-3.61-5.56.49-.72,1,.27,1.9.5.59.14,1.29-.06,1.71.12.86.38,1.46,2.13,2.38,3.09.51.54,1.18.91,1.71,1.48s1,1.5,1.43,1.85c.62.49,1.48.82,2.28,1.49,1.1.91,3.06,1.85,3.33,3.71.06.46-.17,1.24-.1,1.6.13.65.76.93,1.14,1.48s.56,1.72,1.24,1.86S391.78,271.61,392.5,271.74Z"/><path class="cls-1" d="M347.6,245.78c.82.35,3.55,4.67,2.76,7a2.08,2.08,0,0,1-2.09,1.36c-1.88-.39-1.52-5.83-1-8A.58.58,0,0,1,347.6,245.78Z"/><path class="cls-1" d="M284.34,308.33a6.36,6.36,0,0,1,1.24-3.22c.88-.85,2.06-.76,2.95-1.36a8,8,0,0,0,2.28-2.23c.46-.77.48-1.65.86-2.23.25-.4.83-.5,1.14-1s.22-1.25.67-1.73c1.32-.73,1.7,2.41,1.9,4.57.06.67.33,1.4.28,1.73-.14,1-1,1.19-1.23,1.86a24.57,24.57,0,0,1-1.62,7.29c-.63,1.92-1,4-1.52,5.69-.19.6-.59,1.07-.76,1.6-.69,2.1-.94,5.41-2.19,6.31a8.17,8.17,0,0,1-2.66.86A3,3,0,0,1,283.2,324c-.16-.7,0-1.44-.1-2.23a13.18,13.18,0,0,1-.48-3c.21-2.52,2.1-3.74,2.19-5.81C284.89,311.46,284.21,309.91,284.34,308.33Z"/><path class="cls-1" d="M238.49,132.43c.11,2.07-2.44,1.81-2.76,3.59-.14.8.3,1.87.19,2.59-.19,1.3-1.16.92-2.38,1.61-.62.35-1.23,1.64-1.9,1.73s-1-.47-1.43-.37c-.62.15-.42,1.15-1.33,1.36-.73.17-2-.85-2.09.37-.06.78,1.15,1.21,1.9,1.11.6-.07,1-.61,1.62-.62,1.13,0,1.86,1.09,2.57,1.11,1.63.06,3.24-2,4.95-1.73.77.1,1.23.81,1.81.74.92-.11,1.7-1.49,2.38-2-.29-2.08,0-4.83,1.52-4.94,1-.08,2.57,2.28,2.76,0a1.77,1.77,0,0,0-1.43-1.85c-.55,0-1.27,1.41-1.71.25,0-1.13,1-.83,1.52-1.11s.69-.78,1.14-1c2.26-1,5.4,1,6.28-1.48-2-2.23-5.43.81-7.71.62a3.24,3.24,0,0,1-2.57-2.23c-.1-.38,0-.89-.1-1.6s-.4-1.62-.38-2.1c.1-2.23,4.37-2.65,4.37-5.44-.82-1-3.21-.85-4,.25-.28.39-.27,1.19-.67,2-.85,1.69-3.61,1.89-4.47,4a5.56,5.56,0,0,0-.38,2.47C236.43,130.88,238.43,131.2,238.49,132.43ZM215.85,253.32c-2.74-.52-5.54.91-7.42,2-1.08.62-2.19,1.55-3.14,1.61s-1.79-.62-2.66-.74a11.31,11.31,0,0,0-3.71.25c-1.09.25-2.08,1.27-3,1.36-1.85.18-3.6-2.16-4.76-3.34-.71-.72-1.43-1.31-2.09-2s-1.63-1.16-2.19-1.85c-.75-.94-.75-2.58-1.14-3.83-.46-1.47-1.87-2.56-2.95-4-.81-1-2.65-2.61-2.85-4-.1-.69.23-1.48.19-2.23-.05-1.08-.68-1.7-.67-2.47,0-1.09,1-1.93,1.24-2.84.12-.47.06-1.13.19-1.73.27-1.25.91-2,.76-3.83-.06-.73-.54-1.4-.57-2.35,0-.65.33-1,.29-1.61-.07-1.06-1.13-1.26-1.24-2.47s.92-2.29,1.52-3.71c.27-.64.42-1.61.67-2.1.53-1.05,1.4-1.56,1.81-2.6.3-.76.39-1.9.67-2.47.35-.74,1-1.13,1.71-2.1.54-.79.76-1.75,1.14-2.1a8.33,8.33,0,0,1,1.71-.86,8.64,8.64,0,0,0,3.9-4.58,6.32,6.32,0,0,1,.76-4.2,7.64,7.64,0,0,1,2-3.22c1.19-.87,2.31-1,3.14-2.59a9,9,0,0,0,1-3.09c0-1.22-1-2.79-1.81-3s-2.18.85-2.66-.37a10.41,10.41,0,0,1,0-1.73c-.11-.81-.64-1.38-.67-2,0-1.16.88-2.37,1.14-3.71.36-1.82,0-3.22-.1-5.32,1.33-2.73,4.29-1.37,7.23-1.11.44,0,.95-.14,1.43-.12,1.75.05,3.12.74,3.71-1.24a17,17,0,0,0,.29-4.2,9.78,9.78,0,0,0-2-3.46c-.94-.78-2.31-.44-2.85-1.85.44-2.44,2.54-.41,3.8-1,.64-.3.57-1.75,1.14-2,.39-.16.89.51,1.43.5a8.85,8.85,0,0,0,2.57-1.49c.61-.53.79-1.64,1.33-2.1.36-.31.84-.27,1.24-.49a7.57,7.57,0,0,0,2.38-2.23c.79-1.22,1.14-2.74,2.09-3,1.28-.3,4.16.33,4.38-1.49s-1.17-3.08-.67-4.94c.4-1.47,1.41-1.21,2.85-2.1.69.64.49,2.47.57,3.59.88,0,2.68-.34,2.85-1.36.21-1.27-1.29-2.57-1.62-3.34s-.43-2.3-1.14-2.47c-1.45-.36-2.86,2.59-4.66,2.59a3.29,3.29,0,0,1-2.76-2.35,13.12,13.12,0,0,1-.1-2,11.3,11.3,0,0,1-.38-3.46c.73-1.62,2.41-1.89,3.62-2.72.46-.32.82-1,1.33-1.24.85-.41,2.11,0,2.95-.62.53-.39.38-1.06.76-1.85.24-.5.82-.79,1.14-1.36.22-.4.25-1,.48-1.36.83-1.34,2.33-1.83,2.95-3.21.27-.61-.47-.84-.28-1.73s1.49-.23,2.19-.37c.95-.19,1.82-1.69,2.85-2s2.23-.12,3.24-.62c.6-.3,1.15-1,1.71-1.11.2,0,.76.14,1,.12s.75-.31,1.24-.37a21.83,21.83,0,0,1,2.47.25c1.5,0,2.93-.59,4.18.12.65.37.58,1.34,1.43,1.73.43.2,1-.08,1.62,0,.93.12,1.9,1,3.14,1.11.44.06.89-.07,1.33,0a19.6,19.6,0,0,1,4.19,1.73c1.11.49,3.48,1.1,3.52,2.47.05,1.63-2.05,2.1-2.95,2.1-1.5,0-3.48-1.14-5-.49,0,2.8,2.35,4.91,4.47,4.57.19-1.31-1.2-.58-1-1.85.95-.93,2.08.62,3.43.37.52-.18.43-1.17.57-1.85,1.13-.89,2.55-2.2,4.28-1.24a1,1,0,0,1,.38-.49c.11-1.36-1.14-2.07-.48-3.34.33-.88,2.1-.57,2.38.12s-.44.75-.38,1.48a1.49,1.49,0,0,0,1.52,1.11c.93-.07,1.12-1.15,2-1.73.36-.23.88-.26,1.33-.49s1-.84,1.43-1,.8,0,1.24-.12,1.16-.74,1.62-.74,1,.86,1.71,1c.4.07.85-.29,1.43-.37s.95.07,1.33,0c.91-.17,1.53-.79,2.28-.74.53,0,1.44,1,1.81.5.62-.79-.82-1.38-.38-2.1,1.46.14,3,.1,4.47.37,2.17.4,4.22,1.8,6.18,1.85-.18-1.72-1.7-1.22-2.38-2a8.09,8.09,0,0,1-1-2.6,16.4,16.4,0,0,1,1.33-3c.84-1,3.59-1,4.37.37.54.95.36,2.38,1.14,2.35s1-2.17,1.81-2.23,1,1.38,1.62,1.36,1.34-1.93,2.38-2c.56,0,.75.37,1.62.49.6-.5-.2-1.15.1-1.85,1.06-1,3.49-.24,4.85-.86.38-.59-.48-1-.09-1.61,1.17-1.06,3.14-1.16,5.14-1.6,1.22-.27,2.37-1.37,3.33-1.49s2,.76,2.85.74a4.3,4.3,0,0,0,1.71-.49c.54-.27.9-.95,1.43-1.11.83-.27,1.89.13,2.85,0s1.92-.65,2.66-.49,1.25,1.1,1.9,1.24c2,.41,4.07-.39,5.9.25.33.12.66.56,1,.74,1.22.58,2.06.4,2.28,2.35,1,.44,1.53,1.59,2.66,2,.76.26,1.52-.12,2.38-.12a20.61,20.61,0,0,1,3.52.25c.55.11,1,.63,1.52.74s.89-.05,1.33,0a14.41,14.41,0,0,0,1.62.37c1,0,1.75-1.2,2.57-1.36a5.25,5.25,0,0,1,1.43.25c1.6.18,3.45-.27,4.76.13a9.15,9.15,0,0,1,2.66,2c.56.56.9,1.44,1.43,1.85a4.49,4.49,0,0,0,2.28,1c.61-.12.63-1,1.23-1.36,1.89-.55,5.24.78,6.76-.12.59-.35.47-1.16,1-1.61a83.5,83.5,0,0,1,8.37.25,16.77,16.77,0,0,1,2.76-.12c.94.21,1.63,1.44,2.57,1.85.62.28,1.72.13,2.66.37.63.16,1.15.65,1.62.74a10.15,10.15,0,0,0,3-.25c2.18-.23,5-.38,7.13.74,1.14.6,1.62,1.8,2.85,2,1.76.25,4.48-.19,6.28,0a8.86,8.86,0,0,0,1.14.25c.6-.06,1-.72,1.71-.74.94,0,2.44,1.91,3.81,1.61.59-.52-.47-1.24.09-1.73s1.27,0,2.1,0c.45,0,1-.3,1.43-.25,1,.12,2,1.34,3.33,1.73a9.19,9.19,0,0,0,3.71.25,8,8,0,0,1,2.57-.37c.42.08.8.47,1.23.62s.8,0,1.14.12.63.5,1,.62c1.77.66,4.12,1,6,1.73,1.1.44,2.22,1.33,3.14,1.36.45,0,.85-.25,1.43-.25,2.87,0,6.25,1.58,6,5.07-3.36,1-6.18-3-9.7-1.85a1.9,1.9,0,0,0-1.14,1.73c.13,2.15,4.31,2,4.66,4.08-.68.67-1.43,0-2,.12a6.63,6.63,0,0,0-2.85,2c-.64.78-1.21,2.79-1.9,3-.85.22-2.15-1.09-3.43-.74-.47.13-.92.89-1.33,1-1,.26-2.39-.74-3,.87.35,1.13.13,2.7.85,3.34.46.41,1,.09,1.62.37s1,1.38,1.61,2,1,.5,1.24,1.11c.06.91-.28,1-.19,1.61.15,1,1.4,1.27,1.43,2,0,.89-.79.7-.95,1.61-.06.57.51.73.57,1.48,0,.51-.31,1-.28,1.61,0,.82.54,1.37.47,2.1a1.89,1.89,0,0,1-.86,1.36c-1.82-1.52-3.46-3.61-5.42-5.56s-5.19-4.45-5.52-8.65c0-.64,1-1.15,1.24-2.1.08-.39-.12-.95-.09-1.48.07-1.45,1-2.85,1-3.71a5,5,0,0,0-2.09-3c-.55.38,0,1.13-.1,1.73a2.18,2.18,0,0,1-1.43,1.73c-1.8.2-2-3-4.85-2.1a3.3,3.3,0,0,0-1.52,3.46c.08.54,1.22,1.12,1.14,1.85s-2.59.92-3.14.87c-1.53-.16-2.32-1.65-3.71-1.61-.68,0-1.28.74-1.81.86-3,.71-7.44-1.92-8.46,1.48-.15.48-.06,1.11-.19,1.61-.18.71-.62,1.28-.76,1.73s-.1,1.13-.29,1.73-2,2.65-.38,3.22c.38.13.56-.21,1-.12.82.14,2.18,1.85,3.14,1.85.57,0,1.37-.84,1.81-.86.88-.06,1.52.68,2.19,1.11s1.62,1.27,2.1,1.24c.9-.06.47-.87,1.33-1.24,1.65.63,2.42,2.9,4,4.7.57.65,1.42,1.21,2.19,2.1.43.5,1.75,1.84,1.81,2.47s-.37.84-.48,1.36c-.15.75.21,1.3-.19,1.85-1.52-.73-1.86-2.67-2.95-4.33-.4-.61-.81-1.35-1.42-2.23-.28-.4-1.29-1.79-1.91-1.48-1.2.59.66,2.95,1,3.46a9.72,9.72,0,0,1,1.53,3.71c0,.74-.37,2.08-.38,3.34,0,.85.17,1.63.1,2.35a19.48,19.48,0,0,1-.67,2.35c-.22.91-.27,2-.47,2.59-.37,1.11-1.61,2.43-2.48,2.47s-1.13-.79-1.9-.74c-1.17.07-1.39,1.47-2.09,2.59a10.45,10.45,0,0,1,.19,2.47c-.26,1.31-1.66,1.54-1.62,2.84s1.28,1.44,1.9,2A18.44,18.44,0,0,1,419.9,183a8,8,0,0,1,1.24,3.46c-.07,1.22-2.78,2.92-3.9,2.47s-.7-1.75-.95-3c-.19-.94-.76-1.34-1-2.1-.15-.4-.08-1-.29-1.48-.57-1.26-1.58-.57-2.76-1.36-.78-.52-.55-1.61-.85-2.6a2.93,2.93,0,0,0-3.52-1.6c-1,.26-1.34,1.37-2.28,1.6-1.4-1.07.29-3.72-1.43-4-1.31-.18-2.18,2.45-3,3.21-.52.52-1.46.62-1.52,1.36-.11,1.36,1.11,1.09,2.09,1.61s1,1.79,1.81,1.85,1.13-.91,1.81-1a4,4,0,0,1,2.85,1.11c-.48,1.5-3,2.6-3,4.57,0,1.15,1,1.34,1.81,2.1s1.54,2.45,2.47,3.71c.4.54,1.06.9,1.24,1.24.44.82.37,1.81.85,2.35.08.68-.24.84-.19,1.48.24.89,1.29.72,1.52,1.61-.19,2.13.49,4.14-.86,4.94-.62,3.82-1.32,6.81-3.33,8.9-1.81,1.87-4.2,2.42-6.38,3.34-.57.24-1,1-1.52,1.24-1.27.56-3.52.22-3.61,2.23-.05,1,1,1.59,1,2.59.12,1.55-.95,3.11-1.71,3.21a1.77,1.77,0,0,1-1.81-1.73c-.07-1.47,1.41-2.08,1.52-3a2.55,2.55,0,0,0-2.47-3c-1.26.12-4.11,3.4-4.18,5.19-.06,1.34,2,4.13,2.76,4.94,2.67,3.06,5.51,4.89,5,12.36-.67,1.89-2.37,2.29-3.71,3.34-1,.79-1.52,3.25-3.24,3.46-.69-.31-.29-1.7-.48-2.35-.26-.89-1.62-1.32-2.47-2.23a27.31,27.31,0,0,1-1.52-2.6c-.67-.85-1.66-1-2.47-1.61-.51-.36-.91-1.64-1.43-1.6-.84,0-.55,1.09-.76,2.84s-1.18,3-.86,5.07c.13.83.93,1.5,1.33,2.35.66,1.4.75,3,1.43,3.83.45.53,1.21.64,1.71,1.11a14.22,14.22,0,0,1,3.14,4.08c.41,1.3,0,2.83.29,4.2.32,1.58,1.91,2.72,1,4.33a7.21,7.21,0,0,1-2.48-1.61,9.21,9.21,0,0,1-2.76-3.71,12,12,0,0,1-.76-1.48c-.33-1.11-.26-2.36-.57-3.71a12.15,12.15,0,0,0-2.1-4c-.67-.82-1.85-1.29-1.9-2.47-.07-1.66.43-3.61.38-5.56,0-.42-.23-.85-.28-1.36-.1-.95.07-2.11-.1-3a16,16,0,0,0-.86-2.22c-.25-.71-.51-1.43-.76-2.35-.39-1.43-.82-4.19-1.71-4.33s-1.9,2.32-3.14,2.35a1.83,1.83,0,0,1-1.62-1.49c-.12-.76.3-1.52.29-2.35,0-1.66-.94-2.3-1.62-3.46-.27-.47-.35-1.13-.57-1.48-.43-.67-1.26-1-1.81-1.73a9.91,9.91,0,0,1-1.33-2.23c-.37-1-.49-2.22-1-2.35s-1.16.88-1.71,1.11a12.59,12.59,0,0,1-2.57.62c-1.91.17-3.46-.49-3.23,2.47-.3,1.33-1.38,1.34-2.09,2-.91.8-1.57,2.42-2.57,3.71-.48.63-1.18,1-1.62,1.61s-.48,1.27-.86,1.73c-1,1.25-2.54,1.35-3.23,3.09,0,2.05.75,3.61.57,5.56-.08.89-.59,1.68-.67,2.6a22,22,0,0,1,.1,2.47c-.08.45-.47.69-.76,1.24s-.37,1.15-.57,1.48c-.32.53-.85.9-1.15,1.36-.48.74-.58,1.27-1,1.36-2.08.39-2.6-4.76-3.52-6.92-.43-1-1.29-1.89-1.71-3.09-.49-1.39-.64-3.12-1.33-4.7a33.94,33.94,0,0,1-1.81-4.08c-.34-1.18-.63-2.65-1-4a26.74,26.74,0,0,1-.76-4.2c-.08-1.6.24-2.59-.76-3.21-.92.28-1.33,1.48-2.38,1.48s-3.74-2.29-2.95-4.33c-.66-1.22-2.34-1.89-3.62-3.34-.73-.83-1.39-2.8-2.66-3-.35,0-.81.21-1.14.25-.81.09-2.23-.09-3.14,0a15.61,15.61,0,0,1-4,.25c-.93-.13-2.09-.37-3-.49-1.22-.16-2.84-.54-3.52-1.36-.42-.51-.59-2.13-1.34-2.35s-1.37.62-2.19.86c-1.74.52-3.2-.46-4.38-1.48-.84-.72-1.6-1.1-2.19-1.61-1.45-1.26-1.71-5-3.9-5.07a2.15,2.15,0,0,0-2.09,1.73,7,7,0,0,0,1,2.84c1.07,2,3,2.69,3.62,5.31.39.2,1.2-.45,1.62.12.37,1.13,0,3.22.86,3.71,4,.85,5.08-2,6.85-4,1,.87.69,1.63,1,2.59a3.75,3.75,0,0,0,1.62,2.1c.48.24,1.09,0,1.81.37.45.22,2.32,2.53,2.38,3.34s-1.23,3.2-1.62,3.83-1,.93-1.14,1.48-.09,1.34-.19,1.61c-.18.49-1,1.14-1.52,1.73a20.82,20.82,0,0,1-1.62,1.61c-.6.6-1,1.42-1.62,1.73-1.27.61-2.47.35-3.52,1.24-.69.58-.69,1.89-1.52,2.59s-2.36.74-3.62,1.49c-.81.48-1.29,1.41-2,1.73-.29.13-.64,0-1,.12-.63.21-1.22.79-1.81,1s-1,.08-1.43.25c-1.47.55-2.81,2.48-4.28,1.36-.69-2.08-.81-4.7-1.62-6.55-.41-.94-1.23-1.23-1.52-2.22,0-.8.7-.58.76-1.24-.24-1.34-1.21-2-1.81-3.09-.29-.55-.42-1.34-.76-2-1.13-2.14-3.37-3.26-3.81-5.93-.12-.73,0-1.3-.09-1.85a7.78,7.78,0,0,0-1.14-2.59c-.36-.55-1.11-.92-1.52-1.73-.28-.53-.34-1.29-.57-1.85a20.22,20.22,0,0,0-3.81-5.93c-.78.15-1.61.22-2,.87a21.87,21.87,0,0,0,1.62,4.33,27.2,27.2,0,0,1,1.81,4c.15.51.12,1.19.29,1.73.6,2,2.48,2.56,2.85,4.82.25,1.51-.06,2.56.29,4.08s2,2.31,2.66,3.71c.56,1.14.56,2.75,1,3.83.57,1.59,2.16,2.27,3.33,3.34a34,34,0,0,1,2.66,3.46c.51.6,1.21.71,1.33,1.36.16.84-.27,1.12-.38,1.85.73,1,1.44,2.82,2.66,3,.5.06,1.14-.6,1.9-.74.39-.07.82.08,1.14,0,.51-.12.95-.71,1.53-.86,1-.27,2.1-.16,3.33-.37s2-1.47,2.85-1.11c1,1.4.28,3,0,4.33-.1.47-.1,1-.19,1.36-.51,2.2-1.86,3.83-2.48,5.81-.19.61-.16,1.35-.38,2a25.22,25.22,0,0,1-3.33,5.56,22.44,22.44,0,0,1-1.9,2.47c-.68.73-1.52,1.13-2.28,1.85a24.68,24.68,0,0,0-4.18,5.44c-.42.74-.61,1.6-1,2.23-.62.9-1.58,1.34-2.09,2.23a29.34,29.34,0,0,0-1.14,3.21c-.52,1.41-1.62,2.37-1.43,4.33.07.75.59,1.21.76,2a10.76,10.76,0,0,1-.1,3.83c.54,1.7.92,3.58,1.9,4.7.12,2.5-.16,4.93,0,7,.1,1.35.5,2.34.1,3.58a11.12,11.12,0,0,1-2.57,3.71c-.9.75-2.27.95-3.24,1.86-.67.63-1.22,1.74-1.9,2.47-1.12,1.21-2.66,2.35-2.76,3.58A11,11,0,0,0,269,317a13.81,13.81,0,0,1,.1,6.43c-.69,2.14-4.18,1.7-4.57,4-.12.69.23,1.24.19,2a20.31,20.31,0,0,1-1,3.58c-.42,1-1.38,1.48-2,2.35-.78,1.1-1.17,2.68-2,3.83a32.39,32.39,0,0,1-4.09,4.57,10.41,10.41,0,0,1-5.52,2.6c-1.16.11-2.4-.35-3.62-.12-.45.08-.93.62-1.52.74-.34.07-.69-.08-1,0-.6.13-1.16.75-1.71.74-1.23,0-2.82-1.93-2.85-3.83,0-.73.48-1.43.48-2.1s-.75-1.78-1.33-3.21-.77-2.94-1.33-4.07-1.37-1.78-1.81-2.72c-.88-1.9-.94-4.15-1.24-6.43-.1-.74-.49-1.55-.57-2.47-.1-1.14.11-2.4-.09-3.34a18.26,18.26,0,0,0-1.14-2.35c-.67-1.6-1.14-3.7-1.71-4.94s-1.62-2.38-1.71-3.71a23.83,23.83,0,0,1,.19-3.46c.1-.87.6-1.56.76-2.47.11-.61,0-1.31.09-2,.49-2.83,2.88-3.86,2.57-7.29-.13-1.46-.93-2.18-1-3.83-.06-.77.3-1.45.29-2.23a13.92,13.92,0,0,0-1-3.58c-1-2.73-1.55-5.22-2.95-7.29-.76-1.13-1.75-1.93-2.38-3a9,9,0,0,1-1.14-3.09c0-.71.42-1.15.57-1.86.2-.91.21-2.64.48-4.08a13.35,13.35,0,0,0,.57-3.34c-.1-1-1.28-3-2.28-3.34-1.33-.43-2.7.55-4.37.37C217.83,256.83,217.94,253.72,215.85,253.32Zm52.61,44.25c.44-.91,1-3.46,0-4.08h-.19C267.84,294.52,267.39,297,268.46,297.57Zm-1.33-25.84c.32-.86,1.08-1.76,1-2.84-.27-2.38-3.7-1.21-4.09.49-.26,1.15.16,2.05-.19,3.21.37.91,1.31,1.1,2.47,1C266.91,273.23,266.83,272.52,267.12,271.74Zm-5.8,12.74c.38-.91-.6-1.5-.76-2.47-.19-1.14.21-2.48-.57-3.09h-.28C259,280.93,260,284.28,261.32,284.47ZM326.2,161.72c-.36-.93-1.39.27-.95,1.11C325.89,162.89,326.13,162.41,326.2,161.72ZM304,166.79c1.54-.39,0-3.59-1.14-3.21C301.38,164.07,303,167.05,304,166.79Zm-7,15.94c.48-4.29-2.1-4.61-2.57-7.66.22,0,.11-.36.29-.37.62-.39,1.57.62,1.9-.37a2,2,0,0,0-2.85-1.85c-.41-.37-.47-1.2-.57-2-1.08-.83-3.75-2.66-3.71-4.33,0-1.37,1.4-2.14,2.95-2.1.66-.65.23-2.63-.38-3.09a4.74,4.74,0,0,0-5.33,1.24c-.75.7-1.58,1.19-2,1.61a3.52,3.52,0,0,0-.85,2c.06.76.9,1.21,1.24,2.23.17.52.13,1.17.29,1.61.42,1.19,1.48,2,2.28,3,.57.71,2.16,2.24,2.19,3.09s-.49.86-.66,1.61a11.88,11.88,0,0,0-.29,3.09c.21,1.36,1.29,1.4,2.28,2s1.93,1.57,2.95,1.6A3.48,3.48,0,0,0,297,182.74Zm-22.36-8.9c2.58-.61,1.4-3.44.09-4.45-1-.77-2.17-1.44-3.33-2.35-.67-.53-3.22-1.53-3.23-2.59s1.89-1.54,1.14-3.59c-1.3-.41-4.4.24-4.18,2.1.12,1.08,1.11.48,1.33,1.61-.93.43-2.07,1.56-3,1.36-1.17-.24-1.47-2.1-2.09-3.22-.91,0-1.5-1.14-2.57-1s-1.71,2.27-2.28,3.34c-.3.56-.79.85-1,1.36-.1.31,0,.79-.09,1.24-.33,1.37-1.24,1.88-1.14,3.09s1,1.55,1,2.47-1.24.46-1.14,1.61c1.7,1.83,1.8-.86,2.66-1.24.7-.3,2.06.25,2.95,0,.71-.2,1.28-1.09,2.09-1.48a4.72,4.72,0,0,1,1.81-.5c3-.16,5,2.4,7.61,2.47A15.88,15.88,0,0,0,274.64,173.84Zm-6.09,14.59c.05-1.33-.39-2.33-.48-4.2-1.76-1.38-3.07,1.28-4.85,1-1.1-.18-1.88-1.84-3-1.6-.64.12-1,1.2-1.62,1.36-1.36.32-2-1.41-3.42-.74-2-2-2.95-5.3-3.43-9-1.11-1.89-2.8-.35-3.61.86-.5,0-1.12-.36-1.23.37-.37,2.29,2.49,2.53,2.47,4.08,0,1-1.12.91-1.62,1.6s-.18,1.39-.86,1.85c-1.88.29-2.5-1-2.47-3.21-.81-1.6-1.83-2.76-2.57-4.08a5.72,5.72,0,0,1-.76-2c-.07-.58.21-1.31.1-2-.21-1.18-1.9-2.07-3-2.72a16.41,16.41,0,0,1-3.33-2.23c-.56-.62-.83-1.69-1.33-2.1s-1-.27-1.33-.62-.43-1.26-1.14-1.49c-.36-.17-.91.46-1.14.87-.46,2.7,1.23,2.88,2,4.08.53.82.8,2.06,1.33,2.6s1.35.47,2.09.86c.51.27.84,1.1,1.33,1.48.91.72,2.37.84,2.47,2.23-.56.5-1.84-.73-2.28.5-.11.8.49,1.21.48,2,0,1.22-1.06,2.55-2,2.35-.09-.72.5-1.32.48-2.1,0-1.57-2.47-4-3.71-4.7-.58-.34-1.28-.36-1.81-.74a15.15,15.15,0,0,1-3.14-3.34c-.68-1.17-1.26-3.34-2.76-3.22-.61.05-1.11.78-1.62,1.11a13.06,13.06,0,0,0-1.43,1c-.55.48-1,1-1.52,1-1.19.07-2.21-1.15-3.23-.86-.35.1-.63.5-1,1,0,.72.17,1.18.1,2-.31.7-1.23.65-1.9,1.11a15,15,0,0,0-2.66,3.09,4.33,4.33,0,0,0-1,1.73c-.05.41.27,1.18.19,1.73a5.78,5.78,0,0,1-1.52,2.35c-.34.3-.78.34-1.14.62-.75.58-1.09,1.33-1.71,1.48-1.66.4-4.68-.43-4.66,1.85,0,1.53,1.6,1.54,2.57,1.48,1.35-.07,2.49.37,3.23.12.51-.17,1.08-.92,1.62-1.24.34-.2.69-.2,1-.37.57-.37.89-1,1.33-1.24a9.61,9.61,0,0,1,3.42-1c1.28-.1,2.62.17,4.28,0,.59-.06,1.17-.55,1.81-.62,1-.11,2.4.53,3.23.5.58,0,1.23-.76,1.9-.74a2,2,0,0,1,1.71,1.36c.08.36-.16.94-.1,1.48.11.9.7,1.27.67,1.85-.05.77-1.53,1.81-1.33,2.72.13.59,1.2,1.2,1.71,1.61a5.5,5.5,0,0,0,2.09,1.11c.54.08,1-.19,1.52-.12a6.44,6.44,0,0,1,2.66,1.24c.89.82.77,2.13,1.81,2.59.44.2,1.24.09,1.81.25,1.39.39,2.41,1.88,3.43,1.73,1.59-.24.87-2.19,1-3.58.41-3.16,5.15-3,6.09-.87.69.24,1.3,0,2.09.37.46.19.8.84,1.24,1s.81-.06,1.24,0c1.82.27,3.48,2,5,1.73,1-.19,1.71-1.41,2.66-1.48,1.82-.15,3,1.76,4.95.86,1.44-.66,1.12-2.6,1.62-4.57C267.85,190.39,268.51,189.46,268.55,188.42ZM371.1,146.27a5.33,5.33,0,0,0-1-4.2c-1.1.25-.3,1.73-.38,2.6-.11,1.23-1.11,2.08-1,3.34-.36.56-1,.77-1,1.73.6.54.87-.43,1.33-1C369.73,147.86,370.85,147.33,371.1,146.27Zm-24.92-42.89c-1,0-1.44.54-2.09,1-.36.25-1.09.38-.86,1.11C344.14,105.33,346,104.8,346.18,103.38ZM306,118.58c2.24.68,3.29-2.6,1.81-4.45-.35-.43-1.51-.6-2-1.6-.58-1.21-.5-2.82-1.9-2.47,0,.14,0,.35-.1.37-.13,2.7,2.9,3.38,2.85,5.56C306.68,117.13,305.75,117.25,306,118.58Z"/><path class="cls-1" d="M274.73,113.88c-.28-1.34,1.67-1.12,1.33.12A.87.87,0,0,1,274.73,113.88Z"/><path class="cls-1" d="M263,187.81c0-1,1.84-1.4,2.19-.49C265.1,188.3,263.4,189,263,187.81Z"/><path class="cls-1" d="M230.41,181.13c1-1,3.2-.34,4.57-.37-.26.95-.3,2.17-.86,2.72C232.56,183.11,231.1,182.61,230.41,181.13Z"/><path class="cls-1" d="M223.46,174.58c1.31-1.77,2.68-.84,2.19,2.59-.31,1-1.67,2.39-2.28.87A16.78,16.78,0,0,0,223.46,174.58Z"/><path class="cls-1" d="M225.36,170.62a1.81,1.81,0,0,1-.67,1.85C223.45,172.19,224.4,169.27,225.36,170.62Z"/><path class="cls-1" d="M206.91,145.53a2.28,2.28,0,0,0-.86-2c-.31-.23-.79-.12-1.14-.37-.93-.66-1.26-2-1.81-2.35.07-1.35-.29-2.34,0-3.22a6.39,6.39,0,0,1,2.09-2.35c.83-.38,1.7,0,2.19-.86a.51.51,0,0,1,.48.12c0,.78-.51.91-.57,1.61.12,1.12,1.64.42,1.81,1.48-.14,1.16-.94,1.38-1,2.23s1.15,2.13,1.71,3.09c.42.71,1.15,1.25,1.52,2s.4,1.4.67,1.73c.5.62,1.63.72,1.71,1.61.11,1.18-1.13,1.65-1,3-1.31,1.33-3.49.64-5.61,1-1,.16-2,1.4-3,.37-.24-.83.85-.94,1-1.73-.07-.73-.79-.63-1-1.24.28-1,1.14-1.16,1-2.6C205.73,146.26,206.75,146.55,206.91,145.53Z"/><path class="cls-1" d="M199.78,142.56c1.27-1,3.49-.24,3.61,1,.09.93-.67,1.06-1,2.1s0,2.07-.28,2.72-1.08.53-1.62.74c-1.2.47-3.51,2.29-4.47.25.14-1.1,1-1.31,1.24-2.22,0-.71-.57-1.09-.48-1.85.12-.93.66-.61,1.43-1C198.81,144,199.05,143.14,199.78,142.56Z"/><path class="cls-1" d="M134.8,115.74c.2,1.1-2.5,2.53-2.76,1.11C131.84,115.72,134.11,114.3,134.8,115.74Z"/><path class="cls-1" d="M131.66,394.36h-1.43A1.75,1.75,0,0,1,131.66,394.36Z"/><path class="cls-1" d="M127.38,107a.38.38,0,0,1,.57,0c-.09.29-.17.61-.57.49Z"/><path class="cls-1" d="M118.92,126.62c0,.68-1.89,1.81-2.09.49a1.1,1.1,0,0,1,.38-1C117.71,125.72,118.9,125.95,118.92,126.62Z"/><path class="cls-1" d="M79.34,241.45c-.05.18-.14.31-.19.5C78.14,241.9,79.06,240.22,79.34,241.45Z"/><path class="cls-1" d="M40.72,155c.67-.51,1.31.76.86,1.36C40.84,156.59,40.66,155.5,40.72,155Z"/><path class="cls-1" d="M144.41,159.62c-.44-.14-1-.12-1.62-.25s-1.06-.3-1.52-.37c-1.17-.18-2.45.26-3.14-.62a37.71,37.71,0,0,1,4.09-5.56c.43-.5,1.36-.85,1.14-1.85-.81-.92-1.8.06-2.57.62a8,8,0,0,1-2.66,1.61c-1.57.3-3.66-.6-4.95.49-.18.93,1.46.57,1.23,2a1.55,1.55,0,0,1-1.71-.37c-.44-.52-.19-1.3-.48-1.61-.49-.52-2.32-.67-3.14-.49a2.46,2.46,0,0,0-2,2.1c1.2.73,3.18-.75,3.62,1.11-.66,1.54-2.21,2.39-2,4.45a2.67,2.67,0,0,0,1.33,2c.53.12.82-.56,1.33-.5s.42.87,1,.74c.92-.51,1.42-2.18,2.47-2.1,1.26,2-1.14,3-2.47,3.58-1.52.72-3.5,1.1-4.66,1.73-.61.33-2.91,3.22-3.23,1-.23-1.61,1.14-1.15,1.43-2.47-1.47-.37-2.84.82-4.18,1.49-1.91.94-5.15,1.54-5.61,4.33-.09.56.19,1.6-.09,2s-1.59.35-2.19.62c-.92.41-1.72,1.28-2.28,1.48s-1.06.11-1.33.25c-.76.38-1,1.71-1.9,2.59-.36.36-1.14.62-1.43,1-.49.64-.56,2.23-1.43,2.47-.55.06-1-.54-1.52-.12-.06,1.58.43,3.72-.09,5.32a26.12,26.12,0,0,1-3.81,3.09c-.8.58-1.51.73-2.47,1.36-.68.44-1.31,1.5-2.09,2.1-1.82,1.39-4,3-4,6.55,0,.76.31,1.58.38,2.47,0,.52,0,1,0,1.61.11,1.29.83,2.94,0,3.83-1.28-.68-2.91-.91-3.81-2.1-.24-1.22.49-2.23.38-3.34-.09-.89-1.06-2.48-1.62-2.6s-1.11.68-1.71.62-1.37-1.35-2.28-1.48c-1.34-.2-2.32.4-3.81.12-1.43,1-1.85,2.77-3.61,2.59-.62-.06-1.19-.67-1.9-.86a9.35,9.35,0,0,0-2.76-.49c-1.62.14-2.79,1.65-4.18,2.59-1.23.83-3,1.86-3.33,3.59-.2.93,0,2.23-.29,3.09a16.45,16.45,0,0,1-.76,1.6,15.67,15.67,0,0,0-1.14,9.52,25.15,25.15,0,0,0,1.62,4.2A4.91,4.91,0,0,0,65.45,226a9.79,9.79,0,0,0,2.19-.62,16.7,16.7,0,0,0,2.47-.49c2.06-.85,1.65-4.47,3.71-5.69a7.79,7.79,0,0,1,3.52-.74,3.27,3.27,0,0,1,.67,2.35,17.88,17.88,0,0,1-.76,2.1c-.22.79-.26,1.71-.48,2.35-.28.83-.92,1.44-1.14,2.23-.15.51-.07,1.14-.19,1.6-.22.81-1.06,1.39-.67,2.23,2,1.05,4.5-.3,6.28.12a3.35,3.35,0,0,1,2.28,2.84c0,1.12-.67,1.86-.76,3.09-.12,1.55-.61,3.44-.67,4.69-.08,2.05,2.32,5.59,4,5.56s2.86-2.34,5-1.11c.72.41,1.49,1.93,2.28,1.85s1.65-1.56,2.09-2.6c.54-1.26.57-2.33,1.52-3s1.83-.36,3.14-1a7.44,7.44,0,0,0,1.62-1.24c.46-.41.95-1.49,1.52-.74.76,1-.93,1.54-.29,2.6,1.32.91,2-1.69,2.95-1.73a6.24,6.24,0,0,1,1.9,1.24c.74.63,1,1.52,1.81,1.73.52.13,1.36-.26,2.09-.12,1,.18,1.55,1.26,2.28,1.24.9,0,1.33-1.3,2.09-1.48,1.68-.4,2.3.24,3,1.61.83.19.86-1.25,1.62-.74-.42,1.08.14,1.57.48,2.47.22.58.18,1,.38,1.24.45.56,1.33.56,2,1.11a14.61,14.61,0,0,1,1.9,2.84c.83,1.23,2.22,2.5,3.33,2.59s1.9-.38,2.76-.25c2,.32,3.19,1.59,4.57,3a5.25,5.25,0,0,1,1.71,2.22c.17.64.09,1.5.29,2.23.42,1.54,2.15,2.28,1.52,4.94.29.78.93,1.06,1.62,1.61s1,1.36,1.62,1.48c.39.08.81-.15,1.14-.13a7.5,7.5,0,0,1,2.76,1.11,9.42,9.42,0,0,1,1.71.75c.48.42.55,1.84,1.14,2.22.39.25,1.25-.09,1.9,0,1,.16,2.41,1,3.33,1,.56,0,1-.3,1.52-.25,2.33.23,3.65,3.86,5.9,4.94.7.34,1.8.1,2.28.37.84.47,1.55,3.83,1.62,5.31.19,4.49-2.46,5.93-4,8.9-.32.62-.5,1.6-1,2.47-.91,1.74-1.93,2.11-1.81,5.32,0,.88.38,1.74.38,2.72a22.94,22.94,0,0,1-.29,3.83c-.16.82-.68,1.48-.76,2.23s.17,1.34.1,2a13.33,13.33,0,0,1-1,2.72c-.88,2.11-1.07,4.59-2.85,5.44-1,.5-2.47.22-3.61.74-.46.21-1,.77-1.62,1.11-1.65,1-4,2.35-4.47,4.57-.41,2,.57,3.55.29,5.81a20.63,20.63,0,0,1-1.14,2.1c-.41.7-.61,1.53-1,2.23-.57.93-1.46,1.34-1.81,2.6-.12.42,0,.93-.19,1.6-.06.25-.41.64-.57,1.11s-.15,1-.29,1.36c-.43,1.14-1.73,3.73-2.66,4.08-2,.72-4.06-1.09-5.42-.75.2,1.24.89,1.11,1.33,2a15,15,0,0,0,.76,1.73c.43.64.8.88.86,1.61a4.87,4.87,0,0,1-1.43,3.59,7.22,7.22,0,0,1-2.76,1c-.7.15-2.52.16-2.85.75-.49.86.26,3-.09,3.83-.71,1.81-2.62,0-3.62.49a2.71,2.71,0,0,0,.76,2.35c.6.46,1.51-.14,1.9.74-.19,1.23-1.21,1.39-1.43,2.6A15.7,15.7,0,0,1,126,370c-.25,1.59-2.15,1.52-2.09,3.22.08,2.53,3.74,1.49,3.81,4,0,1.49-1,1.51-1.43,3-.2.78.12,1,0,1.61-.16.88-1,1.13-1,2.1,0,1.18,1.33,2.49,2,3.46a12.61,12.61,0,0,0,2.38,3c1.34,1,3.32.74,3.9,2.47-.18,1-1,1.32-1.71,1.6h-.19a1.75,1.75,0,0,0-1.43,0h-1.33c-1.27-.76-2.82-1.25-4.38-2-.56-.26-1.2-.88-1.81-1.23-.46-.27-1-.38-1.33-.62-.82-.56-1.74-2.37-2.57-3.09-.5-.44-1.29-.67-1.62-1.12a20,20,0,0,1-.76-1.85c-.31-.57-.87-1-1.24-1.61-.79-1.36-1.8-3.2-1.81-4.2s.73-1.66.48-2.59-1.69-.69-1.9-1.74c-.13-.63.42-1.7.38-2.59,0-.52-.77-1.23-.47-2s1,.07,1.52-.37c-.4-1.78,0-4.66-1.33-5.19-.7.77.72,2.49-.48,3-1.15-.66-.88-2.63-1.14-4.08a19.53,19.53,0,0,1-.57-2.84c0-.54.16-1.17.09-1.73-.2-1.67-1.63-3-1.71-4.7a15.91,15.91,0,0,1,.48-2.35c.07-.58-.06-1.24,0-1.85.08-.79.42-1.51.48-2.23a25.21,25.21,0,0,0-.19-4.82c-.24-1.43-1.11-2.64-1.24-4.2,0-.56.14-1.5.1-2.23s-.33-1.34-.38-2.1a18.33,18.33,0,0,1,.19-2.23c.1-1.55-.23-3.28-.19-4.82,0-.45.19-.79.19-1.23,0-1.28-.34-2.56-.38-3.83a57.59,57.59,0,0,0-.09-6.18,27.05,27.05,0,0,0-1-5.19,14,14,0,0,0-3.52-3.84c-.67-.48-1.46-.65-2.19-1.11-1.55-1-4.55-3.07-5.23-5.07-.2-.58-.17-1.34-.38-2A27.4,27.4,0,0,0,93,295c-1.17-2.33-2.12-5.26-3.33-7.66a32.79,32.79,0,0,0-1.81-3.58c-.39-.57-1.65-1.11-1.81-2-.21-1.14-.86-2.71-.76-3.58.14-1.18,1.9-2.14,1.9-3.21,0-.92-.94-1.45-1.14-2.23-.48-1.89.28-3,.86-4.58.19-.52.37-1.35.57-1.73.35-.68,1.06-.87,1.52-1.61.26-.41.42-1.27.76-1.85.72-1.25,1.89-1.72,2.19-2.84a30.55,30.55,0,0,0,.09-7c-.17-.89-.8-1.63-1-2.47-.43-1.49-.53-3.12-1.71-3.09-.73,0-1.24,1.07-1.71,1.73-.11.88-.05,1.83-.76,2.1-1.08.42-1.5-1.48-2.76-2-.5-.2-1.3-.19-1.62-.37-.92-.54-1.22-2.29-2.19-3-.81-.57-1.51-.37-2-1.24a12.59,12.59,0,0,1-.09-2.47c-1-.79-1.93-3.75-3.14-4.45-.8-.47-2-.42-3-.86a10.07,10.07,0,0,0-1.33-.62,6.46,6.46,0,0,1-1.71-.5c-1.88-1.21-2.9-5.15-5.23-5.07-1,0-2,1.24-2.85,1.24s-2.4-.93-3.52-1.61-2.46-1.09-3.42-1.73c-.78-.52-1.32-1.46-2-1.86-.52-.3-1.28-.35-1.71-.61a19.71,19.71,0,0,1-2-1.86,4.2,4.2,0,0,1-1.52-2.47c0-1,.68-1.79.76-2.72.24-2.94-1.42-5.06-2.47-6.8-.78-1.29-1.69-2.39-2.47-3.58a11.51,11.51,0,0,0,0-1.73,24.87,24.87,0,0,1-1.71-3c-.56-1-1.67-2.08-1.81-3.21-.18-1.39.41-2.61,0-4-.68-2.24-3.07-1.23-2.76,1.73.09.81,1,1.91,1.24,2.72s.22,1.85.48,2.84,1,1.77,1.24,2.84c.4,1.69.39,3.52.76,4.57s1.53,1.83.86,3c-.9.24-1.25-.93-1.81-1.61-.31-.38-1.44-1.1-1.62-2-.14-.73.36-1.71.19-2.6-.33-1.74-3-1.79-3-3.58,0-1.13,1.13-1.26,1.14-2.35s-1.25-2.2-1.52-3.21a23.81,23.81,0,0,1-.38-3.71,29.8,29.8,0,0,0-.19-3.59,5.47,5.47,0,0,0-1.81-2.47c-.83-.6-1.49-.35-1.9-1.24a12.63,12.63,0,0,1-.67-3.21c-.14-1.49,0-3.11-.1-4.7a31.08,31.08,0,0,1,0-4.82c.47-1.2,1.33-1.79,1.81-3,.33-.82.38-1.84.76-2.72.7-1.61,2.21-3.11,3.24-4.7a23.15,23.15,0,0,0,2.76-5.32,9.77,9.77,0,0,0,.76-3.09c-.12-1.19-1.85-2.17-1.71-3.58.09-.88,1-.86,1.33-1.73a11.22,11.22,0,0,0,.29-2.23c0-1.19-.47-2.43-.29-3.71.16-1.09,1.4-1.53.76-2.72s-1.77.64-2.47-.13.13-1.55.19-2.84c0-.52-.23-1.1-.19-1.48.06-.55.89-1.48.67-1.85-.51-.85-1.09-3-2.19-3.71-1.4-.91-2.91-.3-4.85-.74-1.19-.27-1.76-1.72-2.85-1.6-.68.07-1.07,1.08-2,1.6s-2.13.35-3,.62-1.35,1.09-2.28,1c-.78-.08-.79-1-1.71-1.11a11.81,11.81,0,0,0-1.62.37,17.06,17.06,0,0,1-5.61-.12,14.2,14.2,0,0,1-3.71-1.85c-1.13-.68-3.23-1.52-3.14-2.6.06-.69,2-1.43,2.76-1.73,1.24-.49,2-1.28,2.95-1.36.36,0,.85.29,1.33.25s1.09-.63,1.71-.74c1.33-.24,3.2.09,3-1.61-1-1-5.12.77-5.23-1.48-.07-1.36,1.56-1.77,2.76-2.1a14.48,14.48,0,0,1,3.71-.74c1.09.07,2.52,1.65,3.14-.12.3-1.26-.37-2.32-.57-3.34.81-1.45,2.29-1.27,3.43-1.48a11.46,11.46,0,0,0,3.62-1.24,11.46,11.46,0,0,1,3.61-1.24c1.29-.22,2.55-.85,3.71-1a20.61,20.61,0,0,0,2.76-.25,8.85,8.85,0,0,1,2.57-.74c.6,0,1.11.6,1.71.74s1.21,0,1.81.12.87.53,1.33.62c.72.14,1.49-.13,2.19,0s1.18.64,1.81.74c1.47.25,3.14-.1,4.57.25.54.13,1,.48,1.62.62s1.17,0,1.71.12c.76.2,1.39,1.13,2.19,1.24,1.47.2,3.13-.83,4.66-1a20.78,20.78,0,0,0,3.43-.25,17.83,17.83,0,0,1,3-.86c.52,0,1,.21,1.43.12s1.08-.85,1.62-.74c.71.15.58,1.31,1.33,1.61.83-.56,1.66,0,2.57,0S78,112.2,79,112.4c1.73.35,4.15,2.56,5.52,1.36.34-.3.26-.82.57-1.61.42-1.06,1.25-2.32,1-3.83-1.91,0-3.73,1.25-5.9,1.36-2.19-1.79.59-2.89,2.19-3.71,1.32-.67,2.37-2.17,4-2.47,1.33-.25,2.79.38,4.37.62a21.15,21.15,0,0,1,2.38.12c.93.37,1.41,1.57,2.19,1.85.33.12.88.11,1.33.25.85.26,1.62.84,2.47,0,.67.16.75,1.08,1.43,1.24.63-.44,1.12-1.57,2.09-1.85.42-.12.87.09,1.33,0,.78-.16,1.81-1.53,2.28-.25-.19.89-1.23,1-1.81,1.73a5.64,5.64,0,0,0-1.23,2.72c.11,1.18,1.47.72,1.52,2.23-.2.86-1,.48-1.62.86s-.8,1.08-1.43,1.24c-1.73.42-3.16-.57-4.66-.49-.07.84.74,1.33,1.14,1.6,1.36.93,2.46.8,4.37.74,1,0,2.11.38,3-.37.53-.47.5-1.52,1-2.1A3.21,3.21,0,0,1,109,112.4a1.64,1.64,0,0,1,1,1.24c0,1.12-1.22.76-1.24,2,.8.63,2.93-.69,3-1.73.08-.76-.69-1.2-.67-2,0-1.3,1.4-1.27,1.24-2.6-.65-.67-1.34.14-2,0-.93-.2-1.78-1.66-2.19-2.6.41-.66,1.28-.22,1.9-.12.7-1.26,2-1.75,3.81-2,.64-.08,1.5-.41,1.81.37.15,1.17-1.33,1.87-1,3.22,1.28.41,1.7-1.83,2.76-2.72a9.21,9.21,0,0,1,1.81-1c.59-.29,1.23-1,1.71-1s.62.58,1.14.86,1.08-.17,1.24.62c-1.1,2.48-5.21,1.06-6.28,3.58.24,1.7-.64,3.31.1,4.45.53.81,1.72.26,2,1.11.37,1.14-1.15,1.14-.76,2.47,1,.78,2.21-.75,3.14-1.36s2.26-1.44,2.38-3c-.5-1.25-2.38-.28-2.66-1.6a5.43,5.43,0,0,1,.76-2.6c1-1.45,4.46-3.5,6.94-3.21.47.06,1,.43,1.43.5,1.64.22,3.57-.92,4.85,0,1-.78,2.27.11,3.71-.13,1.11.85.8,2.66,2.47,3.46.45.22,1,.06,1.62.25.44.14.92.81,1.43,1.11.72.42,1.27.33,1.43,1s-.52,1.06-.48,1.73c.41.44.07,1.1.29,1.73.41,1.15,1.45,1.06,2.47,1.61.72.38,2.26,1.56,2.19,2.47,0,.61-1.44,1.69-1.9,2s-1.93,1.21-2.47,1.11c-.9-.17-1.25-2.53-2.47-2.47-.53,0-1,.45-1,1.36,0,1.62,1.4,1.69,1.43,3.09,0,1.68-.71,1.79-1.81,2.84a6.65,6.65,0,0,0-2.47-1.11c-.61.94,1,1.28.48,2.47-1.53.42-2.69-.56-4.09-1.11-.44-.17-1.07-.1-1.43-.37-.54-.41-.7-1.61-1.14-2.23s-1.54-1.74-2.38-1.73c-1.17,0-2.88,1.9-3.81.12.64-2.83,3.69-.73,5.71-1.73.75-.37,1-1.4,1.62-1.85,1.23-.91,3.23-1,3-2.84-.09-.91-1.07-.9-1.62-1.36-.74-.63-1.31-2.86-2.38-3-.55-.06-.94.55-1.52.62-1.23.15-2.6-.64-3.71,0-.52.38-.17,1-.57,1.73s-1.11.77-1.43,1.36-.29,1.56-.76,2.1c-.78.9-2.43,1-3.42,1.48-.44.2-1,.87-1.43.87-.79,0-1.12-1.37-2-.87-.08,1.32,1.08,1.86,1.81,2.47a4.75,4.75,0,0,1,1.9,2.47c-.77,2.14-2-.11-3.23-.12s-3.32,3.34-4.47.62c.29-1.44,1.51-1.67,1.81-3.09-1.34.3-2.51,1.77-4.09,2.23-.66.19-1.31.14-1.9.37-1.14.43-1.93,1.53-3.14,2.1-.47.22-1,.16-1.52.37a23.3,23.3,0,0,0-3.71,2.23,21.22,21.22,0,0,0-3.33,2.6,7.09,7.09,0,0,0-1.43,2.59c0,.74,1.11,1,1.14,1.73,0,.46-.62,1.44-.19,2.1s1.17.12,2,.25c1.45.23,2.4,1.79,3.52,2.6a8.56,8.56,0,0,0,3,1.48c1.31.21,2.77-.5,2.95.87s-1.23,1.78-1.33,2.6c.7,1.21-.48,1.79-.48,2.84,0,.86.81,2.14,1.52,2.22,1,.11,2.36-1.23,2.76-2.47.47-1.48.27-3.49,1.14-4.57,4.43.16,8.18-2.62,7.9-8.53a10.35,10.35,0,0,1-.19-2c.14-1,1.4-1.76,1.23-3,1.24-.5,1.19-3.08,2.47-3.46,1.08-.32,2.29,1,3.71.86.46,0,1.06-.58,1.52-.49.93.17,1.49,1.66,2.19,2.35s1.27.42,1.43,1.24c-.18,1.39-.93,1.42-.86,2.72a2.52,2.52,0,0,0,1.43,2.1,3.73,3.73,0,0,0,2.38-.74c1.27-.78,2.36-3.14,3.43-2.84.84.24,1.49,3.7,1.62,4.94s-.14,2.36-.09,3.59c.12,2.09,2.14,1.87,3.14,3,.3.33.42,1.18.67,1.61.48.84,1.07.84,1.14,1.73.18,2.14-1.49,2.32-1.33,4.7-.34.92-1.21.87-1.14,2.1.11,2,2.27.46,2.85,2,.32.82-.05,1.43-.29,2.59.74,1.14.73,3-.57,3C145.43,161,145.21,159.88,144.41,159.62ZM41.58,156.41c.45-.6-.19-1.87-.86-1.36C40.66,155.5,40.84,156.59,41.58,156.41ZM108,167.66c-.4-.5-1.69-.36-2.57-.25-.62.08-1.36.25-1.43.87C105,168.86,107.67,169.29,108,167.66Zm-4.95-2.1a1.73,1.73,0,0,0-.38-2.6c-.31-.11-.73.3-1.24.25s-1.08-.69-1.52-.74a2,2,0,0,0-1.81.86c0,.74.42.86.38,1.61-.92.86-.43,3.73.48,3.83s1.47-3.17,2.76-3.46C102.17,165.2,102.41,165.65,103,165.55Zm-1.33,4.94c-1.35-.62-2.6.42-3.71.62-.66.12-1.86-.17-1.71,1.11.12,1,1.37.67,2.09.37A8.46,8.46,0,0,0,101.7,170.5Zm-4.18-9.4c1.9-1-.37-4.28-1.24-4.57-1.54-.52-3.74,1.47-5.52,2.1-1,.36-2,.39-2.19,1.49.9,1.94,2.68-.42,4-.12.67.15,1.05,1.34,1.71,1.48A15.42,15.42,0,0,0,97.51,161.1Zm-1.33,2c-.39-.6-2.53.07-3.14.62a12.45,12.45,0,0,0-1.14,2c-.45.7-1,1.25-1.33,1.85s-2.27,4.16-.76,4.57c.64.17,2-1.56,2.09-2.23a7.73,7.73,0,0,1,2.57-4.94C95.25,164.32,96.05,164.4,96.18,163.08ZM84.29,149.24c1.06-.05,1.78-4.13,0-3.59C83.1,146,82.81,149.31,84.29,149.24Zm-5.14,92.71c0-.18.14-.31.19-.5C79.06,240.22,78.14,241.9,79.15,241.95ZM38.91,138.48c0-.23-.11-.27-.09-.5-.29,0-.63-.07-.57.37S38.75,138.78,38.91,138.48Zm100-19.41c.47.07.73-.12.67-.74C139.14,117.95,138.52,118.46,138.89,119.08ZM128,107a.38.38,0,0,0-.57,0v.49C127.79,107.57,127.86,107.25,128,107Zm-36.15,9.52c.32-.27.8-.62.57-1.24-1.05-.64-2.83-.15-4.37-.37-.88-1.61-2.35-1.86-2.47.74C87.3,117.48,90,114.75,91.81,116.48Zm-17,12.73c.54-.24,1.29-.12,1.43-.87-.44-.46-.9-1.09-1.43-1.11-.69,0-1,.76-1.71,1.24s-1.92.69-2,1.61C72.54,130.45,73.87,129.62,74.78,129.21Zm-.48-8.9c.61-.13,1.23.22,1.62-.49-.45-2.72-3.35-1.06-5-.87a7.14,7.14,0,0,0-1,2.47C71.24,121.86,72.82,120.64,74.3,120.31Zm28.54,126.33c.75-.16.53-2.4-.38-1.86C101.77,245.2,102.13,246.79,102.84,246.65Z"/><path class="cls-1" d="M38.82,138c0,.22.12.26.09.5s-.53.23-.67-.12S38.53,138,38.82,138Z"/><path class="cls-1" d="M36,145.28a2.28,2.28,0,0,1-1.33,1.48,2.83,2.83,0,0,1-.48-.62C34.2,145,35.48,144.11,36,145.28Z"/><path class="cls-2" d="M81.3,443.21c-2.09-.08-4.18-.24-6.21-.49l.15-1.23c2,.24,4,.41,6.1.48Zm7.47-.09-.07-1.23c2-.13,4.1-.34,6.09-.63l.18,1.22C92.94,442.78,90.86,443,88.77,443.13Zm-21-1.71a58.56,58.56,0,0,1-6-1.75l.41-1.16A57.43,57.43,0,0,0,68,440.21Zm34.55-.43-.32-1.19a54.83,54.83,0,0,0,5.8-1.89l.45,1.15A56.32,56.32,0,0,1,102.29,441Zm-47.41-4.33a34.86,34.86,0,0,1-5.24-3.45l.77-1a33.58,33.58,0,0,0,5.06,3.33Zm60.09-.88-.64-1.06a30.44,30.44,0,0,0,4.86-3.59l.83.91A31.65,31.65,0,0,1,115,435.77Zm-70.45-8.16a15.1,15.1,0,0,1-2.24-6l1.22-.17A13.88,13.88,0,0,0,45.57,427ZM124.66,426l-1.11-.54a12.89,12.89,0,0,0,1.35-5.67,12.38,12.38,0,0,0-.19-2.15l1.22-.21a13.58,13.58,0,0,1,.21,2.37A14.12,14.12,0,0,1,124.66,426ZM44.54,414.58l-1.13-.5A18.9,18.9,0,0,1,47,408.84l.9.85A17.71,17.71,0,0,0,44.54,414.58Zm77.22-3.32a23.52,23.52,0,0,0-4.27-4.21l.76-1a24.81,24.81,0,0,1,4.49,4.44Zm-68.23-6.1-.65-1a42.43,42.43,0,0,1,5.56-2.88l.49,1.13A41.11,41.11,0,0,0,53.53,405.16Zm57.77-1.92a48.51,48.51,0,0,0-5.64-2.31l.4-1.17a50,50,0,0,1,5.78,2.37ZM65.84,400l-.33-1.19c2-.54,4-1,6.08-1.36l.21,1.22C69.76,399,67.75,399.42,65.84,400ZM98.58,399c-2-.41-4-.73-6-1l.14-1.23c2.09.24,4.16.57,6.15,1Zm-19.49-1.27L79,396.51c2-.14,4.15-.2,6.22-.17l0,1.23C83.17,397.55,81.09,397.61,79.09,397.75Z"/><path class="cls-2" d="M266.92,345.51q-1.79,0-3.56-.06l0-1.23c2,.07,4.1.08,6.14,0l0,1.23Q268.25,345.51,266.92,345.51ZM277,345l-.12-1.23c2.05-.2,4.1-.47,6.08-.79l.2,1.22C281.16,344.54,279.09,344.81,277,345Zm-21.09-.09c-2.08-.22-4.15-.51-6.15-.86l.21-1.22c2,.34,4,.63,6.07.85Zm34.55-2.22-.3-1.2c2-.5,4-1.08,5.88-1.71l.39,1.17C294.53,341.61,292.52,342.19,290.48,342.71Zm-48-.23c-2-.53-4-1.14-6-1.81l.41-1.17c1.89.66,3.86,1.26,5.86,1.78Zm60.93-4.25-.52-1.12a56.45,56.45,0,0,0,5.4-2.84l.63,1.06A57.76,57.76,0,0,1,303.41,338.23Zm-73.8-.39a55.59,55.59,0,0,1-5.48-3l.65-1a54.19,54.19,0,0,0,5.36,2.92ZM315,331l-.81-.94a31.42,31.42,0,0,0,4.2-4.34l1,.76A32.59,32.59,0,0,1,315,331Zm-96.92-.61a31.05,31.05,0,0,1-4.24-4.64l1-.73a29.8,29.8,0,0,0,4.07,4.46Zm105-10.5-1.17-.41a17.45,17.45,0,0,0,1-5.83h1.23A18.73,18.73,0,0,1,323.11,319.85ZM210.44,319a18.56,18.56,0,0,1-.8-5.36q0-.47,0-.94l1.23.07c0,.29,0,.58,0,.87a17.34,17.34,0,0,0,.75,5Zm112-9.52a19.77,19.77,0,0,0-2.33-5.48l1.06-.64a21.06,21.06,0,0,1,2.47,5.82Zm-109.76-3.59-1.11-.53A25.16,25.16,0,0,1,215,300l.95.79A23.89,23.89,0,0,0,212.69,305.85Zm102.86-7.48a38.76,38.76,0,0,0-4.73-3.81l.7-1a40,40,0,0,1,4.88,3.93Zm-94.3-2.52-.75-1a47.27,47.27,0,0,1,5.21-3.46l.62,1.07A45.88,45.88,0,0,0,221.25,295.85Zm83.26-5c-1.77-.88-3.65-1.7-5.61-2.45l.44-1.15c2,.76,3.91,1.6,5.71,2.49Zm-71.61-1.63-.48-1.14c1.86-.78,3.83-1.51,5.84-2.15l.38,1.17C236.66,287.76,234.72,288.48,232.89,289.24Zm59-3.09c-1.93-.53-3.94-1-6-1.4l.24-1.21c2.05.41,4.09.89,6.05,1.42Zm-46.18-.95-.27-1.21c2-.44,4-.83,6.11-1.15l.19,1.22C249.71,284.38,247.69,284.76,245.73,285.2Zm32.95-1.6c-2-.24-4.07-.41-6.11-.52l.07-1.23c2.07.11,4.15.29,6.19.53Zm-19.61-.38L259,282c2-.16,4.13-.25,6.2-.29l0,1.23C263.16,283,261.09,283.07,259.07,283.22Z"/><path class="cls-2" d="M127.37,266.48q-1.79,0-3.56-.06l0-1.23c2,.07,4.1.08,6.14,0l0,1.23Q128.71,266.48,127.37,266.48Zm10.09-.49-.12-1.23c2.05-.2,4.1-.47,6.08-.79l.2,1.22C141.62,265.51,139.54,265.78,137.47,266Zm-21.09-.09c-2.08-.22-4.15-.51-6.15-.86l.21-1.22c2,.34,4,.63,6.08.85Zm34.55-2.22-.3-1.2c2-.5,4-1.08,5.88-1.71l.39,1.17C155,262.57,153,263.16,150.93,263.67Zm-48-.23c-2-.53-4-1.14-6-1.81l.41-1.17c1.89.66,3.86,1.26,5.86,1.78Zm60.93-4.25-.52-1.12a56.7,56.7,0,0,0,5.41-2.84l.63,1.06A57.53,57.53,0,0,1,163.86,259.19Zm-73.8-.39a55.55,55.55,0,0,1-5.48-3l.65-1a54.23,54.23,0,0,0,5.36,2.92Zm85.43-6.88-.81-.94a31.26,31.26,0,0,0,4.2-4.34l1,.76A32.54,32.54,0,0,1,175.49,251.92Zm-96.92-.61a31.07,31.07,0,0,1-4.24-4.64l1-.73a29.84,29.84,0,0,0,4.07,4.46Zm105-10.51-1.16-.41a17.44,17.44,0,0,0,1-5.83h1.23A18.67,18.67,0,0,1,183.57,240.81Zm-112.68-.88a18.56,18.56,0,0,1-.8-5.36c0-.31,0-.63,0-.94l1.23.06q0,.44,0,.87a17.34,17.34,0,0,0,.75,5Zm112-9.52a19.78,19.78,0,0,0-2.33-5.48l1.06-.64a21.05,21.05,0,0,1,2.47,5.82ZM73.14,226.82,72,226.28A25.09,25.09,0,0,1,75.48,221l.95.79A23.82,23.82,0,0,0,73.14,226.82ZM176,219.34a38.84,38.84,0,0,0-4.72-3.81l.7-1a40.07,40.07,0,0,1,4.88,3.93Zm-94.3-2.52-.75-1a47.42,47.42,0,0,1,5.21-3.46l.62,1.07A46.33,46.33,0,0,0,81.7,216.81Zm83.26-5c-1.76-.88-3.65-1.7-5.6-2.45l.44-1.15c2,.76,3.91,1.6,5.71,2.49Zm-71.61-1.63-.48-1.14c1.86-.78,3.83-1.51,5.84-2.15l.38,1.18C97.11,208.73,95.18,209.44,93.35,210.21Zm59-3.09c-1.93-.53-3.94-1-6-1.4l.24-1.21c2.06.41,4.09.89,6.05,1.42Zm-46.18-.95-.27-1.2c2-.45,4.05-.83,6.11-1.15l.19,1.22C110.18,205.34,108.15,205.72,106.19,206.17Zm32.95-1.6c-2-.24-4.07-.41-6.11-.52l.07-1.23c2.07.11,4.15.29,6.19.53Zm-19.61-.38-.1-1.23c2-.16,4.13-.25,6.2-.29l0,1.23C123.6,203.94,121.54,204,119.53,204.19Z"/><path class="cls-2" d="M400.29,420.84q-1.79,0-3.56-.06l0-1.23c2,.07,4.1.08,6.14,0l0,1.23Q401.62,420.84,400.29,420.84Zm10.09-.49-.12-1.23c2.05-.2,4.1-.47,6.08-.79l.2,1.22C414.53,419.87,412.46,420.14,410.38,420.35Zm-21.09-.09c-2.08-.22-4.15-.51-6.15-.86l.21-1.22c2,.34,4,.63,6.07.85ZM423.85,418l-.3-1.2c2-.5,4-1.08,5.88-1.71l.39,1.17C427.9,416.94,425.89,417.52,423.85,418Zm-48-.23c-2-.53-4-1.14-6-1.81l.41-1.17c1.89.66,3.86,1.26,5.86,1.78Zm60.93-4.25-.52-1.12a56.52,56.52,0,0,0,5.4-2.84l.63,1.06A57.73,57.73,0,0,1,436.78,413.55Zm-73.8-.39a55.08,55.08,0,0,1-5.48-3l.65-1a54.36,54.36,0,0,0,5.36,2.92Zm85.43-6.88-.81-.94a31.43,31.43,0,0,0,4.2-4.34l1,.76A32.58,32.58,0,0,1,448.4,406.29Zm-96.92-.61a31.06,31.06,0,0,1-4.24-4.64l1-.73a29.78,29.78,0,0,0,4.07,4.46Zm105-10.5-1.17-.41a17.45,17.45,0,0,0,1-5.83h1.23A18.73,18.73,0,0,1,456.48,395.18Zm-112.68-.89a18.53,18.53,0,0,1-.8-5.36c0-.31,0-.63,0-.94l1.23.07c0,.29,0,.58,0,.87a17.33,17.33,0,0,0,.75,5Zm112-9.52a19.77,19.77,0,0,0-2.33-5.48l1.06-.64a21.06,21.06,0,0,1,2.47,5.82Zm-109.76-3.59-1.11-.53a25.17,25.17,0,0,1,3.45-5.28l.95.79A23.88,23.88,0,0,0,346.06,381.18Zm102.86-7.48a38.77,38.77,0,0,0-4.73-3.81l.7-1a40,40,0,0,1,4.88,3.93Zm-94.3-2.53-.75-1a47.35,47.35,0,0,1,5.21-3.46l.62,1.07A46.13,46.13,0,0,0,354.62,371.18Zm83.26-5c-1.77-.88-3.65-1.7-5.61-2.45l.44-1.15c2,.76,3.91,1.6,5.71,2.49Zm-71.62-1.63-.48-1.14c1.86-.78,3.83-1.51,5.84-2.15l.38,1.18C370,363.09,368.09,363.8,366.26,364.57Zm59-3.09c-1.93-.53-3.94-1-6-1.4l.24-1.21c2.05.41,4.09.89,6.05,1.42Zm-46.18-.95-.27-1.21c2-.44,4-.83,6.11-1.15l.19,1.22C383.08,359.71,381.05,360.09,379.1,360.53Zm32.95-1.6c-2-.24-4.07-.41-6.11-.52l.07-1.23c2.07.11,4.15.29,6.19.53Zm-19.61-.38-.09-1.23c2-.16,4.13-.25,6.2-.29l0,1.23C396.52,358.3,394.46,358.4,392.44,358.55Z"/><path class="cls-2" d="M363.24,288.7q-1.79,0-3.56-.06l0-1.23c2,.07,4.1.08,6.14,0l0,1.23Q364.58,288.7,363.24,288.7Zm10.09-.49-.12-1.23c2.05-.2,4.1-.47,6.08-.79l.2,1.22C377.48,287.74,375.41,288,373.33,288.21Zm-21.09-.09c-2.08-.22-4.15-.51-6.15-.86l.21-1.22c2,.34,4,.63,6.07.85Zm34.56-2.22-.3-1.2c2-.5,4-1.08,5.88-1.71l.39,1.17C390.85,284.8,388.84,285.39,386.8,285.9Zm-48-.23c-2-.53-4-1.14-6-1.81l.41-1.17c1.89.66,3.86,1.26,5.86,1.78Zm60.93-4.25-.52-1.12a56.5,56.5,0,0,0,5.4-2.84l.63,1.06A57.74,57.74,0,0,1,399.73,281.42Zm-73.8-.39a55.08,55.08,0,0,1-5.48-3l.65-1a54.36,54.36,0,0,0,5.36,2.92Zm85.43-6.88-.81-.94a31.42,31.42,0,0,0,4.2-4.34l1,.76A32.58,32.58,0,0,1,411.36,274.15Zm-96.92-.61a31.06,31.06,0,0,1-4.24-4.64l1-.73a29.77,29.77,0,0,0,4.07,4.46Zm105-10.5-1.17-.41a17.45,17.45,0,0,0,1-5.83h1.23A18.73,18.73,0,0,1,419.44,263Zm-112.68-.89a18.52,18.52,0,0,1-.8-5.36c0-.31,0-.63,0-.94l1.23.07q0,.43,0,.87a17.33,17.33,0,0,0,.75,5Zm112-9.52a19.78,19.78,0,0,0-2.33-5.48l1.06-.64a21.09,21.09,0,0,1,2.47,5.82ZM309,249l-1.11-.53a25.13,25.13,0,0,1,3.45-5.28l.95.79A23.82,23.82,0,0,0,309,249Zm102.86-7.48a38.8,38.8,0,0,0-4.73-3.81l.7-1a40.16,40.16,0,0,1,4.88,3.93ZM317.57,239l-.75-1a47.53,47.53,0,0,1,5.21-3.46l.62,1.07A46.15,46.15,0,0,0,317.57,239Zm83.26-5c-1.77-.88-3.65-1.7-5.6-2.44l.44-1.15c2,.76,3.91,1.6,5.71,2.49Zm-71.61-1.63-.48-1.14c1.86-.78,3.83-1.51,5.84-2.15l.38,1.18C333,231,331,231.67,329.22,232.44Zm59-3.09c-1.93-.53-3.94-1-6-1.4l.24-1.21c2.05.41,4.09.89,6.05,1.42Zm-46.18-.95-.27-1.2c2-.45,4-.83,6.11-1.15l.19,1.22C346,227.57,344,228,342.05,228.4ZM375,226.8c-2-.24-4.07-.41-6.11-.52L369,225c2.07.11,4.15.29,6.19.53Zm-19.61-.38-.09-1.23c2-.16,4.12-.25,6.2-.29l0,1.23C359.47,226.17,357.41,226.26,355.39,226.42Z"/><path class="cls-3" d="M371.14,260.22l-17.36-10.09a3.59,3.59,0,0,1,1.51,3.28,3.53,3.53,0,0,1-1.6,2.76l-9.47,5.46a1.91,1.91,0,0,0-.87,1.51.61.61,0,0,0,.26.56L361,273.8a.61.61,0,0,1-.26-.56,1.92,1.92,0,0,1,.87-1.51l9.47-5.47a3.52,3.52,0,0,0,1.6-2.76A3.59,3.59,0,0,0,371.14,260.22Z"/><path class="cls-4" d="M360.11,251.1l-1.23,2.13,12.26,7a3.59,3.59,0,0,1,1.51,3.28,3.52,3.52,0,0,1-1.6,2.76l-9.47,5.47a1.92,1.92,0,0,0-.87,1.51c0,.55.39.78.87.5l9.47-5.47a5.69,5.69,0,0,0,3-5,6.87,6.87,0,0,0-2.79-5.18Z"/><polygon class="cls-5" points="399.53 262.39 401.27 261.38 401.4 209.49 399.67 210.5 399.53 262.39"/><path class="cls-6" d="M322.82,161.75l-1.74,1a2.31,2.31,0,0,1,2.33.23l1.73-1A2.31,2.31,0,0,0,322.82,161.75Z"/><polygon class="cls-7" points="325.61 217.7 325.75 165.81 324.01 166.82 323.88 218.71 399.53 262.39 401.27 261.38 325.61 217.7"/><path class="cls-4" d="M403.06,269.16l-83.06-48,0,5.95a7.22,7.22,0,0,0,3.28,5.67l29.47,17,17.82,10.28L399.8,277c1.81,1,3.28.21,3.29-1.88Z"/><polygon class="cls-8" points="325.02 166.19 324.89 218.08 400.54 261.75 400.67 209.87 325.02 166.19"/><polygon class="cls-9" points="399.67 210.5 401.4 209.49 325.75 165.81 324.01 166.82 399.67 210.5"/><path class="cls-3" d="M404.81,268.14v-4.7l.12-51.64a7.29,7.29,0,0,0-3.27-5.66L325.15,162a2.31,2.31,0,0,0-2.33-.23l-1.74,1a2.31,2.31,0,0,1,2.33.23l76.5,44.17a7.3,7.3,0,0,1,3.27,5.66l-.12,51.64,0,4.72h0l0,6a2.3,2.3,0,0,1-1,2.1l1.74-1a2.3,2.3,0,0,0,1-2.11v-6Z"/><path class="cls-4" d="M399.92,207.15a7.2,7.2,0,0,1,3.27,5.66l-.12,51.64v4.73l-83.07-48c0-.72,0,0,.13-56.35,0-2.08,1.48-2.92,3.29-1.87Zm-76,11.56,75.65,43.68.13-51.89L324,166.82l-.13,51.89Z"/><path class="cls-3" d="M407,174.88,373.66,156.1a1.31,1.31,0,0,0-1.19-.15l-.12,0-.12,0-.12,0-.12,0-.12,0-.12,0-.12,0-.12,0-.12,0-.12,0-.12,0-.12,0-.12,0-.12,0-.12,0-.12,0-.12,0-.12,0-.12,0-.12,0-.12,0-.12,0-.12,0-.12,0-.12,0-.12,0-.12,0-.12,0-.12,0-.12,0c-.78.21-1.31,1.28-1.31,2.88v30.35c0,2.27,1.07,4.74,2.38,5.51l4.75,2.81V208l.12-.11V208l.12-.11v.07l.12-.11v.07l.12-.11v.07l.12-.11v.07l.12-.11v.07l.12-.11v.07l.12-.11v.07l.12-.11v.07l.12-.11v.07l.12-.11v.07l.12-.11v.07l.12-.11v.07l.12-.11v.07l.12-.11v.07l.12-.11v.07l.12-.11v.07l.12-.11v.07l.12-.11v.07l.12-.11v.07l.12-.11v.07l.12-.11v.07l.12-.11v.07l.12-.11V207l.12-.11V207l.12-.11V207l.12-.11v.07l.12-.11v.07l.12-.11v.07l.12-.11v.07l.12-.11v.07l3.92-3.52,21.83,11.44a1.31,1.31,0,0,0,1.19.15l.12,0,.12,0c2.39-1,3.84-.92,3.84-4V180.39C409.42,178.13,408.36,175.66,407,174.88Z"/><path class="cls-2" d="M404.16,176.12l-34.21-18.77c-1.32-.78-2.38.42-2.38,2.69v30.35c0,2.27,1.07,4.74,2.38,5.51l4.75,2.81V208l6.23-5.6,23.24,12.27c1.32.78,2.38-.42,2.38-2.69V181.63C406.54,179.37,405.47,176.9,404.16,176.12Z"/><path class="cls-10" d="M380.2,183.45c0,1.19-.56,1.82-1.25,1.41a3.66,3.66,0,0,1-1.25-2.9c0-1.19.56-1.82,1.25-1.41A3.66,3.66,0,0,1,380.2,183.45Z"/><path class="cls-10" d="M387.62,187.85c0,1.19-.56,1.82-1.25,1.41a3.66,3.66,0,0,1-1.25-2.9c0-1.19.56-1.82,1.25-1.41A3.66,3.66,0,0,1,387.62,187.85Z"/><path class="cls-10" d="M395,192.24c0,1.19-.56,1.82-1.25,1.41a3.66,3.66,0,0,1-1.25-2.9c0-1.19.56-1.82,1.25-1.41A3.66,3.66,0,0,1,395,192.24Z"/><path class="cls-2" d="M234.81,209.67q-1.79,0-3.56-.06l0-1.23c2,.07,4.1.08,6.14,0l0,1.23Q236.14,209.67,234.81,209.67Zm10.09-.49-.12-1.23c2-.2,4.09-.47,6.08-.8l.2,1.22C249,208.7,247,209,244.9,209.18Zm-21.09-.09c-2.07-.22-4.14-.51-6.15-.86l.21-1.22c2,.35,4,.63,6.07.85Zm34.55-2.22-.3-1.2c2-.5,4-1.08,5.88-1.71l.39,1.17C262.42,205.77,260.41,206.35,258.37,206.87Zm-48-.23c-2-.53-4-1.14-6-1.81l.41-1.17c1.88.66,3.85,1.25,5.86,1.78Zm60.93-4.25-.52-1.12a56.51,56.51,0,0,0,5.4-2.84l.63,1.06A57.29,57.29,0,0,1,271.3,202.38ZM197.5,202a55.79,55.79,0,0,1-5.48-3l.65-1a54.56,54.56,0,0,0,5.36,2.92Zm85.43-6.88-.81-.94a31.28,31.28,0,0,0,4.2-4.34l1,.76A32.57,32.57,0,0,1,282.93,195.12ZM186,194.51a31.18,31.18,0,0,1-4.24-4.64l1-.73a29.87,29.87,0,0,0,4.07,4.46ZM291,184l-1.17-.41a17.45,17.45,0,0,0,1-5.83h1.24A18.71,18.71,0,0,1,291,184Zm-112.68-.88a18.58,18.58,0,0,1-.8-5.36c0-.31,0-.63,0-.94l1.23.06q0,.44,0,.87a17.35,17.35,0,0,0,.75,5Zm112-9.52a19.75,19.75,0,0,0-2.33-5.48l1.06-.64a21,21,0,0,1,2.47,5.83ZM180.58,170l-1.11-.53a25.08,25.08,0,0,1,3.45-5.28l.95.79A23.82,23.82,0,0,0,180.58,170Zm102.86-7.48a38.78,38.78,0,0,0-4.73-3.81l.7-1a40.2,40.2,0,0,1,4.88,3.93ZM189.14,160l-.75-1a47.32,47.32,0,0,1,5.21-3.46l.62,1.07A46.2,46.2,0,0,0,189.14,160Zm83.26-5c-1.77-.88-3.65-1.7-5.6-2.44l.44-1.15c2,.76,3.91,1.6,5.71,2.49Zm-71.61-1.63-.48-1.14c1.86-.78,3.83-1.51,5.84-2.15l.38,1.18C204.55,151.92,202.62,152.64,200.78,153.4Zm59-3.09c-1.93-.53-3.94-1-6-1.4l.24-1.21c2.06.41,4.09.89,6.05,1.42Zm-46.18-.95-.27-1.2c2-.45,4.05-.84,6.11-1.15l.19,1.22C217.62,148.54,215.59,148.92,213.62,149.36Zm32.95-1.6c-2-.24-4.07-.41-6.11-.52l.07-1.23c2.07.11,4.15.29,6.19.53ZM227,147.38l-.1-1.23c2-.16,4.13-.25,6.2-.29l0,1.23C231,147.13,229,147.23,227,147.38Z"/><polygon class="cls-11" points="130.31 226.19 112.95 216.1 111.72 218.24 129.08 228.32 130.31 226.19"/><path class="cls-3" d="M240.14,181.5l-17.36-10.09a3.59,3.59,0,0,1,1.51,3.28,3.53,3.53,0,0,1-1.6,2.76l-9.47,5.46a1.91,1.91,0,0,0-.87,1.51.61.61,0,0,0,.26.56L230,195.08a.61.61,0,0,1-.26-.56,1.92,1.92,0,0,1,.87-1.51l9.47-5.47a3.52,3.52,0,0,0,1.6-2.76A3.59,3.59,0,0,0,240.14,181.5Z"/><path class="cls-4" d="M229.1,172.37l-1.23,2.13,12.26,7a3.59,3.59,0,0,1,1.51,3.28,3.52,3.52,0,0,1-1.6,2.76L230.59,193a1.92,1.92,0,0,0-.87,1.51c0,.55.39.78.87.5l9.47-5.47a5.69,5.69,0,0,0,3-5,6.87,6.87,0,0,0-2.79-5.18Z"/><polygon class="cls-5" points="268.53 183.66 270.26 182.65 270.4 130.77 268.66 131.78 268.53 183.66"/><path class="cls-6" d="M191.82,83l-1.74,1a2.31,2.31,0,0,1,2.33.23l1.73-1A2.31,2.31,0,0,0,191.82,83Z"/><polygon class="cls-7" points="194.61 138.97 194.75 87.09 193.01 88.1 192.88 139.98 268.53 183.66 270.26 182.65 194.61 138.97"/><path class="cls-4" d="M272.05,190.44l-83.06-48,0,5.95a7.22,7.22,0,0,0,3.28,5.67l29.47,17,17.82,10.28,29.25,16.88c1.81,1,3.28.21,3.29-1.88Z"/><polygon class="cls-12" points="194.02 87.46 193.88 139.35 269.54 183.03 269.67 131.14 194.02 87.46"/><polygon class="cls-9" points="268.66 131.78 270.4 130.77 194.75 87.09 193.01 88.1 268.66 131.78"/><path class="cls-3" d="M273.81,189.42v-4.7l.12-51.64a7.29,7.29,0,0,0-3.27-5.66l-76.5-44.17a2.31,2.31,0,0,0-2.33-.23l-1.74,1a2.31,2.31,0,0,1,2.33.23l76.5,44.17a7.3,7.3,0,0,1,3.27,5.66l-.12,51.64,0,4.72h0l0,6a2.3,2.3,0,0,1-1,2.1l1.74-1a2.3,2.3,0,0,0,1-2.11v-6Z"/><path class="cls-4" d="M268.91,128.43a7.2,7.2,0,0,1,3.27,5.66l-.12,51.64v4.73l-83.07-48c0-.72,0,0,.13-56.35,0-2.08,1.48-2.92,3.29-1.87Zm-76,11.56,75.65,43.68.13-51.89L193,88.1,192.88,140Z"/><path class="cls-3" d="M276,96.15,242.66,77.38a1.31,1.31,0,0,0-1.19-.15l-.12,0-.12,0-.12,0-.12,0-.12,0-.12,0-.12,0-.12,0-.12,0-.12,0-.12,0-.12,0-.12,0-.12,0-.12,0-.12,0-.12,0-.12,0-.12,0-.12,0-.12,0-.12,0-.12,0-.12,0-.12,0-.12,0-.12,0-.12,0-.12,0-.12,0c-.78.21-1.31,1.28-1.31,2.88v30.35c0,2.27,1.07,4.74,2.38,5.51l4.75,2.81v9.29l.12-.11v.07l.12-.11v.07l.12-.11v.07l.12-.11v.07l.12-.11v.07l.12-.11V129l.12-.11V129l.12-.11V129l.12-.11v.07l.12-.11v.07l.12-.11v.07l.12-.11v.07l.12-.11v.07l.12-.11v.07l.12-.11v.07l.12-.11v.07l.12-.11v.07l.12-.11v.07l.12-.11v.07l.12-.11v.07l.12-.11v.07l.12-.11v.07l.12-.11v.07l.12-.11v.07l.12-.11v.07l.12-.11v.07l.12-.11v.07l.12-.11v.07l.12-.11v.07l.12-.11v.07l.12-.11V128l3.92-3.52L273.15,136a1.31,1.31,0,0,0,1.19.15l.12,0,.12,0c2.39-1,3.84-.92,3.84-4V101.67C278.42,99.4,277.35,96.93,276,96.15Z"/><path class="cls-2" d="M273.15,97.39,238.94,78.62c-1.32-.78-2.38.43-2.38,2.69v30.35c0,2.27,1.07,4.74,2.38,5.51l4.75,2.81v9.29l6.23-5.6L273.15,136c1.32.78,2.38-.42,2.38-2.69V102.91C275.53,100.64,274.47,98.17,273.15,97.39Z"/><path class="cls-10" d="M249.2,104.73c0,1.19-.56,1.82-1.25,1.41a3.66,3.66,0,0,1-1.25-2.9c0-1.19.56-1.82,1.25-1.41A3.66,3.66,0,0,1,249.2,104.73Z"/><path class="cls-10" d="M256.61,109.12c0,1.19-.56,1.82-1.25,1.41a3.66,3.66,0,0,1-1.25-2.9c0-1.19.56-1.82,1.25-1.41A3.66,3.66,0,0,1,256.61,109.12Z"/><path class="cls-10" d="M264,113.52c0,1.19-.56,1.82-1.25,1.41a3.66,3.66,0,0,1-1.25-2.9c0-1.19.56-1.82,1.25-1.41A3.66,3.66,0,0,1,264,113.52Z"/><polygon class="cls-13" points="142.58 233.18 125.22 223.09 112.95 216.1 130.31 226.19 142.58 233.18"/><path class="cls-3" d="M175,249.21v-6l-1.74,1v6h0a2.3,2.3,0,0,1-1,2.1l1.74-1a2.3,2.3,0,0,0,1-2.11Z"/><path class="cls-3" d="M141.35,235.32,124,225.23a3.59,3.59,0,0,1,1.51,3.28,3.53,3.53,0,0,1-1.6,2.76l-9.47,5.46a1.91,1.91,0,0,0-.87,1.51.61.61,0,0,0,.26.56l17.36,10.09a.61.61,0,0,1-.26-.56,1.92,1.92,0,0,1,.87-1.51l9.47-5.47a3.52,3.52,0,0,0,1.6-2.76A3.59,3.59,0,0,0,141.35,235.32Z"/><path class="cls-4" d="M130.31,226.19l-1.23,2.13,12.26,7a3.59,3.59,0,0,1,1.51,3.28,3.52,3.52,0,0,1-1.6,2.76l-9.47,5.47a1.92,1.92,0,0,0-.87,1.51c0,.55.39.78.87.5l9.47-5.47a5.69,5.69,0,0,0,3-5,6.87,6.87,0,0,0-2.79-5.18Z"/><polygon class="cls-5" points="169.74 237.48 171.47 236.47 171.6 184.59 169.87 185.6 169.74 237.48"/><path class="cls-6" d="M93,136.84l-1.74,1a2.31,2.31,0,0,1,2.33.23l1.73-1A2.31,2.31,0,0,0,93,136.84Z"/><polygon class="cls-7" points="95.82 192.8 95.95 140.91 94.22 141.92 94.08 193.8 169.74 237.48 171.47 236.47 95.82 192.8"/><path class="cls-4" d="M173.26,244.26l-83.06-48,0,5.95a7.22,7.22,0,0,0,3.28,5.67l29.47,17,17.82,10.28L170,252.09c1.81,1,3.28.21,3.29-1.88Z"/><polygon class="cls-14" points="95.22 141.28 95.09 193.17 170.75 236.85 170.88 184.96 95.22 141.28"/><polygon class="cls-9" points="169.87 185.6 171.6 184.59 95.95 140.91 94.22 141.92 169.87 185.6"/><path class="cls-3" d="M175.13,186.9a7.29,7.29,0,0,0-3.27-5.66l-76.5-44.17a2.31,2.31,0,0,0-2.33-.23l-1.74,1a2.31,2.31,0,0,1,2.33.23l76.5,44.17a7.3,7.3,0,0,1,3.27,5.66l-.12,51.64,0,4.72,1.76-1v-4.7Z"/><path class="cls-4" d="M170.12,182.25a7.2,7.2,0,0,1,3.27,5.66l-.12,51.64v4.73l-83.07-48c0-.72,0,0,.13-56.35,0-2.08,1.48-2.92,3.29-1.87Zm-76,11.56,75.65,43.68.13-51.89L94.22,141.92l-.13,51.89Z"/><path class="cls-3" d="M152.6,136.09l-33.38-18.77a1.31,1.31,0,0,0-1.19-.15l-.12,0-.12,0-.12,0-.12,0-.12,0-.12,0-.12,0-.12,0-.12,0-.12,0-.12,0-.12,0-.12,0-.12,0-.12,0-.12,0-.12,0-.12,0-.12,0-.12,0-.12,0-.12,0-.12,0-.12,0-.12,0-.12,0-.12,0-.12,0-.12,0-.12,0c-.78.21-1.31,1.28-1.31,2.88V151.6c0,2.27,1.07,4.74,2.38,5.51l4.75,2.81v9.29l.12-.11v.07l.12-.11v.07l.12-.11v.07l.12-.11v.07l.12-.11V169l.12-.11V169l.12-.11v.07l.12-.11v.07l.12-.11v.07l.12-.11v.07l.12-.11v.07l.12-.11v.07l.12-.11v.07l.12-.11v.07l.12-.11v.07l.12-.11v.07l.12-.11v.07l.12-.11v.07l.12-.11v.07l.12-.11v.07l.12-.11v.07l.12-.11v.07l.12-.11v.07l.12-.11v.07l.12-.11v.07l.12-.11v.07l.12-.11v.07l.12-.11v.07l.12-.11v.07l.12-.11V168l.12-.11V168l3.92-3.52,21.83,11.44a1.31,1.31,0,0,0,1.19.15l.12,0,.12,0c2.39-1,3.84-.92,3.84-4V141.61C155,139.34,153.92,136.87,152.6,136.09Z"/><path class="cls-2" d="M149.71,137.33l-34.21-18.77c-1.32-.78-2.38.42-2.38,2.69V151.6c0,2.27,1.07,4.74,2.38,5.51l4.75,2.81v9.29l6.23-5.6,23.24,12.27c1.32.78,2.38-.42,2.38-2.69V142.85C152.1,140.58,151,138.11,149.71,137.33Z"/><path class="cls-10" d="M125.76,144.67c0,1.19-.56,1.82-1.25,1.41a3.66,3.66,0,0,1-1.25-2.9c0-1.19.56-1.82,1.25-1.41A3.66,3.66,0,0,1,125.76,144.67Z"/><path class="cls-10" d="M133.18,149.07c0,1.19-.56,1.82-1.25,1.41a3.66,3.66,0,0,1-1.25-2.9c0-1.19.56-1.82,1.25-1.41A3.66,3.66,0,0,1,133.18,149.07Z"/><path class="cls-10" d="M140.59,153.46c0,1.19-.56,1.82-1.25,1.41a3.66,3.66,0,0,1-1.25-2.9c0-1.19.56-1.82,1.25-1.41A3.66,3.66,0,0,1,140.59,153.46Z"/><path class="cls-15" d="M124.84,191.29c-5,0-6.55.63-7.15,1-.92.53-1.43,4.15-2,7.17l11.4,6.5,11.4,6.5c-.54-3.64-1.05-7.85-2-9.42-.6-1-2.05-3.33-7.09-9.06Z"/><path class="cls-16" d="M124.84,191.29c-5,0-6.55.63-7.15,1-.92.53-1.43,4.15-2,7.17l11.4,6.5,11.4,6.5c-.54-3.64-1.05-7.85-2-9.42-.6-1-2.05-3.33-7.09-9.06Z"/><path class="cls-17" d="M124.67,185.52v7.21c1.35,2.82,3.55,4.15,4.89,2.79v-7.21C129.57,184.42,124.67,181.63,124.67,185.52Z"/><path class="cls-17" d="M122,179.47c.43.06,1,1,1.22,2.11s.1,1.94-.34,1.88-1-1-1.22-2.11S121.59,179.41,122,179.47Z"/><path class="cls-17" d="M132.2,185.28c-.43-.43-1-.11-1.23.71a2.52,2.52,0,0,0,.34,2.26c.43.43,1,.11,1.23-.71A2.52,2.52,0,0,0,132.2,185.28Z"/><path class="cls-18" d="M127.13,195.69s-3.42-.9-3.42-.63,1.3,9.68,1.3,9.68l4.64,2.64.53-8.6Z"/><polygon class="cls-19" points="124.67 191.29 124.67 192.72 125.74 205.15 123.91 204.11 121.9 197.7 123.82 197.14 121.47 194.39 123.63 191.3 124.67 191.29"/><polygon class="cls-19" points="129.57 194.09 129.57 195.51 128.49 206.72 130.32 207.77 132.33 203.65 130.41 200.9 132.76 200.83 130.84 195.55 129.57 194.09"/><path class="cls-20" d="M126.07,196.55l.59,1.52.92.52.59-.85-1-2.05Z"/><polygon class="cls-20" points="126.66 198.07 125.82 205.2 128.42 206.69 127.58 198.59 126.66 198.07"/><path class="cls-18" d="M124.67,190.34l-.21,1,.6,5.93,2.08-1.53Z"/><path class="cls-21" d="M124.67,189v.23s1.25,2.63,2.44,3.38,2.45-.45,2.45-.45v-.35"/><path class="cls-17" d="M127.12,174c-7.53-4.29-4.64,10.65-4.15,12s2.94,5.27,4.15,6,3.61-.42,4.15-1.23S134.65,178.27,127.12,174Z"/><path class="cls-3" d="M130.5,176.21c-2.54-4-6.47-4.73-7.65-3.26-1.48,1.85-1,6.23-.61,9.5h0l0,.1s0,.12.06.15.1.06.14.06,0,0,0,0c0-.26,0-.81,0-.81,0-.44-.1-.89-.15-1.33.24-1.8.94-1.81,1.31-3.93a3.25,3.25,0,0,1,.25-.31,1.56,1.56,0,0,1,.33-.29l.19-.06c1.37.13,2.78,1.71,4.07,3.13a6.18,6.18,0,0,0,1.59,1.42c.23.11.41,0,.43-.23.62,2.74,1.13,4.14,1.43,6.06,0,.28-.09.56-.11.86,0,0,0,.54,0,.81a.09.09,0,0,0,0,.05s.12.12.14.1a.48.48,0,0,0,.06-.08,1.68,1.68,0,0,0,0-.31c0-.14,0-.3.05-.45C132.49,185.68,133.21,178.57,130.5,176.21Zm-3.85.34-.13-.12.19.17Z"/><path class="cls-18" d="M129.57,193.13l.17,1.15-.56,5.34-2-3.93Z"/><polyline class="cls-22" points="124.67 190.34 127.13 195.69 129.57 193.13 129.57 193.04 127.13 195.58 124.67 190.25 124.67 190.34"/><polygon class="cls-23" points="126.66 198.07 127.58 198.59 127.58 198.64 126.66 198.11 126.66 198.07"/><polygon class="cls-11" points="273.15 303.99 255.79 293.9 254.56 296.04 271.92 306.12 273.15 303.99"/><polygon class="cls-13" points="278.01 308.51 260.65 298.42 248.38 291.43 265.74 301.52 278.01 308.51"/><path class="cls-3" d="M276.78,310.65l-17.36-10.09a3.59,3.59,0,0,1,1.51,3.28,3.53,3.53,0,0,1-1.6,2.76l-9.47,5.46a1.91,1.91,0,0,0-.87,1.51.61.61,0,0,0,.26.56l17.36,10.09a.61.61,0,0,1-.26-.56,1.92,1.92,0,0,1,.87-1.51l9.47-5.47a3.52,3.52,0,0,0,1.6-2.76A3.59,3.59,0,0,0,276.78,310.65Z"/><path class="cls-4" d="M265.74,301.52l-1.23,2.13,12.26,7a3.59,3.59,0,0,1,1.51,3.28,3.52,3.52,0,0,1-1.6,2.76l-9.47,5.47a1.92,1.92,0,0,0-.87,1.51c0,.55.39.78.87.5l9.47-5.47a5.69,5.69,0,0,0,3-5,6.87,6.87,0,0,0-2.79-5.18Z"/><polygon class="cls-5" points="305.17 312.81 306.9 311.8 307.03 259.92 305.3 260.93 305.17 312.81"/><path class="cls-6" d="M228.45,212.17l-1.74,1a2.31,2.31,0,0,1,2.33.23l1.73-1A2.31,2.31,0,0,0,228.45,212.17Z"/><polygon class="cls-7" points="231.25 268.13 231.38 216.24 229.64 217.25 229.51 269.13 305.17 312.81 306.9 311.8 231.25 268.13"/><path class="cls-4" d="M308.69,319.59l-83.06-48,0,5.95a7.22,7.22,0,0,0,3.28,5.67l29.47,17,17.82,10.28,29.25,16.88c1.81,1,3.28.21,3.29-1.88Z"/><polygon class="cls-24" points="230.65 216.61 230.52 268.5 306.17 312.18 306.31 260.29 230.65 216.61"/><polygon class="cls-9" points="305.3 260.93 307.03 259.92 231.38 216.24 229.64 217.25 305.3 260.93"/><path class="cls-3" d="M310.45,318.57v-4.7l.12-51.64a7.29,7.29,0,0,0-3.27-5.66l-76.5-44.17a2.31,2.31,0,0,0-2.33-.23l-1.74,1a2.31,2.31,0,0,1,2.33.23l76.5,44.17a7.3,7.3,0,0,1,3.27,5.66l-.12,51.64,0,4.72h0l0,6a2.3,2.3,0,0,1-1,2.1l1.74-1a2.3,2.3,0,0,0,1-2.11v-6Z"/><path class="cls-4" d="M305.55,257.58a7.2,7.2,0,0,1,3.27,5.66l-.12,51.64v4.73l-83.07-48c0-.72,0,0,.13-56.35,0-2.08,1.48-2.92,3.29-1.87Zm-76,11.56,75.65,43.68.13-51.89-75.65-43.68-.13,51.89Z"/><path class="cls-3" d="M281.3,207.52l-33.38-18.77a1.31,1.31,0,0,0-1.19-.15l-.12,0-.12,0-.12,0-.12,0-.12,0-.12,0-.12,0-.12,0-.12,0-.12,0-.12,0-.12,0-.12,0-.12,0-.12,0-.12,0-.12,0-.12,0-.12,0-.12,0-.12,0-.12,0-.12,0-.12,0-.12,0-.12,0-.12,0-.12,0-.12,0-.12,0c-.78.21-1.31,1.28-1.31,2.88V223c0,2.27,1.07,4.74,2.38,5.51l4.75,2.81v9.29l.12-.11v.07l.12-.11v.07l.12-.11v.07l.12-.11v.07l.12-.11v.07l.12-.11v.07l.12-.11v.07l.12-.11v.07l.12-.11v.07l.12-.11v.07l.12-.11v.07l.12-.11v.07l.12-.11v.07l.12-.11v.07l.12-.11V240l.12-.11V240l.12-.11V240l.12-.11v.07l.12-.11v.07l.12-.11v.07l.12-.11v.07l.12-.11v.07l.12-.11v.07l.12-.11v.07l.12-.11v.07l.12-.11v.07l.12-.11v.07l.12-.11v.07l.12-.11v.07l.12-.11v.07l.12-.11v.07l3.92-3.52,21.83,11.44a1.31,1.31,0,0,0,1.19.15l.12,0,.12,0c2.39-1,3.84-.92,3.84-4V213C283.69,210.77,282.62,208.3,281.3,207.52Z"/><path class="cls-2" d="M278.42,208.76,244.21,190c-1.32-.78-2.38.42-2.38,2.69V223c0,2.27,1.07,4.74,2.38,5.51l4.75,2.81v9.29l6.23-5.6,23.24,12.27c1.32.78,2.38-.42,2.38-2.69V214.28C280.8,212,279.73,209.54,278.42,208.76Z"/><path class="cls-10" d="M254.46,216.1c0,1.19-.56,1.82-1.25,1.41a3.66,3.66,0,0,1-1.25-2.9c0-1.19.56-1.82,1.25-1.41A3.66,3.66,0,0,1,254.46,216.1Z"/><path class="cls-10" d="M261.88,220.49c0,1.19-.56,1.82-1.25,1.41a3.66,3.66,0,0,1-1.25-2.9c0-1.19.56-1.82,1.25-1.41A3.66,3.66,0,0,1,261.88,220.49Z"/><path class="cls-10" d="M269.29,224.89c0,1.19-.56,1.82-1.25,1.41a3.66,3.66,0,0,1-1.25-2.9c0-1.19.56-1.82,1.25-1.41A3.66,3.66,0,0,1,269.29,224.89Z"/><path class="cls-3" d="M410.45,390.92,393.1,380.83a3.59,3.59,0,0,1,1.51,3.28,3.53,3.53,0,0,1-1.6,2.76l-9.47,5.46a1.91,1.91,0,0,0-.87,1.51.61.61,0,0,0,.26.56l17.36,10.09a.61.61,0,0,1-.26-.56,1.92,1.92,0,0,1,.87-1.51l9.47-5.47a3.52,3.52,0,0,0,1.6-2.76A3.59,3.59,0,0,0,410.45,390.92Z"/><path class="cls-4" d="M399.42,381.79l-1.23,2.13,12.26,7A3.59,3.59,0,0,1,412,394.2a3.52,3.52,0,0,1-1.6,2.76l-9.47,5.47a1.92,1.92,0,0,0-.87,1.51c0,.55.39.78.87.5l9.47-5.47a5.69,5.69,0,0,0,3-5,6.87,6.87,0,0,0-2.79-5.18Z"/><polygon class="cls-5" points="438.84 393.08 440.58 392.07 440.71 340.19 438.98 341.19 438.84 393.08"/><path class="cls-6" d="M362.13,292.44l-1.74,1a2.31,2.31,0,0,1,2.33.23l1.73-1A2.31,2.31,0,0,0,362.13,292.44Z"/><polygon class="cls-7" points="364.92 348.39 365.06 296.51 363.32 297.51 363.19 349.4 438.84 393.08 440.58 392.07 364.92 348.39"/><path class="cls-4" d="M442.37,399.86l-83.06-48,0,5.95a7.22,7.22,0,0,0,3.28,5.67l29.47,17,17.82,10.28,29.25,16.88c1.81,1,3.28.21,3.29-1.88Z"/><polygon class="cls-25" points="364.33 296.88 364.2 348.77 439.85 392.45 439.99 340.56 364.33 296.88"/><polygon class="cls-9" points="438.98 341.19 440.71 340.19 365.06 296.51 363.32 297.51 438.98 341.19"/><path class="cls-3" d="M444.13,398.84v-4.7l.12-51.64a7.29,7.29,0,0,0-3.27-5.66l-76.5-44.17a2.31,2.31,0,0,0-2.33-.23l-1.74,1a2.31,2.31,0,0,1,2.33.23l76.5,44.17a7.3,7.3,0,0,1,3.27,5.66l-.12,51.64,0,4.72h0l0,6a2.3,2.3,0,0,1-1,2.1l1.74-1a2.3,2.3,0,0,0,1-2.11v-6Z"/><path class="cls-4" d="M439.23,337.85a7.2,7.2,0,0,1,3.27,5.66l-.12,51.64v4.73l-83.07-48c0-.72,0,0,.13-56.35,0-2.08,1.48-2.92,3.29-1.87Zm-76,11.56,75.65,43.68.13-51.89-75.65-43.68-.13,51.89Z"/><path class="cls-3" d="M426.59,287.87,393.22,269.1a1.31,1.31,0,0,0-1.19-.15l-.12,0-.12,0-.12,0-.12,0-.12,0-.12,0-.12,0-.12,0-.12,0-.12,0-.12,0-.12,0-.12,0-.12,0-.12,0-.12,0-.12,0-.12,0-.12,0-.12,0-.12,0-.12,0-.12,0-.12,0-.12,0-.12,0-.12,0-.12,0-.12,0-.12,0c-.78.21-1.31,1.28-1.31,2.88v30.35c0,2.27,1.07,4.74,2.38,5.51l4.75,2.81V321l.12-.11V321l.12-.11v.07l.12-.11v.07l.12-.11v.07l.12-.11v.07l.12-.11v.07l.12-.11v.07l.12-.11v.07l.12-.11v.07l.12-.11v.07l.12-.11v.07l.12-.11v.07l.12-.11v.07l.12-.11v.07l.12-.11v.07l.12-.11v.07l.12-.11v.07l.12-.11v.07l.12-.11v.07l.12-.11v.07l.12-.11v.07l.12-.11v.07L397,320v.07l.12-.11V320l.12-.11V320l.12-.11V320l.12-.11v.07l.12-.11v.07l.12-.11v.07l.12-.11v.07l.12-.11v.07l3.92-3.52,21.83,11.44a1.31,1.31,0,0,0,1.19.15l.12,0,.12,0c2.39-1,3.84-.92,3.84-4V293.39C429,291.12,427.91,288.65,426.59,287.87Z"/><path class="cls-2" d="M423.71,289.11,389.5,270.34c-1.32-.78-2.38.42-2.38,2.69v30.35c0,2.27,1.07,4.74,2.38,5.51l4.75,2.81V321l6.23-5.6,23.24,12.27c1.32.78,2.38-.42,2.38-2.69V294.63C426.09,292.36,425,289.89,423.71,289.11Z"/><path class="cls-10" d="M399.75,296.45c0,1.19-.56,1.82-1.25,1.41a3.66,3.66,0,0,1-1.25-2.9c0-1.19.56-1.82,1.25-1.41A3.66,3.66,0,0,1,399.75,296.45Z"/><path class="cls-10" d="M407.17,300.84c0,1.19-.56,1.82-1.25,1.41a3.66,3.66,0,0,1-1.25-2.9c0-1.19.56-1.82,1.25-1.41A3.66,3.66,0,0,1,407.17,300.84Z"/><path class="cls-10" d="M414.59,305.24c0,1.19-.56,1.82-1.25,1.41a3.66,3.66,0,0,1-1.25-2.9c0-1.19.56-1.82,1.25-1.41A3.66,3.66,0,0,1,414.59,305.24Z"/><path class="cls-15" d="M260.07,266.24c-5,0-6.55.63-7.15,1-.92.53-1.43,4.15-2,7.17l11.4,6.5,11.4,6.5c-.54-3.64-1.05-7.85-2-9.42-.6-1-2.05-3.33-7.09-9.06Z"/><path class="cls-18" d="M260.07,266.24c-5,0-6.55.63-7.15,1-.92.53-1.43,4.15-2,7.17l11.4,6.5,11.4,6.5c-.54-3.64-1.05-7.85-2-9.42-.6-1-2.05-3.33-7.09-9.06Z"/><path class="cls-17" d="M259.9,260.46v7.21c1.35,2.82,3.55,4.15,4.89,2.79v-7.21C264.8,259.36,259.9,256.57,259.9,260.46Z"/><path class="cls-17" d="M257.25,254.42c.43.06,1,1,1.22,2.11s.1,1.94-.34,1.88-1-1-1.22-2.11S256.82,254.36,257.25,254.42Z"/><path class="cls-17" d="M267.43,260.23c-.43-.43-1-.11-1.23.71a2.52,2.52,0,0,0,.34,2.26c.43.43,1,.11,1.23-.71A2.52,2.52,0,0,0,267.43,260.23Z"/><path class="cls-18" d="M262.36,270.64s-3.42-.9-3.42-.63,1.3,9.68,1.3,9.68l4.64,2.64.53-8.6Z"/><path class="cls-26" d="M261.3,271.5l.59,1.52.92.52.59-.85-1-2.05Z"/><polygon class="cls-26" points="261.89 273.02 261.05 280.15 263.65 281.63 262.81 273.54 261.89 273.02"/><path class="cls-18" d="M259.9,265.29l-.21,1,.6,5.93,2.08-1.53Z"/><path class="cls-21" d="M259.9,264v.23s1.25,2.63,2.44,3.38,2.45-.46,2.45-.46v-.35"/><path class="cls-17" d="M262.35,248.93c-7.53-4.29-4.64,10.65-4.15,12s2.94,5.27,4.15,6,3.61-.42,4.15-1.23S269.88,253.22,262.35,248.93Z"/><path class="cls-7" d="M265.73,251.16c-2.54-4-6.47-4.73-7.65-3.26-1.48,1.85-1,6.23-.61,9.5h0l0,.1s0,.12.06.15.1.06.14.06,0,0,0,0c0-.26,0-.81,0-.81,0-.44-.1-.89-.15-1.33.24-1.8.94-1.81,1.31-3.93a3.22,3.22,0,0,1,.25-.31,1.55,1.55,0,0,1,.33-.29l.19-.06c1.37.13,2.78,1.71,4.07,3.13a6.18,6.18,0,0,0,1.59,1.42c.23.11.41,0,.43-.23.62,2.74,1.13,4.14,1.43,6.06,0,.28-.09.56-.11.86,0,0,0,.54,0,.81a.09.09,0,0,0,0,.05s.12.12.14.1a.49.49,0,0,0,.06-.08,1.69,1.69,0,0,0,0-.31c0-.14,0-.3.05-.45C267.72,260.62,268.44,253.52,265.73,251.16Zm-3.85.34-.13-.12.19.17Z"/><path class="cls-18" d="M264.8,268.08l.17,1.15-.56,5.34-2-3.93Z"/><polyline class="cls-22" points="259.9 265.29 262.36 270.64 264.8 268.08 264.8 267.99 262.36 270.53 259.9 265.2 259.9 265.29"/><polygon class="cls-23" points="261.89 273.02 262.81 273.54 262.81 273.58 261.89 273.05 261.89 273.02"/><path class="cls-7" d="M260,261a1.81,1.81,0,0,1,2.39-.63,7.62,7.62,0,0,1,1.59,1,6.12,6.12,0,0,1,.85,1.83l2.34-1.93s.43-.62.43-.53-1,5.16-1,5.16-1.93,1.93-4,1.48-4.74-6.58-4.74-6.58l-.16-3.19,2,3.85Z"/><path class="cls-15" d="M400.83,348.92c-5,0-6.55.63-7.15,1-.92.53-1.43,4.15-2,7.17l11.4,6.5,11.4,6.5c-.54-3.64-1.05-7.85-2-9.42-.6-1-2.05-3.33-7.09-9.06Z"/><path class="cls-16" d="M400.83,348.92c-5,0-6.55.63-7.15,1-.92.53-1.43,4.15-2,7.17l11.4,6.5,11.4,6.5c-.54-3.64-1.05-7.85-2-9.42-.6-1-2.05-3.33-7.09-9.06Z"/><path class="cls-17" d="M400.66,343.14v7.21c1.35,2.82,3.55,4.15,4.89,2.79v-7.21C405.56,342,400.66,339.25,400.66,343.14Z"/><path class="cls-17" d="M398,337.1c.43.06,1,1,1.22,2.11s.1,1.94-.34,1.88-1-1-1.22-2.11S397.58,337,398,337.1Z"/><path class="cls-17" d="M408.19,342.9c-.43-.43-1-.11-1.23.71a2.52,2.52,0,0,0,.34,2.26c.43.43,1,.11,1.23-.71A2.52,2.52,0,0,0,408.19,342.9Z"/><path class="cls-18" d="M403.12,353.32s-3.42-.9-3.42-.63,1.3,9.68,1.3,9.68l4.64,2.64.53-8.6Z"/><polygon class="cls-19" points="400.66 348.92 400.66 350.35 401.73 362.77 399.9 361.73 397.89 355.32 399.81 354.76 397.46 352.01 399.62 348.93 400.66 348.92"/><polygon class="cls-19" points="405.56 351.71 405.56 353.14 404.49 364.35 406.31 365.39 408.32 361.27 406.4 358.53 408.75 358.45 406.83 353.17 405.56 351.71"/><path class="cls-20" d="M402.06,354.17l.59,1.52.92.52.59-.85-1-2.05Z"/><polygon class="cls-20" points="402.65 355.69 401.81 362.82 404.41 364.31 403.57 356.22 402.65 355.69"/><path class="cls-18" d="M400.66,348l-.21,1,.6,5.93,2.08-1.53Z"/><path class="cls-21" d="M400.66,346.63v.23s1.25,2.63,2.44,3.38,2.45-.46,2.45-.46v-.35"/><path class="cls-17" d="M403.12,331.6c-7.53-4.29-4.64,10.65-4.15,12s2.94,5.27,4.15,6,3.61-.42,4.15-1.23S410.64,335.89,403.12,331.6Z"/><path class="cls-3" d="M406.49,333.84c-2.54-4-6.47-4.73-7.65-3.26-1.48,1.85-1,6.23-.61,9.5h0l0,.1s0,.12.06.15.1.06.14.06,0,0,0,0c0-.26,0-.81,0-.81,0-.44-.1-.89-.15-1.33.24-1.8.94-1.81,1.31-3.93a3.25,3.25,0,0,1,.25-.31,1.56,1.56,0,0,1,.33-.29l.19-.06c1.37.13,2.78,1.71,4.07,3.13a6.18,6.18,0,0,0,1.59,1.42c.23.11.41,0,.43-.23.62,2.74,1.13,4.14,1.43,6.06,0,.28-.09.56-.11.86,0,0,0,.54,0,.81a.09.09,0,0,0,0,.05s.12.12.14.1a.47.47,0,0,0,.06-.08,1.68,1.68,0,0,0,0-.31c0-.14,0-.3.05-.45C408.48,343.3,409.2,336.2,406.49,333.84Zm-3.85.34-.13-.12.19.17Z"/><path class="cls-18" d="M405.56,350.76l.17,1.15-.56,5.34-2-3.93Z"/><polyline class="cls-22" points="400.66 347.96 403.12 353.32 405.56 350.75 405.56 350.66 403.12 353.2 400.66 347.87 400.66 347.96"/><polygon class="cls-23" points="402.65 355.69 403.57 356.22 403.57 356.26 402.65 355.73 402.65 355.69"/><path class="cls-17" d="M365.52,209.17c-.43-.43-1-.11-1.23.71a2.52,2.52,0,0,0,.34,2.26c.43.43,1,.11,1.22-.71A2.52,2.52,0,0,0,365.52,209.17Z"/><path class="cls-15" d="M358.16,215.18c-5,0-6.55.63-7.15,1-.92.53-1.43,4.15-2,7.17l11.4,6.5,11.4,6.5c-.54-3.64-1.05-7.85-2-9.42-.6-1-2.05-3.33-7.09-9.06Z"/><path class="cls-16" d="M358.16,215.18c-5,0-6.55.63-7.15,1-.92.53-1.43,4.15-2,7.17l11.4,6.5,11.4,6.5c-.54-3.64-1.05-7.85-2-9.42-.6-1-2.05-3.33-7.09-9.06Z"/><path class="cls-17" d="M358,209.4v7.21c1.35,2.82,3.55,4.15,4.89,2.79v-7.21C362.88,208.3,358,205.51,358,209.4Z"/><path class="cls-17" d="M355.33,203.36c.43.06,1,1,1.22,2.11s.1,1.94-.34,1.88-1-1-1.22-2.11S354.9,203.3,355.33,203.36Z"/><path class="cls-18" d="M358,214.23l-.21,1,.6,5.93,2.08-1.53Z"/><path class="cls-21" d="M358,212.89v.23s1.25,2.63,2.44,3.38,2.45-.46,2.45-.46v-.35"/><path class="cls-17" d="M360.44,197.86c-7.53-4.29-4.64,10.65-4.15,12s2.94,5.27,4.15,6,3.61-.42,4.15-1.23S368,202.16,360.44,197.86Z"/><path class="cls-3" d="M363.82,200.1c-2.54-4-6.47-4.73-7.65-3.26-1.86,2.32-.95,6.85-.6,9.51,0,.12.06.28.19.29.15-.82-.88-2.71-.07-2.5,6.46,1.67,7.14,0,7.69.29.23.11.41,0,.43-.23.62,2.74,1.13,4.14,1.43,6.06,0,.28-.09.56-.11.86,0,0,0,.54,0,.81a.09.09,0,0,0,0,.05s.12.12.14.1a.49.49,0,0,0,.06-.08,1.69,1.69,0,0,0,0-.31c0-.14,0-.3.05-.45C365.8,209.56,366.53,202.46,363.82,200.1Z"/><path class="cls-18" d="M362.88,217l.17,1.15-.56,5.34-2-3.93Z"/><polyline class="cls-22" points="357.99 214.23 360.45 219.58 362.88 217.02 362.88 216.93 360.45 219.47 357.99 214.13 357.99 214.23"/><polygon class="cls-23" points="359.98 221.96 360.89 222.48 360.9 222.52 359.97 221.99 359.98 221.96"/><path class="cls-16" d="M364.13,196.59c.57,2.38-.33,4.31-2,4.31s-3.52-1.93-4.09-4.31.33-4.31,2-4.31S363.56,194.21,364.13,196.59Z"/><path class="cls-15" d="M225.18,134.59c-5,0-6.55.63-7.15,1-.92.53-1.43,4.15-2,7.17l11.4,6.5,11.4,6.5c-.54-3.64-1.05-7.85-2-9.42-.6-1-2.05-3.33-7.09-9.06Z"/><path class="cls-16" d="M225.18,134.59c-5,0-6.55.63-7.15,1-.92.53-1.43,4.15-2,7.17l11.4,6.5,11.4,6.5c-.54-3.64-1.05-7.85-2-9.42-.6-1-2.05-3.33-7.09-9.06Z"/><path class="cls-17" d="M225,128.82V136c1.35,2.82,3.55,4.15,4.89,2.79v-7.21C229.91,127.72,225,124.93,225,128.82Z"/><path class="cls-17" d="M222.36,122.77c.43.06,1,1,1.22,2.11s.1,1.94-.34,1.88-1-1-1.22-2.11S221.93,122.71,222.36,122.77Z"/><path class="cls-17" d="M232.54,128.58c-.43-.43-1-.11-1.23.71a2.52,2.52,0,0,0,.34,2.26c.43.43,1,.11,1.23-.71A2.52,2.52,0,0,0,232.54,128.58Z"/><path class="cls-18" d="M227.47,139s-3.42-.9-3.42-.63,1.3,9.68,1.3,9.68l4.64,2.64.53-8.6Z"/><polygon class="cls-19" points="225.01 134.59 225.01 136.02 226.08 148.45 224.25 147.41 222.24 141 224.16 140.44 221.81 137.69 223.97 134.6 225.01 134.59"/><polygon class="cls-19" points="229.91 137.39 229.91 138.81 228.84 150.03 230.66 151.07 232.67 146.95 230.75 144.2 233.1 144.13 231.18 138.85 229.91 137.39"/><path class="cls-20" d="M226.41,139.85l.59,1.52.92.52.59-.85-1-2.05Z"/><polygon class="cls-20" points="227 141.37 226.16 148.5 228.76 149.99 227.92 141.9 227 141.37"/><path class="cls-18" d="M225,133.64l-.21,1,.6,5.93,2.08-1.53Z"/><path class="cls-21" d="M225,132.31v.23s1.25,2.63,2.44,3.38,2.45-.46,2.45-.46v-.35"/><path class="cls-17" d="M227.74,116.52c-7.53-4.29-4.92,11.42-4.42,12.72s2.94,5.27,4.15,6,3.61-.42,4.15-1.23S235.27,120.81,227.74,116.52Z"/><path class="cls-3" d="M230.84,119.51c-2.54-4-6.47-4.73-7.65-3.26-1.48,1.85-1,6.23-.61,9.5h0l0,.1s0,.12.06.15.1.06.14.06,0,0,0,0c0-.26,0-.81,0-.81,0-.44-.1-.89-.15-1.33.24-1.8.94-1.81,1.31-3.93a3.27,3.27,0,0,1,.25-.31c.1-.11.7-4,2.51-3.42,2.87,1,3.1,2.6,3.63,3.65.11.23,1.6,7.89,1.9,9.81,0,.28-.09.56-.11.86,0,0,0,.54,0,.81a.09.09,0,0,0,0,.05s.12.12.14.1a.5.5,0,0,0,.06-.08,1.69,1.69,0,0,0,0-.31c0-.14,0-.3.05-.45C232.83,129,233.55,121.87,230.84,119.51Z"/><path class="cls-18" d="M229.91,136.43l.17,1.15-.56,5.34-2-3.93Z"/><polyline class="cls-22" points="225.01 133.64 227.47 138.99 229.91 136.43 229.91 136.34 227.47 138.88 225.01 133.55 225.01 133.64"/><polygon class="cls-23" points="227 141.37 227.92 141.9 227.93 141.94 227 141.41 227 141.37"/><path class="cls-2" d="M122.64,406.63l-.26-1.21,6-1.28.26,1.21Zm-1.35-.86-.66-1,5.22-3.3.66,1Zm14.63-2-.26-1.21,6-1.28.26,1.21ZM149.22,401l-.26-1.21,6-1.28.26,1.21Zm-16.45-2.49-.66-1,5.22-3.3.66,1Zm29.73-.33-.26-1.21,6-1.28.26,1.21Zm13.29-2.82-.26-1.21,6-1.28.26,1.21Zm13.29-2.82-.26-1.21,6-1.28.26,1.21Zm-44.83-1.3-.66-1,5.22-3.3.66,1Zm58.12-1.53-.26-1.21,6-1.28.26,1.21Zm13.29-2.82-.26-1.21,6-1.28.26,1.21Zm13.29-2.82-.26-1.21,6-1.28.26,1.21Zm-73.22-.1-.66-1,5.22-3.3.66,1Zm86.51-2.72L242,380l6-1.28.26,1.21Zm13.29-2.82-.26-1.21,6-1.28.26,1.21Zm-88.32-1.72-.66-1,5.22-3.3.66,1Zm101.61-1.1-.26-1.21,6-1.28.26,1.21Zm13.29-2.82-.26-1.21,6-1.28.26,1.21Zm13.29-2.82-.26-1.21,3.12-.66,1.38-2.07,1,.68L299,369.18Zm-116.71-.53-.66-1,5.22-3.3.66,1Zm11.48-7.27-.66-1,5.22-3.3.66,1Zm114.61-1.62-1-.68,3.42-5.14,1,.68Zm-103.13-5.65-.66-1,5.22-3.3.66,1Zm110.67-5.65-1-.69,3.43-5.14,1,.68Zm-99.19-1.61-.66-1,5.22-3.3.66,1Zm11.48-7.27-.66-1,5.22-3.3.66,1Zm95.25-2.42-1-.68,3.42-5.14,1,.68Zm7.53-11.3-1-.68,3.42-5.14,1,.68Zm7.53-11.3-1-.69,3.43-5.14,1,.68Zm7.53-11.3-1-.68,3.42-5.14,1,.68Zm7.53-11.3-1-.68,3.42-5.14,1,.68Z"/><path class="cls-2" d="M351.6,409.95l-6.17-.07v-1.23l6.17.07ZM338,409.81l-6.17-.06v-1.23l6.17.06Zm-13.58-.14-6.17-.06v-1.23l6.17.06Zm-13.58-.14-6.17-.06v-1.23l6.17.06Zm-13.58-.14-6.17-.06v-1.23l6.17.06Zm-13.58-.14-6.17-.06v-1.23l6.17.06Zm-13.58-.14-6.17-.06V407.8l6.17.06ZM256.51,409l-6.17-.06v-1.23l6.17.06Zm-13.58-.14-6.17-.06v-1.23l6.17.06Zm-13.58-.14-6.17-.06v-1.23l6.17.06Zm-13.58-.14-6.17-.06v-1.23l6.17.06Zm-13.58-.14-6.17-.06V407.1l6.17.06Zm-13.58-.14-6.17-.06V407l6.17.06ZM175,408.12l-6.17-.06v-1.23l6.17.06ZM161.43,408l-6.17-.06v-1.23l6.17.06Zm-13.58-.14-6.17-.06v-1.23l6.17.06Zm-13.58-.14-6.17-.06V406.4l6.17.06Zm-13.58-.14-3.37,0,2.25-4.27,1.09.58-1.31,2.48h1.35Zm3.42-10.28L123,396.7l2.88-5.46,1.09.58Zm6.33-12-1.09-.58,2.88-5.46,1.09.58Zm6.33-12-1.09-.58,2.88-5.46,1.09.58Zm6.33-12-1.09-.58,2.88-5.46,1.09.58Zm6.33-12-1.09-.58,2.88-5.46,1.09.58Zm6.33-12-1.09-.58,2.88-5.46,1.09.58Zm6.33-12-1.09-.58,2.88-5.46,1.09.58Zm6.33-12-1.09-.58,2.88-5.46,1.09.58Zm6.33-12-1.09-.58,2.88-5.46,1.09.58Zm6.33-12-1.09-.58,2.88-5.46,1.09.58Zm6.33-12-1.09-.58L189.2,271l1.09.58Zm5.68-12.41-1.18-.38,1.88-5.88,1.18.38Zm4.14-12.94-1.18-.38,1.88-5.88,1.18.38Zm4.14-12.94-1.18-.38,1.88-5.88,1.18.38Zm4.14-12.94-1.18-.38,1.88-5.88,1.18.38Zm4.14-12.94-1.18-.38,1.88-5.88,1.18.38Z"/><path class="cls-2" d="M117.71,406.93l-.13-5,1.23,0,.13,5Zm-.33-12.39-.16-6.17,1.23,0,.16,6.17ZM117,381l-.16-6.17,1.23,0,.16,6.17Zm-.36-13.58-.16-6.17,1.23,0,.16,6.17Zm-.36-13.58-.16-6.17,1.23,0,.16,6.17ZM116,340.22l-.16-6.17,1.23,0,.16,6.17Zm-.36-13.58-.16-6.17,1.23,0,.16,6.17Zm-.36-13.58-.16-6.17,1.23,0,.16,6.17Zm-.36-13.58-.16-6.17,1.23,0,.16,6.17Zm-.36-13.58-.16-6.17,1.23,0,.16,6.17Zm-.36-13.58-.16-6.17,1.23,0,.16,6.17Z"/><path class="cls-3" d="M137.08,266.29,99.95,245.4a1.46,1.46,0,0,0-1.32-.17l-.13,0-.13,0-.13,0-.13,0-.13,0-.13,0-.13,0-.13,0-.13,0-.13,0-.13,0-.13,0-.13,0-.13,0-.13,0-.13,0-.13,0-.13,0-.13,0-.13,0-.13,0-.13,0-.13,0-.13,0-.13,0-.13,0-.13,0-.13,0-.13,0-.13,0c-.87.24-1.46,1.43-1.46,3.21v33.77c0,2.52,1.19,5.27,2.65,6.14l5.28,3.13v10.33l.13-.12v.08l.13-.12v.08l.13-.12V303l.13-.12V303l.13-.12v.08l.13-.12v.08l.13-.12v.08l.13-.12v.08l.13-.12v.08l.13-.12v.08l.13-.12v.08l.13-.12v.08l.13-.12v.08l.13-.12v.08l.13-.12v.08l.13-.12v.08l.13-.12v.08l.13-.12v.08l.13-.12v.08l.13-.12v.08l.13-.12v.08l.13-.12v.08l.13-.12v.08l.13-.12v.08l.13-.12V302l.13-.12V302l.13-.12v.08l.13-.12v.08l.13-.12v.08l.13-.12v.08l.13-.12v.08l4.36-3.92,24.29,12.72a1.46,1.46,0,0,0,1.32.17l.13,0,.13,0c2.66-1.07,4.27-1,4.27-4.45V272.42C139.73,269.9,138.55,267.16,137.08,266.29Z"/><path class="cls-27" d="M133.87,267.67,95.81,246.78c-1.46-.87-2.65.47-2.65,3v33.77c0,2.52,1.19,5.27,2.65,6.14l5.28,3.13v10.33l6.93-6.23,25.85,13.65c1.46.87,2.65-.47,2.65-3V273.8C136.52,271.28,135.33,268.54,133.87,267.67Z"/><path class="cls-10" d="M107.22,275.83c0,1.32-.62,2-1.39,1.57a4.07,4.07,0,0,1-1.39-3.22c0-1.32.62-2,1.39-1.57A4.07,4.07,0,0,1,107.22,275.83Z"/><path class="cls-10" d="M115.47,280.72c0,1.32-.62,2-1.39,1.57a4.07,4.07,0,0,1-1.39-3.22c0-1.32.62-2,1.39-1.57A4.07,4.07,0,0,1,115.47,280.72Z"/><path class="cls-10" d="M123.72,285.61c0,1.32-.62,2-1.39,1.57a4.07,4.07,0,0,1-1.39-3.22c0-1.32.62-2,1.39-1.57A4.07,4.07,0,0,1,123.72,285.61Z"/><path class="cls-3" d="M72,417.41l-.57,3.53s-.09.84.4,1.1a4.14,4.14,0,0,0,2.65.57,19.72,19.72,0,0,0,3.93-1.54s.75-1.06.88-1a8.91,8.91,0,0,0,1,0s5-2.25,5.83-3.35-.35-2.52-.35-2.52-1.46-1.32-6,.66A35.33,35.33,0,0,1,72,417.41Z"/><path class="cls-3" d="M88,425.62l-.57,3.53s-.09.84.4,1.1a4.13,4.13,0,0,0,2.65.57,19.72,19.72,0,0,0,3.93-1.54s.75-1.06.88-1a8.89,8.89,0,0,0,1,0s5-2.25,5.83-3.35-.35-2.52-.35-2.52-1.46-1.32-6,.66A35.34,35.34,0,0,1,88,425.62Z"/><path class="cls-28" d="M86.28,365.21l-.67-.22c-.61-.21-1.19-.43-1.73-.67s-1.27-.57-1.84-.84-5.43-2.17-6-2.49c0,0-3.59,45-4.37,53.62-.12,1.53-.48,4.64-.44,4.75a1.32,1.32,0,0,0,.59.65l.54.07a20.74,20.74,0,0,0,2.61.2h0a9.26,9.26,0,0,0,6-3.44l.1-.41,7.1-43C88.24,373.17,86.28,368.73,86.28,365.21Z"/><path class="cls-3" d="M133.88,317.87a.2.2,0,0,0-.14-.15l-12.2-3.25a.2.2,0,0,0-.2.05L107.8,328.1a.2.2,0,0,0,0,.2h.18a.2.2,0,0,0,.14.15l12.2,3.25a.2.2,0,0,0,.2-.05L134,318.73a.2.2,0,0,0,0-.2h-.18Z"/><path class="cls-3" d="M107.75,328.3h.18a.2.2,0,0,0,.14.15l12.2,3.25h.06l-.33-1.24-11.66-3.58-.54.54A.2.2,0,0,0,107.75,328.3Z"/><path class="cls-3" d="M107.8,328.1l13.54-13.58a.2.2,0,0,1,.2-.05l12.2,3.25a.2.2,0,0,1,.09.34l-13.54,13.58a.2.2,0,0,1-.2.05l-12.2-3.25A.2.2,0,0,1,107.8,328.1Z"/><polygon class="cls-10" points="109.37 327.86 119.92 330.67 132.26 318.3 121.7 315.49 109.37 327.86"/><polygon class="cls-3" points="109.6 327.92 121.76 315.69 132.09 318.45 132.26 318.3 121.7 315.49 109.37 327.86 109.6 327.92"/><ellipse class="cls-10" cx="114.28" cy="329.69" rx="0.35" ry="0.17" transform="translate(-81.92 41.14) rotate(-15.1)"/><polygon class="cls-10" points="119.79 323.14 120.87 322.05 121.83 322.96 119.79 323.14"/><path class="cls-10" d="M124,332.3a6.3,6.3,0,0,1,.8,1.42,4,4,0,0,0-.78,1l-.1,0a9.7,9.7,0,0,0-4.85-4.24l-.56-.2h-.07a9.51,9.51,0,0,0,.94-.93l.2-.2a6.25,6.25,0,0,1,1.15.43A9,9,0,0,1,124,332.3Z"/><path class="cls-2" d="M94.34,365.66a20.29,20.29,0,0,1-6.1-.43c-.83-.19-1.62-.4-2.37-.64,0,3.52.53,19.26.77,26.27,0,.33,0,.67,0,1,.22,3.25-.1,17.88,0,21.29,0,2.11.11,4.1.21,5.87.24,4.64.59,7.89.7,8.46a.82.82,0,0,0,.12.73,1.31,1.31,0,0,0,.57.38,5.26,5.26,0,0,0,2.43.1,11.57,11.57,0,0,0,6.64-3.57c1.85-17.5,2.67-43.48,4.85-62.31A15.65,15.65,0,0,1,94.34,365.66Z"/><path class="cls-29" d="M89.68,307.54l1.16-.48C90.24,306.73,89.6,306.86,89.68,307.54Z"/><path class="cls-29" d="M97.23,308.86c0-.82-.88-3.31-.6-3.68-.09-.75-.37-1.52-.55-2.31l-.15.08c.37,2-.61,2.54-.75,3.58-.26,2.1-2.89-3.09-2.86-2.15-.28,0-.36,2.7-.42,2.26l-1.06.44a2.15,2.15,0,0,1,1,2.32,3.86,3.86,0,0,0,0,.68c0,.66-5.78-1-5.53-.3-.65.83-.57,1.87-1,2.62-.5.12,1.7,2.61,1.21,2.57a.39.39,0,0,0,0,.34h0a7,7,0,0,1-2.16-.52c-.06.49.08,6.43-.1,6.85a39.05,39.05,0,0,1,8.24,2.86c.09-.64-.09-6.92,0-7.81a22.33,22.33,0,0,0,2.7-.09,1.61,1.61,0,0,0,.64-.43C96.28,315.63,97.27,310.29,97.23,308.86Z"/><path class="cls-3" d="M94,297.76h-.09a8.23,8.23,0,0,0-2.43-1.22,12.35,12.35,0,0,0-2.15-.42,11,11,0,0,0-6.7,1.71,7.36,7.36,0,0,0-3,10.12,10.42,10.42,0,0,0,1.4,2.21c.93,1.19,1.91,3.67,3.12,4.47a4.48,4.48,0,0,0,1.63.58c2.15.42,3.88.91,4.82-1.18a10.81,10.81,0,0,0,1.26-4,3.86,3.86,0,0,1,0-.68c.39-2.37,1.71-1.11,1.93-.12l.57.24c.94.12,2.53-6.93,1.76-6.64C97.63,302.05,95.57,298.06,94,297.76Z"/><path class="cls-3" d="M124.16,335.24c-.78-2.16-3.18-4-5.06-4.74l-.56-.2a15.77,15.77,0,0,0-1.56,1.16c-.25.2-.49.41-.73.62s-.54.48-.8.73a.77.77,0,0,1-.1.1c-1.74,1.67-3.35,3.51-5.08,5.09,1-1-7.17-10.38-8.06-11.44-5-5.94-12.9-7.82-20.25-8.61-12.18-1.31-7.7,41.33-6.4,42.63a10.87,10.87,0,0,0,1.73,1.23c.86.52,4.54,3.42,7.54,4,5.65,1.05,12.26,1,17.34-3,.21-.17.44-.31.65-.48,0-.8-1.45-17.76-1.36-22.73.95,1.16,4,6.88,5,8.26a3.21,3.21,0,0,0,2.45,1.47,3.14,3.14,0,0,0,2-.65C116.27,344.65,119.82,340.07,124.16,335.24Z"/><circle class="cls-29" cx="123.32" cy="328.46" r="2.93"/><polygon class="cls-10" points="83.35 319.08 83.19 315.92 93.46 318.61 94.73 321.93 83.35 319.08"/><ellipse class="cls-30" cx="97.94" cy="305.6" rx="0.8" ry="2.51"/><path class="cls-31" d="M98.74,305.6c-.24-.18-5,3.66-5,3.66"/></svg>