<svg id="Слой_1" data-name="Слой 1" xmlns="http://www.w3.org/2000/svg" viewBox="0 0 91.88 76.1"><defs><style>.cls-1{fill:#012c41;}</style></defs><title>WorldwideSupport</title><path class="cls-1" d="M91.78,26c-.4-1.6-2.1-2.8-5-3.4l.3-3-6.3,3a38,38,0,0,0-62.6-10.5h0l-.2.2A38,38,0,0,0,8,38a27.15,27.15,0,0,0,.1,2.9c-5.9,3.4-8.6,6.5-8,9,.7,2.7,5,3.9,11.4,4a37.9,37.9,0,0,0,71.7-8.5v-.1a35.43,35.43,0,0,0,.7-7.3c0-1,0-2-.1-3C89.28,31.8,92.48,28.7,91.78,26ZM45.88,74.1A35.86,35.86,0,0,1,13.58,54,115.48,115.48,0,0,0,29,52.5a5.6,5.6,0,0,0,0,4.4,5.83,5.83,0,0,0,3.4,3.3L36,61.6c2.5,1,5.5,3.1,6.6,4.7a3,3,0,0,0,2.6,1.4h.1c1.5,0,2.9-1.1,4-2.8l2.3-3.7a16.4,16.4,0,0,0,1.9-10.4l-.2-1.1a10.5,10.5,0,0,0-.8-2.3c3.8-1.1,7.6-2.3,11.3-3.5a7.52,7.52,0,0,0,3.3,3.5,13.3,13.3,0,0,0,5.6,1.1,17.71,17.71,0,0,0,4.1-.5L81,46.8A36.37,36.37,0,0,1,45.88,74.1Zm4.5-26.3a6.52,6.52,0,0,1,.8,2.2l.2,1.1a14.41,14.41,0,0,1-1.6,8.9l-2.3,3.7a3.57,3.57,0,0,1-2.3,1.9,1.07,1.07,0,0,1-.9-.6,17.91,17.91,0,0,0-7.6-5.4l-3.6-1.4a3.85,3.85,0,0,1-2.3-2.2,4,4,0,0,1,.1-3.2l.4-.9c5.6-1,11.5-2.2,17.2-3.7A5.85,5.85,0,0,0,50.38,47.8ZM82,38a33.87,33.87,0,0,1-.6,6.4l-5.2,1.5a14.77,14.77,0,0,1-8.4-.4,5.94,5.94,0,0,1-2.3-2.4,124.17,124.17,0,0,0,16.4-7C81.88,36.7,82,37.4,82,38Zm-33.9,8.4c-27.3,7.1-45.3,6.6-46.2,3.1-.3-1.1,1.3-3.3,6.3-6.4a41.32,41.32,0,0,0,1.3,6.1,1,1,0,0,0,1,.7h.3a1.09,1.09,0,0,0,.7-1.2A34.67,34.67,0,0,1,9.88,38a35.56,35.56,0,0,1,8.8-23.5l2.6,3.5c1.5,2,1.9,5.5.8,7.5a5.13,5.13,0,0,0-.3,4.2,5.88,5.88,0,0,0,3.5,3.4l2.6,1a24.67,24.67,0,0,1,6.6,3.7,3.29,3.29,0,0,1,.1,3.7,58.39,58.39,0,0,0-2.8,5.3,1,1,0,0,0,.5,1.3.6.6,0,0,0,.4.1,1,1,0,0,0,.9-.6,54.48,54.48,0,0,1,2.8-5.2,5.23,5.23,0,0,0-.4-6.1,25.08,25.08,0,0,0-7.3-4.2l-2.6-1a3.74,3.74,0,0,1-2.3-2.3,3,3,0,0,1,.2-2.6,9.81,9.81,0,0,0-1-9.6L20,13A35.8,35.8,0,0,1,45.08,2c0,.1.1.1.1.2l4,4.3a7.3,7.3,0,0,1,1.1,7.5l-1.4,2.5a31.64,31.64,0,0,1-6,8l-2.4,2.2c-1.6,1.5-2.5,3.2-2.3,4.7a3.16,3.16,0,0,0,1.3,2.2,6,6,0,0,1,2.3,4.3c0,2.3,2.1,5,4.8,6a3,3,0,0,1,1.1.6,1.42,1.42,0,0,0,.6.2.91.91,0,0,0,.8-.4,1.08,1.08,0,0,0-.2-1.4,6.47,6.47,0,0,0-1.6-.9c-1.9-.7-3.5-2.6-3.5-4.1a7.56,7.56,0,0,0-3.2-6,.68.68,0,0,1-.4-.6c-.1-.6.3-1.8,1.7-3.1l2.4-2.2a36.73,36.73,0,0,0,6.5-8.6l1.3-2.6A9.45,9.45,0,0,0,50.68,5l-3-3a36,36,0,0,1,25.6,12.6l-4,4.4c-2.2,2.4-3.3,6.2-2.4,8.4.6,1.5-.7,3.9-2.7,5.2a4.56,4.56,0,0,0-1,1.4,20.39,20.39,0,0,0-.6,5.1.94.94,0,0,0,1,1h0a1,1,0,0,0,1-1,26.9,26.9,0,0,1,.4-4.3c.2-.4.3-.6.4-.6,2.8-1.9,4.3-5.2,3.4-7.6-.6-1.6.4-4.5,2.1-6.4l3.8-4.2a35.67,35.67,0,0,1,6.7,14.8,1,1,0,0,0,2-.4,35.84,35.84,0,0,0-1.9-6.6l5,3.5.3-2.9c1.9.4,3.1,1.1,3.3,1.9C90.78,30,75.28,39.3,48.08,46.4Z"/></svg>