<svg xmlns="http://www.w3.org/2000/svg" xmlns:xlink="http://www.w3.org/1999/xlink" viewBox="0 0 500 500"><defs><style>.cls-1{isolation:isolate;}.cls-2{fill:#1ba5b8;}.cls-3{fill:#012d41;}.cls-4{fill:#daecf3;}.cls-5{fill:#fff;}.cls-6{fill:#ff404e;}.cls-7{fill:#ffbba6;}.cls-8{fill:#137391;opacity:0.35;mix-blend-mode:multiply;}.cls-9{fill:url(#Безымянный_градиент_2);}.cls-10{fill:url(#Безымянный_градиент_2-2);}</style><linearGradient id="Безымянный_градиент_2" x1="246.35" y1="147.91" x2="246.35" y2="97.31" gradientUnits="userSpaceOnUse"><stop offset="0" stop-color="#ff404e"/><stop offset="1" stop-color="#c70f35"/></linearGradient><linearGradient id="Безымянный_градиент_2-2" x1="265.1" y1="137.3" x2="265.1" y2="90.93" xlink:href="#Безымянный_градиент_2"/></defs><title>Mesa de trabajo 6 copia</title><g class="cls-1"><g id="OBJECTS"><path class="cls-2" d="M249.05,493.3q-2.46,0-4.9,0a1,1,0,0,1,0-2h0c3.3,0,6.62,0,9.91,0a1,1,0,1,1,0,2Q251.59,493.3,249.05,493.3Zm-14.82-.3h0c-3.33-.14-6.67-.32-10-.55a1,1,0,0,1-.93-1.07,1,1,0,0,1,1.07-.93c3.26.23,6.59.41,9.9.55a1,1,0,0,1,0,2ZM264,493a1,1,0,0,1,0-2c3.3-.14,6.63-.32,9.9-.55a1,1,0,0,1,1.07.93,1,1,0,0,1-.93,1.07c-3.29.23-6.64.42-10,.56Zm-49.64-1.38h-.1c-3.31-.33-6.64-.71-9.91-1.12a1,1,0,0,1,.25-2c3.25.42,6.56.79,9.85,1.12a1,1,0,0,1-.1,2Zm69.47,0a1,1,0,0,1-.1-2c3.29-.33,6.6-.71,9.85-1.12a1,1,0,0,1,.26,2c-3.26.42-6.6.8-9.91,1.13Zm-89.18-2.52h-.16c-3.27-.52-6.58-1.1-9.82-1.72a1,1,0,1,1,.38-2c3.23.62,6.51,1.19,9.76,1.71a1,1,0,0,1-.16,2Zm108.9,0a1,1,0,0,1-.16-2c3.29-.53,6.57-1.11,9.76-1.72a1,1,0,0,1,.38,2c-3.21.62-6.51,1.2-9.82,1.73Zm-128.42-3.72-.22,0c-3.25-.73-6.51-1.53-9.69-2.36a1,1,0,0,1,.51-1.94c3.16.83,6.4,1.61,9.63,2.34a1,1,0,0,1-.22,2Zm147.94,0a1,1,0,0,1-.22-2c3.23-.73,6.46-1.52,9.63-2.35a1,1,0,0,1,.51,1.94c-3.18.83-6.44,1.63-9.69,2.36Zm-167.17-5a1,1,0,0,1-.29,0c-3.2-1-6.4-2-9.5-3a1,1,0,0,1,.64-1.89c3.08,1,6.25,2.06,9.43,3a1,1,0,0,1-.29,2Zm186.4-.05a1,1,0,0,1-.29-2c3.17-1,6.35-2,9.43-3a1,1,0,1,1,.65,1.89c-3.11,1.06-6.3,2.09-9.5,3A1,1,0,0,1,342.33,480.25Zm-205.21-6.37a1,1,0,0,1-.36-.07c-3.13-1.21-6.24-2.48-9.23-3.79a1,1,0,0,1,.8-1.83c3,1.3,6.05,2.56,9.16,3.76a1,1,0,0,1-.36,1.93Zm224-.06a1,1,0,0,1-.36-1.93c3.11-1.2,6.19-2.47,9.15-3.76a1,1,0,1,1,.8,1.83c-3,1.31-6.1,2.58-9.23,3.8A1,1,0,0,1,361.14,473.82Zm-242.23-7.89a1,1,0,0,1-.44-.1c-3-1.49-6-3-8.85-4.63a1,1,0,1,1,1-1.75c2.82,1.57,5.77,3.11,8.76,4.59a1,1,0,0,1-.44,1.9Zm260.44-.08a1,1,0,0,1-.44-1.9c3-1.47,5.93-3,8.75-4.6a1,1,0,1,1,1,1.75c-2.85,1.59-5.83,3.16-8.84,4.64A1,1,0,0,1,379.35,465.85Zm-277.79-9.61a1,1,0,0,1-.53-.16c-2.85-1.81-5.64-3.69-8.28-5.61a1,1,0,0,1,1.17-1.62c2.61,1.89,5.36,3.75,8.18,5.54a1,1,0,0,1-.54,1.84Zm295.13-.09a1,1,0,0,1-.54-1.84c2.82-1.79,5.57-3.66,8.17-5.55a1,1,0,0,1,1.18,1.62c-2.63,1.91-5.42,3.8-8.27,5.62A1,1,0,0,1,396.69,456.15ZM85.5,444.56a1,1,0,0,1-.64-.23c-2.61-2.19-5.1-4.45-7.41-6.74a1,1,0,0,1,1.41-1.42c2.27,2.25,4.72,4.48,7.29,6.63a1,1,0,0,1-.64,1.77Zm327.24-.11a1,1,0,0,1-.65-1.76c2.56-2.16,5-4.39,7.28-6.64a1,1,0,1,1,1.41,1.42c-2.31,2.29-4.8,4.56-7.4,6.75A1,1,0,0,1,412.74,444.45ZM71.42,430.58a1,1,0,0,1-.77-.36,93,93,0,0,1-6-8,1,1,0,0,1,1.66-1.11,90.56,90.56,0,0,0,5.9,7.85,1,1,0,0,1-.77,1.64Zm355.38-.14a1,1,0,0,1-.77-1.64,90.44,90.44,0,0,0,5.88-7.86,1,1,0,0,1,1.67,1.11,92.51,92.51,0,0,1-6,8A1,1,0,0,1,426.8,430.44ZM60.46,414.08a1,1,0,0,1-.9-.55,71.24,71.24,0,0,1-3.86-9.29,1,1,0,0,1,1.9-.63,69.28,69.28,0,0,0,3.75,9,1,1,0,0,1-.89,1.45Zm377.26-.16a1,1,0,0,1-.89-1.45,68.94,68.94,0,0,0,3.73-9,1,1,0,0,1,1.9.63,70.72,70.72,0,0,1-3.83,9.3A1,1,0,0,1,437.72,413.92ZM54.26,395.31a1,1,0,0,1-1-.83,62.37,62.37,0,0,1-.85-10,1,1,0,0,1,1-1h0a1,1,0,0,1,1,1,60.36,60.36,0,0,0,.82,9.71,1,1,0,0,1-.82,1.15Zm389.62-.18h-.16a1,1,0,0,1-.82-1.15,60.11,60.11,0,0,0,.79-9.71v-.35a1,1,0,0,1,1-1h0a1,1,0,0,1,1,1v.37a62,62,0,0,1-.82,10A1,1,0,0,1,443.88,395.13ZM54.2,375.56H54a1,1,0,0,1-.83-1.15,64.7,64.7,0,0,1,2.38-9.78,1,1,0,0,1,1.9.62,62.8,62.8,0,0,0-2.31,9.47A1,1,0,0,1,54.2,375.56ZM443.81,375a1,1,0,0,1-1-.83,62.77,62.77,0,0,0-2.39-9.46,1,1,0,0,1,1.9-.64,65,65,0,0,1,2.46,9.76A1,1,0,0,1,444,375ZM60.3,356.76a1,1,0,0,1-.9-1.44,79.94,79.94,0,0,1,5-8.7,1,1,0,0,1,1.67,1.1,78,78,0,0,0-4.89,8.48A1,1,0,0,1,60.3,356.76Zm377.27-.48a1,1,0,0,1-.89-.55,78.71,78.71,0,0,0-5-8.45,1,1,0,1,1,1.66-1.12,80.8,80.8,0,0,1,5.08,8.67,1,1,0,0,1-.89,1.45ZM71.19,340.21a1,1,0,0,1-.77-1.64c2.08-2.5,4.36-5,6.77-7.39a1,1,0,1,1,1.41,1.42C76.23,335,74,337.39,72,339.85A1,1,0,0,1,71.19,340.21Zm355.39-.41a1,1,0,0,1-.77-.36c-2.05-2.44-4.3-4.87-6.68-7.22a1,1,0,0,1,1.4-1.42c2.43,2.39,4.72,4.87,6.81,7.35a1,1,0,0,1-.76,1.64ZM85.23,326.18a1,1,0,0,1-.65-1.76c2.48-2.09,5.13-4.17,7.88-6.17a1,1,0,1,1,1.18,1.62c-2.71,2-5.32,4-7.76,6.08A1,1,0,0,1,85.23,326.18Zm327.24-.34a1,1,0,0,1-.64-.23c-2.46-2.06-5.08-4.09-7.79-6.05a1,1,0,1,1,1.17-1.62c2.75,2,5.41,4.05,7.9,6.14a1,1,0,0,1-.64,1.77Zm-311.2-11.38a1,1,0,0,1-.54-1.84c2.75-1.75,5.64-3.47,8.58-5.12a1,1,0,0,1,1,1.75c-2.92,1.63-5.77,3.33-8.49,5.06A1,1,0,0,1,101.26,314.46Zm295.13-.29a1,1,0,0,1-.53-.15c-2.72-1.72-5.58-3.42-8.5-5a1,1,0,0,1,1-1.75c3,1.64,5.84,3.35,8.6,5.09a1,1,0,0,1-.54,1.85Zm-277.79-9.43a1,1,0,0,1-.44-1.9c2.94-1.45,6-2.87,9.05-4.21a1,1,0,1,1,.8,1.83c-3,1.33-6.06,2.74-9,4.18A1,1,0,0,1,118.59,304.75ZM379,304.51a1,1,0,0,1-.44-.1c-2.9-1.43-5.92-2.82-9-4.15a1,1,0,1,1,.8-1.83c3.08,1.34,6.13,2.75,9.06,4.19a1,1,0,0,1-.44,1.9Zm-242.24-7.75a1,1,0,0,1-.36-1.93c3.06-1.19,6.21-2.33,9.38-3.42a1,1,0,0,1,.65,1.89c-3.14,1.07-6.27,2.21-9.3,3.39A1,1,0,0,1,136.79,296.76Zm224-.19a1,1,0,0,1-.36-.07c-3-1.17-6.17-2.3-9.31-3.37a1,1,0,0,1,.64-1.89c3.17,1.08,6.32,2.22,9.38,3.4a1,1,0,0,1-.36,1.93ZM155.6,290.32a1,1,0,0,1-.29-2c3.15-.95,6.38-1.86,9.6-2.7a1,1,0,1,1,.51,1.93c-3.2.84-6.4,1.74-9.53,2.68A1,1,0,0,1,155.6,290.32Zm186.4-.15a1,1,0,0,1-.29,0c-3.13-.93-6.34-1.83-9.54-2.67a1,1,0,1,1,.5-1.94c3.22.84,6.45,1.74,9.61,2.68a1,1,0,0,1-.29,2Zm-167.18-4.9a1,1,0,0,1-.22-2c3.19-.72,6.47-1.41,9.76-2a1,1,0,1,1,.38,2c-3.27.63-6.53,1.31-9.7,2Zm147.94-.12-.22,0c-3.19-.72-6.45-1.4-9.7-2a1,1,0,1,1,.38-2c3.27.63,6.55,1.31,9.76,2a1,1,0,0,1-.22,2ZM194.34,281.5a1,1,0,0,1-.16-2c3.24-.52,6.56-1,9.87-1.43a1,1,0,0,1,.26,2c-3.29.43-6.59.91-9.81,1.42Zm108.9-.08h-.16c-3.23-.51-6.53-1-9.81-1.41a1,1,0,0,1,.25-2c3.3.42,6.62.9,9.87,1.42a1,1,0,0,1-.16,2Zm-89.19-2.47a1,1,0,0,1-.1-2c3.27-.33,6.61-.61,9.93-.85A1,1,0,0,1,225,277a1,1,0,0,1-.93,1.07c-3.31.24-6.63.52-9.88.84Zm69.47-.05h-.1c-3.26-.32-6.58-.6-9.88-.83a1,1,0,0,1-.93-1.07,1,1,0,0,1,1.07-.93c3.31.23,6.66.51,9.93.83a1,1,0,0,1-.1,2Zm-49.64-1.35a1,1,0,0,1,0-2c3.31-.14,6.66-.24,10-.28a1,1,0,0,1,1,1,1,1,0,0,1-1,1c-3.29,0-6.62.14-9.91.28Zm29.81,0h0c-3.3-.13-6.63-.22-9.91-.27a1,1,0,0,1-1-1,1,1,0,0,1,1-1c3.29,0,6.64.13,10,.27a1,1,0,0,1,0,2Z"/><polygon class="cls-3" points="274.55 446.32 394.81 376.89 346.7 349.12 226.45 418.55 274.55 446.32"/><path class="cls-4" d="M274.17,444l115.5-66.63a51.53,51.53,0,0,1,0-24.14L273.08,420.15s-8.61,19.28.41,24.49Z"/><path class="cls-3" d="M394.81,376.89,276,445.41c-8-5.92,0-23.25,0-23.25l118.76-68.57v-2.11L272.48,419.71s-10.28,21.84,2.07,29l120.26-69.43Z"/><polygon class="cls-3" points="106.19 323.71 274.55 420.91 394.81 351.48 226.45 254.28 106.19 323.71"/><path class="cls-3" d="M274.55,448.68c-9.76-7.48,0-27.77,0-27.77l-168.36-97.2s-9.76,20.29,0,27.77Z"/><path class="cls-4" d="M260,437.17a11.63,11.63,0,0,1,0-5.72l-34.69-20s-1.18,3.74,0,5.72Z"/><path class="cls-4" d="M260,426.66a11.63,11.63,0,0,1,0-5.72l-34.69-20s-1.18,3.74,0,5.72Z"/><path class="cls-4" d="M210.85,408.91a11.63,11.63,0,0,1,0-5.72L115.42,348.1s-1.18,3.74,0,5.72Z"/><path class="cls-4" d="M210.85,398.4a11.63,11.63,0,0,1,0-5.72l-95.43-55.08s-1.18,3.74,0,5.72Z"/><path class="cls-2" d="M315.54,429.23c-6.19-1.92-4.43-14.73-10.37-18.16l-14.06,8.27c5.94,3.43,4.17,16.24,10.37,18.16,0,0,.69-8.31,3-9.49C304.48,428,312.38,429.87,315.54,429.23Z"/><polygon class="cls-2" points="272.14 401.83 369.88 345.4 321.81 317.65 243.67 385.45 272.14 401.83"/><path class="cls-5" d="M271.76,399.48l93-53.63a88.71,88.71,0,0,1,0-24.12l-94.08,53.94s-8.6,19.27.41,24.48Z"/><path class="cls-2" d="M369.88,345.4l-96.25,55.51c-8-5.92,0-23.24,0-23.24l96.25-55.57V320l-99.82,55.24s-10.28,21.82,2.07,28.95l97.75-56.43Z"/><polygon class="cls-2" points="130.61 294.78 272.14 376.43 369.88 320 228.36 238.35 130.61 294.78"/><path class="cls-2" d="M272.14,404.19c-9.75-7.48,0-27.75,0-27.75L130.61,294.78s-9.75,20.27,0,27.75Z"/><path class="cls-4" d="M150.25,333.86c-9.75-7.48,0-27.75,0-27.75l-8-4.63s-9.75,20.27,0,27.75Z"/><path class="cls-4" d="M256.78,395.32c-9.75-7.48,0-27.75,0-27.75l-8-4.63s-9.75,20.27,0,27.75Z"/><path class="cls-5" d="M215.33,367c-3.1-4.12.6-18,.6-18l-35.19-20.42s-4.5,14.93-.63,19Z"/><path class="cls-6" d="M282.08,377c13.74,1.84-5.44,30.54,15.45,33.34,0,0-3.42-13.72,2.51-20.11,0,0,5.57,10.91,12.94,9.35-5.46-10,2-27.56-13.59-32.57Z"/><polygon class="cls-6" points="268.21 364.26 356.57 313.2 326.38 295.78 250.34 353.98 268.21 364.26"/><path class="cls-5" d="M268,362.79l85.37-49.3a55.71,55.71,0,0,1,0-15.15l-86.05,49.5s-5.4,12.1.26,15.37Z"/><path class="cls-6" d="M356.57,313.2l-87.42,50.48c-5-3.72,0-14.59,0-14.59l87.42-50.52v-1.32l-89.66,50.31s-6.45,13.7,1.3,18.18l88.36-51.06Z"/><polygon class="cls-6" points="143.96 276.63 268.21 348.31 356.57 297.25 232.31 225.57 143.96 276.63"/><path class="cls-6" d="M268.22,365.74c-6.12-4.7,0-17.43,0-17.43L144,276.63s-6.12,12.73,0,17.43Z"/><path class="cls-4" d="M151.36,298.33c-6.12-4.7,0-17.43,0-17.43l-2.1-1.21s-6.12,12.73,0,17.43Z"/><path class="cls-4" d="M155.71,300.84c-6.12-4.7,0-17.43,0-17.43l-2.1-1.21s-6.12,12.73,0,17.43Z"/><path class="cls-4" d="M160.06,303.34c-6.12-4.7,0-17.43,0-17.43L158,284.7s-6.12,12.73,0,17.43Z"/><path class="cls-4" d="M164.5,305.75c-6.12-4.7,0-17.43,0-17.43l-2.1-1.21s-6.12,12.73,0,17.43Z"/><path class="cls-4" d="M258.57,360.18c-6.12-4.7,0-17.43,0-17.43l-5-2.91s-6.12,12.73,0,17.43Z"/><path class="cls-4" d="M232.55,342.63a.25.25,0,0,1-.12,0l-57.71-32.09-.06,0c-2.5-2.66.22-11.81.34-12.2a.24.24,0,0,1,.35-.14L233,330.84a.24.24,0,0,1,.11.27c0,.09-2.27,8.66-.42,11.13a.24.24,0,0,1-.19.39ZM175,310.1l57,31.67c-1.15-3,.39-9.41.69-10.6L175.39,298.7C174.94,300.29,173,307.86,175,310.1Z"/><path class="cls-4" d="M292.47,356.27c-6.22-3-3.57-10.1-10.51-11.21l-8.17,4.72c6.49.87.93,9.73,10.79,11.05l6.61-.81Z"/><polygon class="cls-4" points="266.13 334.43 340.21 291.65 306.11 271.95 245.94 322.81 266.13 334.43"/><path class="cls-5" d="M265.86,332.76,336.57,292a63,63,0,0,1,0-17.12l-71.48,41s-6.1,13.67.29,17.37Z"/><path class="cls-4" d="M340.21,291.65l-73,42.13c-5.69-4.2,0-16.49,0-16.49l73-42.17v-1.5l-75.55,41.93s-7.29,15.48,1.47,20.54l74.08-42.78Z"/><polygon class="cls-4" points="160.67 255.55 266.13 316.4 340.21 273.63 234.75 212.77 160.67 255.55"/><path class="cls-4" d="M266.13,336.1c-6.92-5.31,0-19.69,0-19.69L160.67,255.55s-6.92,14.39,0,19.69Z"/><path class="cls-3" d="M244.79,320.26c-2.41-3.86,0-11.95,0-11.95l-64-36.92s-2.6,7.57,0,11.95Z"/><path class="cls-3" d="M165,274c-2.41-3.86,0-11.95,0-11.95l11.95,7.07s-2.6,7.57,0,11.95Z"/><path class="cls-3" d="M249.08,322.7c-2.41-3.86,0-11.95,0-11.95l3.13,1.83s-2.6,7.57,0,11.95Z"/><path class="cls-3" d="M295.72,324.53c-6.76-8.29-.87-9.67-8.07-13.82l-12.16,7.22c7.73,2,2.59,11.27,11.13,12.26,0,0-1.22-6,1.17-8.95C287.78,321.24,291.89,325.31,295.72,324.53Z"/><path class="cls-7" d="M268.75,57.36a229.17,229.17,0,0,1,11.16-31.58l4.42.65-5.79,26.91A21.44,21.44,0,0,1,268.75,57.36Z"/><polygon class="cls-3" points="248.13 96.7 248.58 96.7 248.47 99.13 247.21 99.24 247.21 97.97 248.13 96.7"/><ellipse class="cls-7" cx="254" cy="103.39" rx="9.26" ry="5.84" transform="translate(-16.55 58.58) rotate(-12.74)"/><path class="cls-7" d="M248.4,91.77a37.39,37.39,0,0,1-1,9.25c2,3.21,10.69,5.22,12,1.53a10.61,10.61,0,0,1,1-5.63C261.75,94.59,248.4,91.77,248.4,91.77Z"/><path class="cls-7" d="M248.4,91.77s0,.86,0,2.23a13.64,13.64,0,0,0,11,7.54,9.57,9.57,0,0,1,1.05-4.61C261.75,94.59,248.4,91.77,248.4,91.77Z"/><path class="cls-3" d="M283.47,66.1c-.18,4.69-11.71,22.79-12.93,47.91-2.46,7.28-16.4-22.84-13.53-35.4,2.61-11.43,5.29-22.68,9.13-31.46C269.51,39.42,283.13,42.64,283.47,66.1Z"/><path class="cls-3" d="M231.21,268.68l.05,2.79c0,1.26,2.81,3.2,5,3.79a.21.21,0,0,0,.26-.22l0-.66a14.61,14.61,0,0,1,2.85,1.49c.11.08.24.68.35.76,1.62,1.17,3.28,2.16,4.66,3.08,2,1.35,5.81-.23,6.81-.69a.41.41,0,0,0,.24-.38v-.48l-4,.18-7-3.86-8.22-4.64-.1-.8-.84-.36"/><path class="cls-3" d="M232,266.69c-.08.65,2.31,2,4.53,2s5.11.89,4.18-.75a79.75,79.75,0,0,0,10.72,8.76c.2.13.15,1.13.15,1.37h0a.35.35,0,0,1-.22.33c-.93.38-4.54,1.7-6.56.35-2.33-1.56-6-4.39-8.26-4.89s-5.27-2.54-5.29-3.86l0-1.93A1.45,1.45,0,0,1,232,266.69Z"/><path class="cls-2" d="M232.69,164.79c-8.66,7.09,0,38.36,4.38,54.88-.2.56-1.36,3-1.36,3-.33,4.24-1.69,8.83-1.93,14.93-.4,10.31-2,29.49-2,29.49.58,2.79,10.15,4.06,9.9.15l7-49.59s1.92-26.93-1.64-54C247.07,163.66,240.17,158.66,232.69,164.79Z"/><path class="cls-3" d="M264.13,252.31l.37,2.76c.17,1.25,3.16,2.86,5.42,3.2a.21.21,0,0,0,.23-.24l-.11-.65a14.61,14.61,0,0,1,3,1.16c.12.07.31.65.44.72,1.74,1,3.51,1.77,5,2.53,2.16,1.11,5.75-.89,6.69-1.45a.41.41,0,0,0,.19-.4l-.06-.48-4,.64-7.38-3-8.69-3.68-.19-.78-.87-.26"/><path class="cls-3" d="M264.67,250.24c0,.65,2.52,1.69,4.73,1.47s5.18.3,4.06-1.22A67.54,67.54,0,0,0,285,258.16c.21.11.36.93.39,1.16h0a.35.35,0,0,1-.18.35c-.88.48-4.32,2.2-6.48,1.09-2.5-1.28-6.49-3.68-8.76-3.92s-5.52-1.93-5.7-3.24l-.25-1.92A1.45,1.45,0,0,1,264.67,250.24Z"/><path class="cls-2" d="M251.16,147.28c-7.81,8,7,39.75,13.23,55.67-.14.58-1,3.13-1,3.13.15,4.25-.68,9-.23,15,.77,10.29,1.36,29.52,1.36,29.52.89,2.7,10.55,2.89,9.85-1l1.36-50.06s-1.14-27-7.74-53.44C268,146.17,257.9,140.35,251.16,147.28Z"/><path class="cls-8" d="M269.24,152.87c-1.18-.08-4.08,2.7-10.41,4.79a9.28,9.28,0,0,0-4.52,3.33c-2.5-1.06-10.63-3.83-16,2.23-1.85,2.08-2.23,5.57-1.65,9.87,3.28,1.91,9.28,1.66,14.66,1.12s13.59-2.63,17.44-5.44c.54-5.47.68-9.61,1-12.41Q269.5,154.67,269.24,152.87Z"/><path class="cls-4" d="M259.23,106.87s-4.2,1.64-5.58,4.77,8.09,5.44,8.09,5.44,2.79-6.65,2.81-9.16S259.23,106.87,259.23,106.87Z"/><path class="cls-4" d="M248,97.67a4.61,4.61,0,0,0,.21,2.25c1.05,2.71,4.65,6.38,11,7a13,13,0,0,0-4.32,4.43C250.37,110.1,244.86,101.8,248,97.67Z"/><path class="cls-4" d="M259.23,106.87a7.4,7.4,0,0,1,4.25,1.95s-.87-8.48-4.25-10.31C259.59,99,261.58,101.81,259.23,106.87Z"/><path class="cls-3" d="M272.41,108.28c0-5.67-2.85-11.08-6.88-13.56l-2.29-.56-8.14.74s11.83,6.58,6.49,20.58c0,0-17.39-8.17-13.46-18.77a56.12,56.12,0,0,0-6.61,2.64,10.47,10.47,0,0,0-2.87-2.91c-3.06-3.55-20.78-20.16-26.46-23.82-6.47-4.16-13.18,24.1-2,30.55,10.4,6,17,11.18,20.75,18.8-3.76,35-5.34,110.25-2,124.65,7.87,8,11.17,7,19.17,3.62s9.83-.06,18.52-3.6,12.89-13.38,12.89-13.38S272.41,117.89,272.41,108.28Z"/><ellipse class="cls-3" cx="210.73" cy="86.57" rx="12.36" ry="3.69" transform="translate(112.33 292.05) rotate(-86.74)"/><path class="cls-7" d="M212.81,86.57c-15.1-10.41-21.47-17.07-21.47-17.07l4.58-5.78L212.27,76A21.44,21.44,0,0,1,212.81,86.57Z"/><path class="cls-2" d="M269.51,245.14c-5.7-34.78-5.07-80.37-4.7-107.72.15-10.55-.18-24.24-1.83-29a19.47,19.47,0,0,1-1.38,7,37.09,37.09,0,0,1-3.36-1.87c.34,3.19.57,13.74.43,23.73-.38,27.77-.93,74.91,5,110.33a28.23,28.23,0,0,0,3-1A18.62,18.62,0,0,0,269.51,245.14Z"/><path class="cls-4" d="M267.19,246.38c-5.85-35.08-5.33-82.35-5-110.5.12-10.59.2-18.45-.12-21.67q-.2.63-.45,1.28l-.71-.36c.23,3.52.15,11,0,20.74-.31,28.27-.83,75.79,5.09,111l.62-.23C266.83,246.55,267,246.46,267.19,246.38Z"/><path class="cls-7" d="M190.09,59.45c.59-3.54-2.38-4.17-3.14-7.08s-3.24-1.36-2.81.44S189,59.62,189,59.62Z"/><rect class="cls-6" x="175.93" y="53.4" width="28.48" height="20.65" transform="translate(21.97 172.98) rotate(-51.53)"/><path class="cls-7" d="M186.45,61.44a3,3,0,0,1-2.6,1,18.64,18.64,0,0,1-4.31-1.64c-1.46-1-2.89-1.59-1.58-4.39s5.18-5.6,6.92-3.28,3,4.29,3,5A4.57,4.57,0,0,1,186.45,61.44Z"/><path class="cls-7" d="M279.84,25.2a13.9,13.9,0,0,0-.78-4.19c-.64-1.87.12-2.57,1-4S282,16.2,282,16.2s.51-1.41,1.72-1.22,5,1.15,5.61,2.49-.45,5.93-1.91,6.82-3.05,1.79-3.23,2.4-4.14.22-4.14.22Z"/><path class="cls-9" d="M251.35,143.32c-2.35-6.14-.78-42.87-5.42-46a9.63,9.63,0,0,0-4.58,1.78c3.75,4,2.31,40.23,4.67,46.37l4.61,2.45Z"/><path class="cls-10" d="M271.62,132.88c-2.42-5.82-1.06-38.47-10-42-2.4.25-3,1.07-3,1.07,7,3.55,5.57,37.26,8,43.08l4.48,2.22Z"/><path class="cls-7" d="M262.73,74.51a22.42,22.42,0,0,1,2.68,9.78c-.2.68,1,2,.68,4.8-.21,2.05-.62,6.22-.83,8.35A1.76,1.76,0,0,1,263.82,99c-4.12.73-10.71,1.15-15.53-5.39,0,0-2.32-2.71-3.39-3.05s-5.29-5.71-5.29-10.07c0-4.61,2.55-11.6,12-11.6A13.19,13.19,0,0,1,262.73,74.51Z"/><path class="cls-7" d="M265.42,84.29a22.42,22.42,0,0,0-2.68-9.78,10.71,10.71,0,0,0-1.62-1.9c.23.31.35.5.35.5a22.42,22.42,0,0,1,2.68,9.78c-.2.68,1,2,.68,4.8-.21,2.05-.62,6.22-.83,8.35a1.76,1.76,0,0,1-1.44,1.57c-3.64.64-9.22,1-13.79-3.41,4.77,5.92,11.07,5.52,15.06,4.81a1.76,1.76,0,0,0,1.44-1.57c.21-2.13.62-6.3.83-8.35C266.38,86.27,265.22,85,265.42,84.29Z"/><path class="cls-3" d="M249.72,78c2.58,1.87-1,9.5-.55,11.44-.75.32-1.23-2.19-2.46-2.12s-.2,1.63-.2,1.63l2,4.07-.24,2.68c-.4-4.62-9.55-5-8.93-16.44.19-2.81,1.89-7.3,2.73-6.52S249,75.27,249.72,78Z"/><path class="cls-3" d="M245.92,90.35c-1-.92-4.8-5.9-6.56-8.23.92,8.68,8.51,9.35,8.87,13.55l.24-2.68-1.67-3.47Z"/><path class="cls-7" d="M246.71,87.28c-1.81-1.89-4.11-.27-2.62,2,.32.48,1,.76,1.27,1.21.14.25.27.46.41.66A16.57,16.57,0,0,1,247,92.29a1.08,1.08,0,0,0,1.22-.41Z"/><path class="cls-7" d="M248.11,87.38C247,85,244.28,85.86,245,88.45c.15.56.74,1,.84,1.54.5,2.51,1.42,2.74,2.3,2.23"/><path class="cls-3" d="M247.81,78.74c6.62,2.17,15.69-1.26,16.28-1.55,1.74-.46,1-4.09-1.22-5.09s-6.58-3.84-11.76-3.89c-4.95,0-9.49,1.61-11,7.29C241.95,76.42,247.81,78.74,247.81,78.74Z"/><path class="cls-3" d="M298.78,33.26c3.69,4.38,8.95,6,11.75,3.66l11.09-9.06L308.16,12.09l-11,9C294.37,23.42,295.09,28.88,298.78,33.26Z"/><ellipse class="cls-3" cx="314.84" cy="20.01" rx="6.62" ry="10.37" transform="translate(61.23 207.65) rotate(-40.13)"/><polygon class="cls-3" points="301.97 2 325.82 11.05 329.91 36.23 306.06 27.18 301.97 2"/><circle class="cls-2" cx="316.52" cy="18.65" r="1.56" transform="translate(59.5 204.31) rotate(-39.22)"/><path class="cls-6" d="M321.09,40.4a.6.6,0,0,1-.39-.14c-4.76-4-4.19-10.16-3.77-14.69.26-2.79.48-5.21-.58-6a.61.61,0,0,1,.72-1c1.61,1.18,1.37,3.78,1.07,7.07-.41,4.5-.93,10.11,3.33,13.65a.61.61,0,0,1-.39,1.08Z"/><path class="cls-2" d="M322,42.68,319.78,40a1.08,1.08,0,0,1,.15-1.52h0a1.08,1.08,0,0,1,1.52.15l2.17,2.66a1.08,1.08,0,0,1-.15,1.52h0A1.08,1.08,0,0,1,322,42.68Z"/><path class="cls-4" d="M339.57,173.77c-14.06-6.77-23,6-23,6S340.69,191.3,341,200.66s4.49-17.45,4.49-17.45Z"/><path class="cls-2" d="M326.09,224.72s20.51-24.82,13.48-50.95c0,0,22.19,15.17,20.23,36.52Z"/><path class="cls-4" d="M298.58,104.78s15.78-3.55,25.37,3.2l-.28,16.24s-14.55-5.44-24.72-1.38Z"/><path class="cls-4" d="M174.61,220.92s-6.2-16.82,6.88-28.29l-19.22-2c-13.08,11.47-6.88,28.29-6.88,28.29Z"/><path class="cls-4" d="M166.4,143.68s-5.42-22.29-8.11-30.22l35.61-1.69c-.63,2.31.75,16.35,2.71,20.28L168.9,144.52Z"/><path class="cls-2" d="M169.92,149.23s-2.75,0-4.5-4.45c0,0,20.46-22.65,21.07-25.05L196.61,132Z"/><path class="cls-4" d="M208.08,179.12a111.54,111.54,0,0,0-5.16-21.52s10.57-5.29,14-11.33c0,0,13.47,6.8,18.12,28.94Z"/><path class="cls-2" d="M183.51,157.43l.17.84-4,.82-.17-.84a2.05,2.05,0,0,1,1.6-2.42h0A2.05,2.05,0,0,1,183.51,157.43Z"/><rect class="cls-2" x="167.59" y="175.88" width="35.99" height="4.1" transform="translate(48.31 395.31) rotate(-101.52)"/><polygon class="cls-2" points="192.38 200.99 192.42 209.94 191.84 210.06 188.37 201.8 192.38 200.99"/><rect class="cls-3" x="180.46" y="157.43" width="2.91" height="4.94" transform="translate(61.57 370.09) rotate(-101.52)"/><rect class="cls-2" x="181.97" y="159.57" width="0.61" height="4.1" transform="translate(60.31 372.5) rotate(-101.52)"/><path class="cls-3" d="M191.18,193.78l1.48,7.27-.09.13-4.3.88-.13-.09-1.48-7.27.09-.13,4.3-.88Z"/><path class="cls-3" d="M179.48,159.54l-.72.15a.45.45,0,0,0-.35.53L181,172.9a.13.13,0,0,0,.15.1l.07,0a.52.52,0,0,0,.41-.62l-2.35-11.53.45-.09Z"/><path class="cls-2" d="M370,170l-.83-.43,2.06-3.95.83.43a2.23,2.23,0,0,1,.94,3h0A2.23,2.23,0,0,1,370,170Z"/><rect class="cls-2" x="331.78" y="155.51" width="39.12" height="4.46" transform="translate(113.11 -144.86) rotate(27.61)"/><polygon class="cls-2" points="327.24 147.65 319.67 141.53 319.96 140.97 329.31 143.7 327.24 147.65"/><rect class="cls-3" x="367.47" y="164.32" width="3.16" height="5.36" transform="translate(119.42 -152.02) rotate(27.61)"/><rect class="cls-2" x="367.03" y="163.89" width="0.66" height="4.46" transform="translate(118.81 -151.33) rotate(27.61)"/><path class="cls-3" d="M334.14,151.57,327,147.83l-.05-.16,2.21-4.23.16-.05,7.14,3.74.05.16-2.21,4.23Z"/><path class="cls-3" d="M371,165.19l.37-.71a.49.49,0,0,0-.21-.66l-12.46-6.52a.14.14,0,0,0-.19.06l0,.07a.57.57,0,0,0,.24.77l11.33,5.92-.23.44Z"/></g></g></svg>