<svg id="Layer_1" data-name="Layer 1" xmlns="http://www.w3.org/2000/svg" viewBox="0 0 2497.75 367.82"><defs><style>.cls-1{fill:#fff;}</style></defs><title>q4bbl</title><circle class="cls-1" cx="1073.88" cy="220.45" r="76.34"/><circle class="cls-1" cx="1166.12" cy="289.37" r="74.21"/><circle class="cls-1" cx="1258.36" cy="277.71" r="74.21"/><circle class="cls-1" cx="1509.98" cy="1720.19" r="72.83" transform="translate(-252.62 -1175.76) rotate(-9.03)"/><circle class="cls-1" cx="1702.59" cy="277.71" r="64.67"/><circle class="cls-1" cx="1600.81" cy="250.14" r="45.59"/><circle class="cls-1" cx="1915.69" cy="250.14" r="58.31"/><circle class="cls-1" cx="1775.74" cy="252.26" r="53.01"/><circle class="cls-1" cx="2330.24" cy="268.16" r="68.91"/><circle class="cls-1" cx="2228.45" cy="246.96" r="65.73"/><circle class="cls-1" cx="2045.39" cy="1682.02" r="80.44" transform="translate(-240 -1092.22) rotate(-9.03)"/><circle class="cls-1" cx="1825.57" cy="294.67" r="49.83"/><circle class="cls-1" cx="1439.66" cy="225.76" r="37.11"/><path class="cls-1" d="M2250.94,1801.82a81.64,81.64,0,1,0-116.36,0Z" transform="translate(-1.41 -1434)"/><path class="cls-1" d="M2499.16,1801.82V1653.9a109.24,109.24,0,0,0-137.41,147.93Z" transform="translate(-1.41 -1434)"/><path class="cls-1" d="M2397,1801.82a109.21,109.21,0,0,0-211.34,0Z" transform="translate(-1.41 -1434)"/><path class="cls-1" d="M2225.6,1801.82a90.1,90.1,0,0,0-180.18,0Z" transform="translate(-1.41 -1434)"/><path class="cls-1" d="M1820.48,1801.82a53,53,0,1,0-93,0Z" transform="translate(-1.41 -1434)"/><path class="cls-1" d="M2069.76,1797.58a118.74,118.74,0,0,0-237.46,0Z" transform="translate(-1.41 -1434)"/><path class="cls-1" d="M1737.74,1801.82c.11-1.4.18-2.81.18-4.24a53,53,0,1,0-106,0c0,1.43.07,2.84.18,4.24Z" transform="translate(-1.41 -1434)"/><path class="cls-1" d="M1567.2,1801.82h70.08a57.53,57.53,0,1,0-70.08,0Z" transform="translate(-1.41 -1434)"/><path class="cls-1" d="M1568.69,1801.82a74.21,74.21,0,1,0-145,0Z" transform="translate(-1.41 -1434)"/><path class="cls-1" d="M1376.67,1801.82h24.9a74.21,74.21,0,1,0-24.9,0Z" transform="translate(-1.41 -1434)"/><path class="cls-1" d="M1195.68,1801.82a83.76,83.76,0,1,0-164.43,0Z" transform="translate(-1.41 -1434)"/><path class="cls-1" d="M1287.34,1728.67a101.81,101.81,0,0,0-97.68,73.15H1385A101.81,101.81,0,0,0,1287.34,1728.67Z" transform="translate(-1.41 -1434)"/><path class="cls-1" d="M1064.42,1801.82a107.07,107.07,0,0,0-155.58-147.15v147.15Z" transform="translate(-1.41 -1434)"/><circle class="cls-1" cx="147.28" cy="236.54" r="67.54"/><circle class="cls-1" cx="228.9" cy="297.52" r="65.67"/><circle class="cls-1" cx="310.52" cy="287.2" r="65.67"/><circle class="cls-1" cx="533.32" cy="1728.71" r="64.44" transform="translate(-266.06 -1328.9) rotate(-9.03)"/><circle class="cls-1" cx="703.59" cy="287.2" r="57.23"/><circle class="cls-1" cx="613.53" cy="262.81" r="40.34"/><circle class="cls-1" cx="892.15" cy="262.81" r="51.6"/><circle class="cls-1" cx="768.32" cy="264.69" r="46.91"/><circle class="cls-1" cx="1258.96" cy="278.76" r="60.98"/><circle class="cls-1" cx="1168.9" cy="260" r="58.16"/><circle class="cls-1" cx="1007.07" cy="1694.94" r="71.18" transform="translate(-254.89 -1254.98) rotate(-9.03)"/><circle class="cls-1" cx="812.41" cy="302.21" r="44.09"/><circle class="cls-1" cx="470.94" cy="241.24" r="32.83"/><path class="cls-1" d="M1189,1800.94a72.24,72.24,0,1,0-103,0Z" transform="translate(-1.41 -1434)"/><path class="cls-1" d="M1408.59,1800.94V1670A96.66,96.66,0,0,0,1287,1800.94Z" transform="translate(-1.41 -1434)"/><path class="cls-1" d="M1318.22,1800.94a96.63,96.63,0,0,0-187,0Z" transform="translate(-1.41 -1434)"/><path class="cls-1" d="M1166.53,1800.94a79.72,79.72,0,0,0-159.43,0Z" transform="translate(-1.41 -1434)"/><path class="cls-1" d="M808.07,1800.94a46.91,46.91,0,1,0-82.31,0Z" transform="translate(-1.41 -1434)"/><path class="cls-1" d="M1028.64,1797.19a105.06,105.06,0,0,0-210.11,0Z" transform="translate(-1.41 -1434)"/><path class="cls-1" d="M734.86,1800.94c.1-1.24.16-2.49.16-3.75a46.91,46.91,0,0,0-93.81,0c0,1.26.06,2.51.16,3.75Z" transform="translate(-1.41 -1434)"/><path class="cls-1" d="M584,1800.94h62a50.9,50.9,0,1,0-62,0Z" transform="translate(-1.41 -1434)"/><path class="cls-1" d="M585.27,1800.94a65.67,65.67,0,1,0-128.28,0Z" transform="translate(-1.41 -1434)"/><path class="cls-1" d="M415.36,1800.94h22a65.67,65.67,0,1,0-22,0Z" transform="translate(-1.41 -1434)"/><path class="cls-1" d="M255.22,1800.94a74.11,74.11,0,1,0-145.5,0Z" transform="translate(-1.41 -1434)"/><path class="cls-1" d="M336.32,1736.21a90.09,90.09,0,0,0-86.43,64.73H422.75A90.09,90.09,0,0,0,336.32,1736.21Z" transform="translate(-1.41 -1434)"/><path class="cls-1" d="M139.07,1800.94A94.74,94.74,0,0,0,1.41,1670.73v130.21Z" transform="translate(-1.41 -1434)"/><circle class="cls-1" cx="294.59" cy="181" r="21"/><circle class="cls-1" cx="100.59" cy="133" r="21"/><circle class="cls-1" cx="664.59" cy="199" r="21"/><circle class="cls-1" cx="1319.59" cy="183" r="21"/><circle class="cls-1" cx="2350.59" cy="21" r="21"/><circle class="cls-1" cx="2408.59" cy="133" r="21"/><circle class="cls-1" cx="2095.59" cy="126" r="21"/><circle class="cls-1" cx="1184.59" cy="144" r="39"/><circle class="cls-1" cx="1630.59" cy="144" r="31"/><circle class="cls-1" cx="1854.59" cy="126" r="28"/><circle class="cls-1" cx="2134.59" cy="207" r="39"/><circle class="cls-1" cx="2369.59" cy="126" r="39"/><circle class="cls-1" cx="334.59" cy="144" r="15"/><circle class="cls-1" cx="613.59" cy="159" r="15"/><circle class="cls-1" cx="686.59" cy="137" r="11"/><circle class="cls-1" cx="1285.59" cy="55" r="11"/><circle class="cls-1" cx="2184.59" cy="32" r="11"/><circle class="cls-1" cx="1999.59" cy="87" r="11"/><circle class="cls-1" cx="1736.59" cy="87" r="11"/></svg>