<svg id="OBJECTS" xmlns="http://www.w3.org/2000/svg" xmlns:xlink="http://www.w3.org/1999/xlink" viewBox="0 0 407.78 314.5"><defs><style>.cls-1,.cls-12{fill:#fff;}.cls-2{fill:#ffd286;}.cls-3{fill:#f4bd6c;}.cls-4{fill:#dda254;}.cls-5{fill:#b1c2b3;}.cls-6{fill:#fffad7;}.cls-7,.cls-9{fill:none;stroke:#a73e5c;}.cls-7{stroke-linecap:round;stroke-linejoin:round;stroke-width:1.42px;}.cls-8{fill:#a73e5c;}.cls-9{stroke-miterlimit:10;}.cls-10{fill:#e2d69f;}.cls-11{fill:#231f20;}.cls-12{opacity:0.5;isolation:isolate;}.cls-13{fill:#e9f2d7;}.cls-14{fill:url(#linear-gradient);}.cls-15{fill:url(#linear-gradient-2);}.cls-16{fill:url(#linear-gradient-3);}.cls-17{fill:#f1f2f2;}</style><linearGradient id="linear-gradient" x1="210.55" y1="277.01" x2="34.67" y2="134.76" gradientTransform="matrix(1, 0, 0, -1, 0, 316.5)" gradientUnits="userSpaceOnUse"><stop offset="0" stop-color="#fff"/><stop offset="1" stop-color="#fff" stop-opacity="0"/></linearGradient><linearGradient id="linear-gradient-2" x1="258.9" y1="172.74" x2="56.39" y2="8.94" xlink:href="#linear-gradient"/><linearGradient id="linear-gradient-3" x1="178.4" y1="199.54" x2="40.74" y2="88.19" xlink:href="#linear-gradient"/></defs><title>box</title><path class="cls-1" d="M397.25,56.32s23,17.69,1,55.81Z" transform="translate(0)"/><polygon class="cls-2" points="399.5 42 399.5 177 256.5 143 256.5 0 399.5 42"/><polygon class="cls-3" points="256.5 0 157.5 54 157.5 187 256.5 143 256.5 0"/><polygon class="cls-4" points="157.5 187 280.5 215 399.5 177 256.5 143 157.5 187"/><path class="cls-1" d="M186,109.75s.5,10.75,9.5,10S219,78.25,219,51.25,210.25,17,191,21.75s-108.75,67-108.75,67,7,16,32.25,12.75c0,0,7.25,16,32.5,11.25,0,0,10.49,9.91,21.5,5.75C175.57,115.83,186,109.75,186,109.75Z" transform="translate(0)"/><path class="cls-5" d="M114.5,101.5l42.58-24.29-40.68,27.2A15.37,15.37,0,0,1,114.5,101.5Z" transform="translate(0)"/><polygon class="cls-5" points="147 112.75 175.57 95.65 148.7 114.15 147 112.75"/><path class="cls-5" d="M186,109.75a48,48,0,0,0,9.59-7.12s-2.38,5-9.31,9.1Z" transform="translate(0)"/><polygon class="cls-6" points="318.64 18.25 318.64 157.77 213.14 199.67 241.03 206.02 351.41 165.57 351.41 27.88 318.64 18.25"/><line class="cls-7" x1="266.37" y1="117.89" x2="274.84" y2="119.82"/><line class="cls-7" x1="279.2" y1="120.81" x2="284.34" y2="121.98"/><line class="cls-7" x1="288.19" y1="122.86" x2="306.92" y2="127.13"/><line class="cls-7" x1="310.8" y1="128.02" x2="312.57" y2="128.42"/><line class="cls-7" x1="266.18" y1="123.48" x2="282.19" y2="127.14"/><line class="cls-7" x1="286.19" y1="128.05" x2="288.86" y2="128.66"/><line class="cls-7" x1="295" y1="130.06" x2="312.38" y2="134.02"/><line class="cls-7" x1="265.98" y1="129.08" x2="277.72" y2="131.76"/><line class="cls-7" x1="284.66" y1="133.34" x2="290.8" y2="134.74"/><line class="cls-7" x1="294.8" y1="135.65" x2="296.67" y2="136.08"/><line class="cls-7" x1="300.67" y1="136.99" x2="312.18" y2="139.61"/><line class="cls-7" x1="265.79" y1="134.68" x2="300.48" y2="142.59"/><line class="cls-7" x1="303.3" y1="143.23" x2="311.99" y2="145.21"/><polygon class="cls-8" points="369.88 43.41 364.91 50.16 367.91 50.99 367.91 61.65 371.84 62.74 371.84 52.08 374.85 52.91 369.88 43.41"/><polygon class="cls-8" points="382.14 46.8 377.17 53.55 380.18 54.38 380.18 65.04 384.11 66.13 384.11 55.47 387.11 56.3 382.14 46.8"/><polygon class="cls-8" points="384.11 69.78 367.81 65.27 367.81 62.71 384.11 67.22 384.11 69.78"/><polygon class="cls-9" points="390.5 74.82 361.52 66.8 361.52 37.82 390.5 45.84 390.5 74.82"/><polygon class="cls-10" points="213.14 199.67 318.64 157.77 351.41 165.57 241.03 206.02 213.14 199.67"/><path class="cls-11" d="M393.33,177,256.5,145.5,163.67,187s83.93-25.83,119.47-24.83,76,13,81.78,22.33Z" transform="translate(0)"/><path class="cls-11" d="M194.67,120.75s-8.67,1.92-9.25-9.83c0,0-10.42,7.42-18.5,9.25s-8.5-.38-8.5-.38v9.59s8.67,3,24-7.79C182.42,121.58,186,126.5,194.67,120.75Z" transform="translate(0)"/><path class="cls-11" d="M191.71,121.41s-7,.88-7.26-8.26c0,0-13.35,10.66-25,8.73v3.05a28,28,0,0,0,23.37-7.67S184,124.28,191.71,121.41Z" transform="translate(0)"/><path class="cls-12" d="M259.67,3.17,397.25,43.41v76.38S343.33,42.5,259.67,22.84V3.17Z" transform="translate(0)"/><path class="cls-11" d="M252.67,141.5V5.5L219,24.5s17-1.77,22,45.28,5,74.44,5,74.44Z" transform="translate(0)"/><path class="cls-13" d="M155.13,75.75,113.5,99.5s-19.75,2.88-28.38-10.38l13.25-8.75S96,89.75,106.62,91.75,155.13,75.75,155.13,75.75Z" transform="translate(0)"/><path class="cls-13" d="M120.13,104.9s11.38,10.77,26.88,6L174.83,93.5s-28.1,18.43-45.77,5.5Z" transform="translate(0)"/><path class="cls-13" d="M152.17,114.15s6.5,4.68,13.33,2.85,21.36-9,30.09-16.5c0,0-21.85,13.33-34.31,7.67Z" transform="translate(0)"/><path class="cls-13" d="M196.88,103.88s-4.94,6.76-9,8.26c0,0,1.31,6.87,7.72,5.87s19-32.63,20.91-51.38c0,0-9.63,35.75-16.63,41.25S196.88,103.88,196.88,103.88Z" transform="translate(0)"/><path class="cls-13" d="M120.13,104.9,157.5,79.5l-33.67,28.13A8.42,8.42,0,0,1,120.13,104.9Z" transform="translate(0)"/><polygon class="cls-13" points="176.54 98 152.17 114.15 154.61 115.55 176.54 98"/><path class="cls-13" d="M196.88,103.88s-5.57,7.24-9,8.26c0,0-.12,1.08,1.54,3.41C189.41,115.55,196.63,110.69,196.88,103.88Z" transform="translate(0)"/><path class="cls-13" d="M400.83,70.83v33.33s6-11.19,5.83-21.83C406.67,82.33,402.17,82,400.83,70.83Z" transform="translate(0)"/><path class="cls-13" d="M401.88,84.75v14.5a71,71,0,0,0,3.25-9.69S402.92,88.38,401.88,84.75Z" transform="translate(0)"/><path class="cls-14" d="M159.44,37.82,9,134v82.54l190.29-99.52S214.88,41.15,159.44,37.82Z" transform="translate(0)"/><polygon class="cls-15" points="280.5 215 157.5 187 9 257.17 0 314.5 280.5 215"/><polygon class="cls-16" points="157.5 121.4 157.5 187 18.35 252.75 21.09 191.07 157.5 121.4"/><path class="cls-17" d="M74.63,42.38H65.75s-4-10.25-14-9-8,12.38-8,12.38-8.13-1.5-9.5,7.75c0,0-8.89.47-9,11.23l-8.87,8.89Z" transform="translate(0)"/></svg>