<svg id="Layer_1" data-name="Layer 1" xmlns="http://www.w3.org/2000/svg" xmlns:xlink="http://www.w3.org/1999/xlink" viewBox="0 0 291.24 235.85"><defs><style>.cls-1{fill:url(#designitive_gradient);}.cls-2{fill:url(#linear-gradient);}.cls-3{fill:url(#designitive_gradient-2);}.cls-4{opacity:0.63;}.cls-5{fill:url(#New_Gradient_Swatch_copy_3);}</style><linearGradient id="designitive_gradient" x1="22.36" y1="22.91" x2="209.21" y2="111.77" gradientUnits="userSpaceOnUse"><stop offset="0" stop-color="#29abe2"/><stop offset="1" stop-color="aqua"/></linearGradient><linearGradient id="linear-gradient" x1="325.22" y1="86.61" x2="121.75" y2="229.46" gradientUnits="userSpaceOnUse"><stop offset="0" stop-color="#1fbba6"/><stop offset="1" stop-color="#25cde7"/></linearGradient><linearGradient id="designitive_gradient-2" x1="206.42" y1="118.46" x2="118.33" y2="117.91" xlink:href="#designitive_gradient"/><radialGradient id="New_Gradient_Swatch_copy_3" cx="230.84" cy="163.19" r="51.11" gradientUnits="userSpaceOnUse"><stop offset="0" stop-color="aqua"/><stop offset="0.03" stop-color="#25ffff"/><stop offset="0.08" stop-color="#58ffff"/><stop offset="0.13" stop-color="#84ffff"/><stop offset="0.18" stop-color="#aff"/><stop offset="0.24" stop-color="#c9ffff"/><stop offset="0.29" stop-color="#e1ffff"/><stop offset="0.35" stop-color="#f2ffff"/><stop offset="0.42" stop-color="#fcffff"/><stop offset="0.5" stop-color="#fff"/><stop offset="0.58" stop-color="#fcffff"/><stop offset="0.65" stop-color="#f2ffff"/><stop offset="0.71" stop-color="#e1ffff"/><stop offset="0.76" stop-color="#c9ffff"/><stop offset="0.82" stop-color="#aff"/><stop offset="0.87" stop-color="#84ffff"/><stop offset="0.92" stop-color="#58ffff"/><stop offset="0.97" stop-color="#25ffff"/><stop offset="1" stop-color="aqua"/></radialGradient></defs><title>designitive</title><path class="cls-1" d="M295.24,156.63a117.37,117.37,0,0,1-15.85,59.08A118,118,0,0,0,184,113.63a45,45,0,0,0-14-2.21H76.7A72.7,72.7,0,0,1,4,38.71H177.3A117.93,117.93,0,0,1,295.24,156.63Z" transform="translate(-4 -38.71)"/><path class="cls-2" d="M279.39,215.71A117.89,117.89,0,0,1,177.3,274.56H76.7A72.7,72.7,0,0,1,4,201.85H170a45.22,45.22,0,0,0,14-88.22A118,118,0,0,1,279.39,215.71Z" transform="translate(-4 -38.71)"/><path class="cls-3" d="M129,90.18h32.45A24.62,24.62,0,0,1,186,114.8v6.25a24.62,24.62,0,0,1-24.62,24.62H79.73a0,0,0,0,1,0,0v-6.25A49.24,49.24,0,0,1,129,90.18Z"/><g class="cls-4"><path class="cls-5" d="M180.78,112.7a71.91,71.91,0,0,1,9.42,1.47c3.11.68,6.21,1.45,9.26,2.39a114.52,114.52,0,0,1,17.78,7.12,116.69,116.69,0,0,1,16.43,10,114.85,114.85,0,0,1,14.48,12.68l1.65,1.75c.56.58,1.1,1.17,1.61,1.79l3.11,3.68c1,1.26,1.94,2.56,2.92,3.84s1.88,2.6,2.76,3.95l1.33,2,.66,1,.61,1,2.42,4.16c.81,1.38,1.48,2.85,2.21,4.27s1.46,2.85,2.05,4.34l1.89,4.41c.64,1.47,1.12,3,1.67,4.5s1.12,3,1.54,4.54l1.33,4.6c.21.77.44,1.53.63,2.31l.51,2.34,1,4.66c.62,3.12,1,6.28,1.53,9.41a163.63,163.63,0,0,0-12.23-35.76c-.63-1.44-1.43-2.8-2.17-4.18s-1.44-2.79-2.26-4.12l-2.45-4-.61-1-.67-1-1.34-1.93c-1.72-2.62-3.7-5.05-5.6-7.53l-3.06-3.56c-1-1.21-2.14-2.28-3.2-3.43a120.18,120.18,0,0,0-29.83-22.65A131.16,131.16,0,0,0,199,117.95,111.08,111.08,0,0,0,180.78,112.7Z" transform="translate(-4 -38.71)"/></g></svg>